<svg xmlns="http://www.w3.org/2000/svg" viewBox="-1.08 -1.08 2.16 2.16" data-figure-id="000" data-engine-commit="75aed90"><style>.circumcircle{fill:none;stroke:var(--circle,#999);stroke-width:.006}.axis{stroke:var(--axis,#ccc);stroke-width:.004;stroke-dasharray:.03 .03}.triangle{fill:none;stroke-width:.008;stroke-linejoin:round}.triangle.sakti{stroke:var(--sakti,#1b1b1b)}.triangle.siva{stroke:var(--siva,#1b1b1b)}.foot{fill:var(--foot,crimson)}.bindu{fill:var(--bindu,#000)}</style><circle class="circumcircle" cx="0" cy="0" r="1"/><line class="axis" x1="0" y1="-1" x2="0" y2="1"/><polygon class="triangle sakti" data-name="P0-2" points="0,1 0.9573321,-0.2889901 -0.9573321,-0.2889901"/><polygon class="triangle sakti" data-name="P1-4" points="0,0.6870067 0.5665738,-0.2889901 -0.5665738,-0.2889901"/><polygon class="triangle sakti" data-name="P4-6" points="0,0.1061573 0.2815059,-0.2889901 -0.2815059,-0.2889901"/><polygon class="triangle sakti" data-name="P2-13" points="0,0.4658537 0.3586103,-0.1552776 -0.3586103,-0.1552776"/><polygon class="triangle sakti" data-name="P3-14" points="0,0.2232548 0.2403357,-0.0615951 -0.2403357,-0.0615951"/><polygon class="triangle siva" data-name="P10-1" points="0,-1 0.9747601,0.2232548 -0.9747601,0.2232548"/><polygon class="triangle siva" data-name="P9-3" points="0,-0.777171 0.5768882,0.2232548 -0.5768882,0.2232548"/><polygon class="triangle siva" data-name="P7-5" points="0,-0.2889901 0.2692116,0.2232548 -0.2692116,0.2232548"/><polygon class="triangle siva" data-name="P8-10" points="0,-0.4778687 0.3371876,0.1061573 -0.3371876,0.1061573"/><circle class="foot" data-pt="20" cx="0.2724292" cy="-0.0060075" r="0.012"/><circle class="foot" data-pt="20" cx="-0.2724292" cy="-0.0060075" r="0.012"/><circle class="foot" data-pt="21" cx="0.4235637" cy="-0.0426368" r="0.012"/><circle class="foot" data-pt="21" cx="-0.4235637" cy="-0.0426368" r="0.012"/><circle class="bindu" cx="0" cy="0" r="0.016"/></svg>