<svg xmlns="http://www.w3.org/2000/svg" viewBox="-1.08 -1.08 2.16 2.16" data-figure-id="001" data-engine-commit="75aed90"><style>.circumcircle{fill:none;stroke:var(--circle,#999);stroke-width:.006}.axis{stroke:var(--axis,#ccc);stroke-width:.004;stroke-dasharray:.03 .03}.triangle{fill:none;stroke-width:.008;stroke-linejoin:round}.triangle.sakti{stroke:var(--sakti,#1b1b1b)}.triangle.siva{stroke:var(--siva,#1b1b1b)}.foot{fill:var(--foot,crimson)}.bindu{fill:var(--bindu,#000)}</style><circle class="circumcircle" cx="0" cy="0" r="1"/><line class="axis" x1="0" y1="-1" x2="0" y2="1"/><polygon class="triangle sakti" data-name="P0-2" points="0,1 0.9571736,-0.2895144 -0.9571736,-0.2895144"/><polygon class="triangle sakti" data-name="P1-4" points="0,0.6904392 0.5657765,-0.2895144 -0.5657765,-0.2895144"/><polygon class="triangle sakti" data-name="P4-6" points="0,0.1063019 0.2817577,-0.2895144 -0.2817577,-0.2895144"/><polygon class="triangle sakti" data-name="P2-13" points="0,0.465992 0.3587019,-0.1552979 -0.3587019,-0.1552979"/><polygon class="triangle sakti" data-name="P3-14" points="0,0.2238917 0.2402869,-0.0616464 -0.2402869,-0.0616464"/><polygon class="triangle siva" data-name="P10-1" points="0,-1 0.974614,0.2238917 -0.974614,0.2238917"/><polygon class="triangle siva" data-name="P9-3" points="0,-0.7809944 0.5760854,0.2238917 -0.5760854,0.2238917"/><polygon class="triangle siva" data-name="P7-5" points="0,-0.2895144 0.2693613,0.2238917 -0.2693613,0.2238917"/><polygon class="triangle siva" data-name="P8-10" points="0,-0.4778354 0.3372518,0.1063019 -0.3372518,0.1063019"/><circle class="foot" data-pt="20" cx="0.2724595" cy="-0.0059217" r="0.012"/><circle class="foot" data-pt="20" cx="-0.2724595" cy="-0.0059217" r="0.012"/><circle class="foot" data-pt="21" cx="0.4232653" cy="-0.0426778" r="0.012"/><circle class="foot" data-pt="21" cx="-0.4232653" cy="-0.0426778" r="0.012"/><circle class="bindu" cx="0" cy="0" r="0.016"/></svg>