<svg xmlns="http://www.w3.org/2000/svg" viewBox="-1.08 -1.08 2.16 2.16" data-figure-id="002" data-engine-commit="75aed90"><style>.circumcircle{fill:none;stroke:var(--circle,#999);stroke-width:.006}.axis{stroke:var(--axis,#ccc);stroke-width:.004;stroke-dasharray:.03 .03}.triangle{fill:none;stroke-width:.008;stroke-linejoin:round}.triangle.sakti{stroke:var(--sakti,#1b1b1b)}.triangle.siva{stroke:var(--siva,#1b1b1b)}.foot{fill:var(--foot,crimson)}.bindu{fill:var(--bindu,#000)}</style><circle class="circumcircle" cx="0" cy="0" r="1"/><line class="axis" x1="0" y1="-1" x2="0" y2="1"/><polygon class="triangle sakti" data-name="P0-2" points="0,1 0.9573653,-0.2888799 -0.9573653,-0.2888799"/><polygon class="triangle sakti" data-name="P1-4" points="0,0.6862879 0.5667414,-0.2888799 -0.5667414,-0.2888799"/><polygon class="triangle sakti" data-name="P4-6" points="0,0.1061269 0.281453,-0.2888799 -0.281453,-0.2888799"/><polygon class="triangle sakti" data-name="P2-13" points="0,0.4658245 0.3585909,-0.1552732 -0.3585909,-0.1552732"/><polygon class="triangle sakti" data-name="P3-14" points="0,0.223121 0.2403459,-0.0615843 -0.2403459,-0.0615843"/><polygon class="triangle siva" data-name="P10-1" points="0,-1 0.9747908,0.223121 -0.9747908,0.223121"/><polygon class="triangle siva" data-name="P9-3" points="0,-0.7763708 0.5770569,0.223121 -0.5770569,0.223121"/><polygon class="triangle siva" data-name="P7-5" points="0,-0.2888799 0.2691802,0.223121 -0.2691802,0.223121"/><polygon class="triangle siva" data-name="P8-10" points="0,-0.4778756 0.337174,0.1061269 -0.337174,0.1061269"/><circle class="foot" data-pt="20" cx="0.2724227" cy="-0.0060255" r="0.012"/><circle class="foot" data-pt="20" cx="-0.2724227" cy="-0.0060255" r="0.012"/><circle class="foot" data-pt="21" cx="0.4236265" cy="-0.0426282" r="0.012"/><circle class="foot" data-pt="21" cx="-0.4236265" cy="-0.0426282" r="0.012"/><circle class="bindu" cx="0" cy="0" r="0.016"/></svg>