<svg xmlns="http://www.w3.org/2000/svg" viewBox="-1.08 -1.08 2.16 2.16" data-figure-id="003" data-engine-commit="75aed90"><style>.circumcircle{fill:none;stroke:var(--circle,#999);stroke-width:.006}.axis{stroke:var(--axis,#ccc);stroke-width:.004;stroke-dasharray:.03 .03}.triangle{fill:none;stroke-width:.008;stroke-linejoin:round}.triangle.sakti{stroke:var(--sakti,#1b1b1b)}.triangle.siva{stroke:var(--siva,#1b1b1b)}.foot{fill:var(--foot,crimson)}.bindu{fill:var(--bindu,#000)}</style><circle class="circumcircle" cx="0" cy="0" r="1"/><line class="axis" x1="0" y1="-1" x2="0" y2="1"/><polygon class="triangle sakti" data-name="P0-2" points="0,1 0.9574117,-0.2887263 -0.9574117,-0.2887263"/><polygon class="triangle sakti" data-name="P1-4" points="0,0.6852871 0.566975,-0.2887263 -0.566975,-0.2887263"/><polygon class="triangle sakti" data-name="P4-6" points="0,0.1060844 0.2813793,-0.2887263 -0.2813793,-0.2887263"/><polygon class="triangle sakti" data-name="P2-13" points="0,0.4657838 0.3585638,-0.155267 -0.3585638,-0.155267"/><polygon class="triangle sakti" data-name="P3-14" points="0,0.2229346 0.24036,-0.0615692 -0.24036,-0.0615692"/><polygon class="triangle siva" data-name="P10-1" points="0,-1 0.9748334,0.2229346 -0.9748334,0.2229346"/><polygon class="triangle siva" data-name="P9-3" points="0,-0.7752573 0.5772921,0.2229346 -0.5772921,0.2229346"/><polygon class="triangle siva" data-name="P7-5" points="0,-0.2887263 0.2691363,0.2229346 -0.2691363,0.2229346"/><polygon class="triangle siva" data-name="P8-10" points="0,-0.4778851 0.337155,0.1060844 -0.337155,0.1060844"/><circle class="foot" data-pt="20" cx="0.2724137" cy="-0.0060506" r="0.012"/><circle class="foot" data-pt="20" cx="-0.2724137" cy="-0.0060506" r="0.012"/><circle class="foot" data-pt="21" cx="0.423714" cy="-0.0426164" r="0.012"/><circle class="foot" data-pt="21" cx="-0.423714" cy="-0.0426164" r="0.012"/><circle class="bindu" cx="0" cy="0" r="0.016"/></svg>