<svg xmlns="http://www.w3.org/2000/svg" viewBox="-1.08 -1.08 2.16 2.16" data-figure-id="004" data-engine-commit="75aed90"><style>.circumcircle{fill:none;stroke:var(--circle,#999);stroke-width:.006}.axis{stroke:var(--axis,#ccc);stroke-width:.004;stroke-dasharray:.03 .03}.triangle{fill:none;stroke-width:.008;stroke-linejoin:round}.triangle.sakti{stroke:var(--sakti,#1b1b1b)}.triangle.siva{stroke:var(--siva,#1b1b1b)}.foot{fill:var(--foot,crimson)}.bindu{fill:var(--bindu,#000)}</style><circle class="circumcircle" cx="0" cy="0" r="1"/><line class="axis" x1="0" y1="-1" x2="0" y2="1"/><polygon class="triangle sakti" data-name="P0-2" points="0,1 0.9571406,-0.2896238 -0.9571406,-0.2896238"/><polygon class="triangle sakti" data-name="P1-4" points="0,0.7384951 0.5537672,-0.2896238 -0.5537672,-0.2896238"/><polygon class="triangle sakti" data-name="P4-6" points="0,0.1068169 0.2713918,-0.2896238 -0.2713918,-0.2896238"/><polygon class="triangle sakti" data-name="P2-13" points="0,0.4814788 0.3402356,-0.1628002 -0.3402356,-0.1628002"/><polygon class="triangle sakti" data-name="P3-14" points="0,0.2440258 0.2437278,-0.0603394 -0.2437278,-0.0603394"/><polygon class="triangle siva" data-name="P10-1" points="0,-1 0.9697687,0.2440258 -0.9697687,0.2440258"/><polygon class="triangle siva" data-name="P9-3" points="0,-0.7895801 0.5610734,0.2440258 -0.5610734,0.2440258"/><polygon class="triangle siva" data-name="P7-5" points="0,-0.2896238 0.2663319,0.2440258 -0.2663319,0.2440258"/><polygon class="triangle siva" data-name="P8-10" points="0,-0.4824884 0.3402356,0.1068169 -0.3402356,0.1068169"/><circle class="foot" data-pt="20" cx="0.2658723" cy="-0.021984" r="0.012"/><circle class="foot" data-pt="20" cx="-0.2658723" cy="-0.021984" r="0.012"/><circle class="foot" data-pt="21" cx="0.413129" cy="-0.0285164" r="0.012"/><circle class="foot" data-pt="21" cx="-0.413129" cy="-0.0285164" r="0.012"/><circle class="bindu" cx="0" cy="0" r="0.016"/></svg>