<svg xmlns="http://www.w3.org/2000/svg" viewBox="-1.08 -1.08 2.16 2.16" data-figure-id="005" data-engine-commit="75aed90"><style>.circumcircle{fill:none;stroke:var(--circle,#999);stroke-width:.006}.axis{stroke:var(--axis,#ccc);stroke-width:.004;stroke-dasharray:.03 .03}.triangle{fill:none;stroke-width:.008;stroke-linejoin:round}.triangle.sakti{stroke:var(--sakti,#1b1b1b)}.triangle.siva{stroke:var(--siva,#1b1b1b)}.foot{fill:var(--foot,crimson)}.bindu{fill:var(--bindu,#000)}</style><circle class="circumcircle" cx="0" cy="0" r="1"/><line class="axis" x1="0" y1="-1" x2="0" y2="1"/><polygon class="triangle sakti" data-name="P0-2" points="0,1 0.9589708,-0.2835047 -0.9589708,-0.2835047"/><polygon class="triangle sakti" data-name="P1-4" points="0,0.6930467 0.5638123,-0.2835047 -0.5638123,-0.2835047"/><polygon class="triangle sakti" data-name="P4-6" points="0,0.1050407 0.2688443,-0.2835047 -0.2688443,-0.2835047"/><polygon class="triangle sakti" data-name="P2-13" points="0,0.4795003 0.3394855,-0.1624234 -0.3394855,-0.1624234"/><polygon class="triangle sakti" data-name="P3-14" points="0,0.2351654 0.2443332,-0.0597678 -0.2443332,-0.0597678"/><polygon class="triangle siva" data-name="P10-1" points="0,-1 0.9719554,0.2351654 -0.9719554,0.2351654"/><polygon class="triangle siva" data-name="P9-3" points="0,-0.744313 0.5714463,0.2351654 -0.5714463,0.2351654"/><polygon class="triangle siva" data-name="P7-5" points="0,-0.2835047 0.2643579,0.2351654 -0.2643579,0.2351654"/><polygon class="triangle siva" data-name="P8-10" points="0,-0.4829654 0.3394855,0.1050407 -0.3394855,0.1050407"/><circle class="foot" data-pt="20" cx="0.26566" cy="-0.0228288" r="0.012"/><circle class="foot" data-pt="20" cx="-0.26566" cy="-0.0228288" r="0.012"/><circle class="foot" data-pt="21" cx="0.4170993" cy="-0.0293905" r="0.012"/><circle class="foot" data-pt="21" cx="-0.4170993" cy="-0.0293905" r="0.012"/><circle class="bindu" cx="0" cy="0" r="0.016"/></svg>