<svg xmlns="http://www.w3.org/2000/svg" viewBox="-1.08 -1.08 2.16 2.16" data-figure-id="006" data-engine-commit="75aed90"><style>.circumcircle{fill:none;stroke:var(--circle,#999);stroke-width:.006}.axis{stroke:var(--axis,#ccc);stroke-width:.004;stroke-dasharray:.03 .03}.triangle{fill:none;stroke-width:.008;stroke-linejoin:round}.triangle.sakti{stroke:var(--sakti,#1b1b1b)}.triangle.siva{stroke:var(--siva,#1b1b1b)}.foot{fill:var(--foot,crimson)}.bindu{fill:var(--bindu,#000)}</style><circle class="circumcircle" cx="0" cy="0" r="1"/><line class="axis" x1="0" y1="-1" x2="0" y2="1"/><polygon class="triangle sakti" data-name="P0-2" points="0,1 0.956428,-0.2919684 -0.956428,-0.2919684"/><polygon class="triangle sakti" data-name="P1-4" points="0,0.7569065 0.5499157,-0.2919684 -0.5499157,-0.2919684"/><polygon class="triangle sakti" data-name="P4-6" points="0,0.1074839 0.2723725,-0.2919684 -0.2723725,-0.2919684"/><polygon class="triangle sakti" data-name="P2-13" points="0,0.4822132 0.3404864,-0.1629118 -0.3404864,-0.1629118"/><polygon class="triangle sakti" data-name="P3-14" points="0,0.2474773 0.2434705,-0.0605525 -0.2434705,-0.0605525"/><polygon class="triangle siva" data-name="P10-1" points="0,-1 0.9688937,0.2474773 -0.9688937,0.2474773"/><polygon class="triangle siva" data-name="P9-3" points="0,-0.8080368 0.5570831,0.2474773 -0.5570831,0.2474773"/><polygon class="triangle siva" data-name="P7-5" points="0,-0.2919684 0.2670892,0.2474773 -0.2670892,0.2474773"/><polygon class="triangle siva" data-name="P8-10" points="0,-0.4822558 0.3404864,0.1074839 -0.3404864,0.1074839"/><circle class="foot" data-pt="20" cx="0.2659308" cy="-0.0216501" r="0.012"/><circle class="foot" data-pt="20" cx="-0.2659308" cy="-0.0216501" r="0.012"/><circle class="foot" data-pt="21" cx="0.4116048" cy="-0.0281628" r="0.012"/><circle class="foot" data-pt="21" cx="-0.4116048" cy="-0.0281628" r="0.012"/><circle class="bindu" cx="0" cy="0" r="0.016"/></svg>