<svg xmlns="http://www.w3.org/2000/svg" viewBox="-1.08 -1.08 2.16 2.16" data-figure-id="007" data-engine-commit="75aed90"><style>.circumcircle{fill:none;stroke:var(--circle,#999);stroke-width:.006}.axis{stroke:var(--axis,#ccc);stroke-width:.004;stroke-dasharray:.03 .03}.triangle{fill:none;stroke-width:.008;stroke-linejoin:round}.triangle.sakti{stroke:var(--sakti,#1b1b1b)}.triangle.siva{stroke:var(--siva,#1b1b1b)}.foot{fill:var(--foot,crimson)}.bindu{fill:var(--bindu,#000)}</style><circle class="circumcircle" cx="0" cy="0" r="1"/><line class="axis" x1="0" y1="-1" x2="0" y2="1"/><polygon class="triangle sakti" data-name="P0-2" points="0,1 0.9576885,-0.2878069 -0.9576885,-0.2878069"/><polygon class="triangle sakti" data-name="P1-4" points="0,0.7246188 0.5567508,-0.2878069 -0.5567508,-0.2878069"/><polygon class="triangle sakti" data-name="P4-6" points="0,0.1062948 0.2706336,-0.2878069 -0.2706336,-0.2878069"/><polygon class="triangle sakti" data-name="P2-13" points="0,0.4809008 0.3400273,-0.1627013 -0.3400273,-0.1627013"/><polygon class="triangle sakti" data-name="P3-14" points="0,0.2413729 0.2439176,-0.0601721 -0.2439176,-0.0601721"/><polygon class="triangle siva" data-name="P10-1" points="0,-1 0.9704324,0.2413729 -0.9704324,0.2413729"/><polygon class="triangle siva" data-name="P9-3" points="0,-0.7757155 0.5641595,0.2413729 -0.5641595,0.2413729"/><polygon class="triangle siva" data-name="P7-5" points="0,-0.2878069 0.2657455,0.2413729 -0.2657455,0.2413729"/><polygon class="triangle siva" data-name="P8-10" points="0,-0.4826497 0.3400273,0.1062948 -0.3400273,0.1062948"/><circle class="foot" data-pt="20" cx="0.2658183" cy="-0.0222389" r="0.012"/><circle class="foot" data-pt="20" cx="-0.2658183" cy="-0.0222389" r="0.012"/><circle class="foot" data-pt="21" cx="0.4143091" cy="-0.0287832" r="0.012"/><circle class="foot" data-pt="21" cx="-0.4143091" cy="-0.0287832" r="0.012"/><circle class="bindu" cx="0" cy="0" r="0.016"/></svg>