<svg xmlns="http://www.w3.org/2000/svg" viewBox="-1.08 -1.08 2.16 2.16" data-figure-id="008" data-engine-commit="75aed90"><style>.circumcircle{fill:none;stroke:var(--circle,#999);stroke-width:.006}.axis{stroke:var(--axis,#ccc);stroke-width:.004;stroke-dasharray:.03 .03}.triangle{fill:none;stroke-width:.008;stroke-linejoin:round}.triangle.sakti{stroke:var(--sakti,#1b1b1b)}.triangle.siva{stroke:var(--siva,#1b1b1b)}.foot{fill:var(--foot,crimson)}.bindu{fill:var(--bindu,#000)}</style><circle class="circumcircle" cx="0" cy="0" r="1"/><line class="axis" x1="0" y1="-1" x2="0" y2="1"/><polygon class="triangle sakti" data-name="P0-2" points="0,1 0.9587765,-0.2841614 -0.9587765,-0.2841614"/><polygon class="triangle sakti" data-name="P1-4" points="0,0.697753 0.5627348,-0.2841614 -0.5627348,-0.2841614"/><polygon class="triangle sakti" data-name="P4-6" points="0,0.1052337 0.2691168,-0.2841614 -0.2691168,-0.2841614"/><polygon class="triangle sakti" data-name="P2-13" points="0,0.479717 0.3395726,-0.1624698 -0.3395726,-0.1624698"/><polygon class="triangle sakti" data-name="P3-14" points="0,0.2361062 0.2442728,-0.0598303 -0.2442728,-0.0598303"/><polygon class="triangle siva" data-name="P10-1" points="0,-1 0.9717273,0.2361062 -0.9717273,0.2361062"/><polygon class="triangle siva" data-name="P9-3" points="0,-0.7489816 0.570336,0.2361062 -0.570336,0.2361062"/><polygon class="triangle siva" data-name="P7-5" points="0,-0.2841614 0.2645696,0.2361062 -0.2645696,0.2361062"/><polygon class="triangle siva" data-name="P8-10" points="0,-0.4829232 0.3395726,0.1052337 -0.3395726,0.1052337"/><circle class="foot" data-pt="20" cx="0.2656869" cy="-0.02274" r="0.012"/><circle class="foot" data-pt="20" cx="-0.2656869" cy="-0.02274" r="0.012"/><circle class="foot" data-pt="21" cx="0.4166738" cy="-0.0293" r="0.012"/><circle class="foot" data-pt="21" cx="-0.4166738" cy="-0.0293" r="0.012"/><circle class="bindu" cx="0" cy="0" r="0.016"/></svg>