<svg xmlns="http://www.w3.org/2000/svg" viewBox="-1.08 -1.08 2.16 2.16" data-figure-id="009" data-engine-commit="75aed90"><style>.circumcircle{fill:none;stroke:var(--circle,#999);stroke-width:.006}.axis{stroke:var(--axis,#ccc);stroke-width:.004;stroke-dasharray:.03 .03}.triangle{fill:none;stroke-width:.008;stroke-linejoin:round}.triangle.sakti{stroke:var(--sakti,#1b1b1b)}.triangle.siva{stroke:var(--siva,#1b1b1b)}.foot{fill:var(--foot,crimson)}.bindu{fill:var(--bindu,#000)}</style><circle class="circumcircle" cx="0" cy="0" r="1"/><line class="axis" x1="0" y1="-1" x2="0" y2="1"/><polygon class="triangle sakti" data-name="P0-2" points="0,1 0.9574087,-0.2887361 -0.9574087,-0.2887361"/><polygon class="triangle sakti" data-name="P1-4" points="0,0.8568074 0.5273908,-0.2887361 -0.5273908,-0.2887361"/><polygon class="triangle sakti" data-name="P4-6" points="0,0.1073296 0.2504572,-0.2887361 -0.2504572,-0.2887361"/><polygon class="triangle sakti" data-name="P2-13" points="0,0.5137662 0.3033921,-0.1779019 -0.3033921,-0.1779019"/><polygon class="triangle sakti" data-name="P3-14" points="0,0.2904904 0.2499623,-0.0573641 -0.2499623,-0.0573641"/><polygon class="triangle siva" data-name="P10-1" points="0,-1 0.9568779,0.2904904 -0.9568779,0.2904904"/><polygon class="triangle siva" data-name="P9-3" points="0,-0.8131388 0.5270984,0.2904904 -0.5270984,0.2904904"/><polygon class="triangle siva" data-name="P7-5" points="0,-0.2887361 0.2607237,0.2904904 -0.2607237,0.2904904"/><polygon class="triangle siva" data-name="P8-10" points="0,-0.4903114 0.3450482,0.1073296 -0.3450482,0.1073296"/><circle class="foot" data-pt="20" cx="0.250279" cy="-0.0568155" r="0.012"/><circle class="foot" data-pt="20" cx="-0.250279" cy="-0.0568155" r="0.012"/><circle class="foot" data-pt="21" cx="0.391466" cy="0.0065057" r="0.012"/><circle class="foot" data-pt="21" cx="-0.391466" cy="0.0065057" r="0.012"/><circle class="bindu" cx="0" cy="0" r="0.016"/></svg>