<svg xmlns="http://www.w3.org/2000/svg" viewBox="-1.08 -1.08 2.16 2.16" data-figure-id="010" data-engine-commit="75aed90"><style>.circumcircle{fill:none;stroke:var(--circle,#999);stroke-width:.006}.axis{stroke:var(--axis,#ccc);stroke-width:.004;stroke-dasharray:.03 .03}.triangle{fill:none;stroke-width:.008;stroke-linejoin:round}.triangle.sakti{stroke:var(--sakti,#1b1b1b)}.triangle.siva{stroke:var(--siva,#1b1b1b)}.foot{fill:var(--foot,crimson)}.bindu{fill:var(--bindu,#000)}</style><circle class="circumcircle" cx="0" cy="0" r="1"/><line class="axis" x1="0" y1="-1" x2="0" y2="1"/><polygon class="triangle sakti" data-name="P0-2" points="0,1 0.9573113,-0.289059 -0.9573113,-0.289059"/><polygon class="triangle sakti" data-name="P1-4" points="0,0.6906523 0.5656366,-0.289059 -0.5656366,-0.289059"/><polygon class="triangle sakti" data-name="P4-6" points="0,0.106214 0.2807673,-0.289059 -0.2807673,-0.289059"/><polygon class="triangle sakti" data-name="P2-13" points="0,0.466995 0.3572558,-0.155831 -0.3572558,-0.155831"/><polygon class="triangle sakti" data-name="P3-14" points="0,0.2247352 0.2405914,-0.0615076 -0.2405914,-0.0615076"/><polygon class="triangle siva" data-name="P10-1" points="0,-1 0.9744199,0.2247352 -0.9744199,0.2247352"/><polygon class="triangle siva" data-name="P9-3" points="0,-0.7781007 0.5757454,0.2247352 -0.5757454,0.2247352"/><polygon class="triangle siva" data-name="P7-5" points="0,-0.289059 0.2689974,0.2247352 -0.2689974,0.2247352"/><polygon class="triangle siva" data-name="P8-10" points="0,-0.4782242 0.3374256,0.106214 -0.3374256,0.106214"/><circle class="foot" data-pt="20" cx="0.2719732" cy="-0.0071527" r="0.012"/><circle class="foot" data-pt="20" cx="-0.2719732" cy="-0.0071527" r="0.012"/><circle class="foot" data-pt="21" cx="0.422802" cy="-0.0416623" r="0.012"/><circle class="foot" data-pt="21" cx="-0.422802" cy="-0.0416623" r="0.012"/><circle class="bindu" cx="0" cy="0" r="0.016"/></svg>