<svg xmlns="http://www.w3.org/2000/svg" viewBox="-1.08 -1.08 2.16 2.16" data-figure-id="011" data-engine-commit="75aed90"><style>.circumcircle{fill:none;stroke:var(--circle,#999);stroke-width:.006}.axis{stroke:var(--axis,#ccc);stroke-width:.004;stroke-dasharray:.03 .03}.triangle{fill:none;stroke-width:.008;stroke-linejoin:round}.triangle.sakti{stroke:var(--sakti,#1b1b1b)}.triangle.siva{stroke:var(--siva,#1b1b1b)}.foot{fill:var(--foot,crimson)}.bindu{fill:var(--bindu,#000)}</style><circle class="circumcircle" cx="0" cy="0" r="1"/><line class="axis" x1="0" y1="-1" x2="0" y2="1"/><polygon class="triangle sakti" data-name="P0-2" points="0,1 0.9573199,-0.2890304 -0.9573199,-0.2890304"/><polygon class="triangle sakti" data-name="P1-4" points="0,0.6891129 0.5660317,-0.2890304 -0.5660317,-0.2890304"/><polygon class="triangle sakti" data-name="P4-6" points="0,0.1061903 0.2810787,-0.2890304 -0.2810787,-0.2890304"/><polygon class="triangle sakti" data-name="P2-13" points="0,0.4665137 0.3578267,-0.1555977 -0.3578267,-0.1555977"/><polygon class="triangle sakti" data-name="P3-14" points="0,0.2241102 0.2404837,-0.0615446 -0.2404837,-0.0615446"/><polygon class="triangle siva" data-name="P10-1" points="0,-1 0.9745638,0.2241102 -0.9745638,0.2241102"/><polygon class="triangle siva" data-name="P9-3" points="0,-0.7777091 0.5762275,0.2241102 -0.5762275,0.2241102"/><polygon class="triangle siva" data-name="P7-5" points="0,-0.2890304 0.2690876,0.2241102 -0.2690876,0.2241102"/><polygon class="triangle siva" data-name="P8-10" points="0,-0.4780747 0.3373255,0.1061903 -0.3373255,0.1061903"/><circle class="foot" data-pt="20" cx="0.2721659" cy="-0.0066694" r="0.012"/><circle class="foot" data-pt="20" cx="-0.2721659" cy="-0.0066694" r="0.012"/><circle class="foot" data-pt="21" cx="0.4231232" cy="-0.0420743" r="0.012"/><circle class="foot" data-pt="21" cx="-0.4231232" cy="-0.0420743" r="0.012"/><circle class="bindu" cx="0" cy="0" r="0.016"/></svg>