<svg xmlns="http://www.w3.org/2000/svg" viewBox="-1.08 -1.08 2.16 2.16" data-figure-id="013" data-engine-commit="75aed90"><style>.circumcircle{fill:none;stroke:var(--circle,#999);stroke-width:.006}.axis{stroke:var(--axis,#ccc);stroke-width:.004;stroke-dasharray:.03 .03}.triangle{fill:none;stroke-width:.008;stroke-linejoin:round}.triangle.sakti{stroke:var(--sakti,#1b1b1b)}.triangle.siva{stroke:var(--siva,#1b1b1b)}.foot{fill:var(--foot,crimson)}.bindu{fill:var(--bindu,#000)}</style><circle class="circumcircle" cx="0" cy="0" r="1"/><line class="axis" x1="0" y1="-1" x2="0" y2="1"/><polygon class="triangle sakti" data-name="P0-2" points="0,1 0.95717,-0.2895265 -0.95717,-0.2895265"/><polygon class="triangle sakti" data-name="P1-4" points="0,0.7250693 0.5570201,-0.2895265 -0.5570201,-0.2895265"/><polygon class="triangle sakti" data-name="P4-6" points="0,0.1066734 0.2739648,-0.2895265 -0.2739648,-0.2895265"/><polygon class="triangle sakti" data-name="P2-13" points="0,0.4775046 0.3448748,-0.1608984 -0.3448748,-0.1608984"/><polygon class="triangle sakti" data-name="P3-14" points="0,0.238639 0.2428875,-0.0606705 -0.2428875,-0.0606705"/><polygon class="triangle siva" data-name="P10-1" points="0,-1 0.9711083,0.238639 -0.9711083,0.238639"/><polygon class="triangle siva" data-name="P9-3" points="0,-0.7864885 0.5651314,0.238639 -0.5651314,0.238639"/><polygon class="triangle siva" data-name="P7-5" points="0,-0.2895265 0.2670536,0.238639 -0.2670536,0.238639"/><polygon class="triangle siva" data-name="P8-10" points="0,-0.4813641 0.3395036,0.1066734 -0.3395036,0.1066734"/><circle class="foot" data-pt="20" cx="0.2676037" cy="-0.0178608" r="0.012"/><circle class="foot" data-pt="20" cx="-0.2676037" cy="-0.0178608" r="0.012"/><circle class="foot" data-pt="21" cx="0.4157847" cy="-0.0322704" r="0.012"/><circle class="foot" data-pt="21" cx="-0.4157847" cy="-0.0322704" r="0.012"/><circle class="bindu" cx="0" cy="0" r="0.016"/></svg>