<svg xmlns="http://www.w3.org/2000/svg" viewBox="-1.08 -1.08 2.16 2.16" data-figure-id="014" data-engine-commit="75aed90"><style>.circumcircle{fill:none;stroke:var(--circle,#999);stroke-width:.006}.axis{stroke:var(--axis,#ccc);stroke-width:.004;stroke-dasharray:.03 .03}.triangle{fill:none;stroke-width:.008;stroke-linejoin:round}.triangle.sakti{stroke:var(--sakti,#1b1b1b)}.triangle.siva{stroke:var(--siva,#1b1b1b)}.foot{fill:var(--foot,crimson)}.bindu{fill:var(--bindu,#000)}</style><circle class="circumcircle" cx="0" cy="0" r="1"/><line class="axis" x1="0" y1="-1" x2="0" y2="1"/><polygon class="triangle sakti" data-name="P0-2" points="0,1 0.9571456,-0.289607 -0.9571456,-0.289607"/><polygon class="triangle sakti" data-name="P1-4" points="0,0.7356593 0.5544494,-0.289607 -0.5544494,-0.289607"/><polygon class="triangle sakti" data-name="P4-6" points="0,0.1067882 0.2719316,-0.289607 -0.2719316,-0.289607"/><polygon class="triangle sakti" data-name="P2-13" points="0,0.4806451 0.3412069,-0.1624019 -0.3412069,-0.1624019"/><polygon class="triangle sakti" data-name="P3-14" points="0,0.2428898 0.2435528,-0.0604096 -0.2435528,-0.0604096"/><polygon class="triangle siva" data-name="P10-1" points="0,-1 0.9700539,0.2428898 -0.9700539,0.2428898"/><polygon class="triangle siva" data-name="P9-3" points="0,-0.7889352 0.5619268,0.2428898 -0.5619268,0.2428898"/><polygon class="triangle siva" data-name="P7-5" points="0,-0.289607 0.2664827,0.2428898 -0.2664827,0.2428898"/><polygon class="triangle siva" data-name="P8-10" points="0,-0.4822554 0.3400845,0.1067882 -0.3400845,0.1067882"/><circle class="foot" data-pt="20" cx="0.2662391" cy="-0.0211157" r="0.012"/><circle class="foot" data-pt="20" cx="-0.2662391" cy="-0.0211157" r="0.012"/><circle class="foot" data-pt="21" cx="0.4136863" cy="-0.0293134" r="0.012"/><circle class="foot" data-pt="21" cx="-0.4136863" cy="-0.0293134" r="0.012"/><circle class="bindu" cx="0" cy="0" r="0.016"/></svg>