<svg xmlns="http://www.w3.org/2000/svg" viewBox="-1.08 -1.08 2.16 2.16" data-figure-id="015" data-engine-commit="75aed90"><style>.circumcircle{fill:none;stroke:var(--circle,#999);stroke-width:.006}.axis{stroke:var(--axis,#ccc);stroke-width:.004;stroke-dasharray:.03 .03}.triangle{fill:none;stroke-width:.008;stroke-linejoin:round}.triangle.sakti{stroke:var(--sakti,#1b1b1b)}.triangle.siva{stroke:var(--siva,#1b1b1b)}.foot{fill:var(--foot,crimson)}.bindu{fill:var(--bindu,#000)}</style><circle class="circumcircle" cx="0" cy="0" r="1"/><line class="axis" x1="0" y1="-1" x2="0" y2="1"/><polygon class="triangle sakti" data-name="P0-2" points="0,1 0.9573459,-0.2889442 -0.9573459,-0.2889442"/><polygon class="triangle sakti" data-name="P1-4" points="0,0.6846834 0.5671736,-0.2889442 -0.5671736,-0.2889442"/><polygon class="triangle sakti" data-name="P4-6" points="0,0.1061204 0.2819785,-0.2889442 -0.2819785,-0.2889442"/><polygon class="triangle sakti" data-name="P2-13" points="0,0.4651234 0.359478,-0.1549231 -0.359478,-0.1549231"/><polygon class="triangle sakti" data-name="P3-14" points="0,0.2223106 0.2401714,-0.0616507 -0.2401714,-0.0616507"/><polygon class="triangle siva" data-name="P10-1" points="0,-1 0.9749759,0.2223106 -0.9749759,0.2223106"/><polygon class="triangle siva" data-name="P9-3" points="0,-0.7765742 0.5776184,0.2223106 -0.5776184,0.2223106"/><polygon class="triangle siva" data-name="P7-5" points="0,-0.2889442 0.269349,0.2223106 -0.269349,0.2223106"/><polygon class="triangle siva" data-name="P8-10" points="0,-0.4776398 0.3370341,0.1061204 -0.3370341,0.1061204"/><circle class="foot" data-pt="20" cx="0.272719" cy="-0.0052767" r="0.012"/><circle class="foot" data-pt="20" cx="-0.272719" cy="-0.0052767" r="0.012"/><circle class="foot" data-pt="21" cx="0.4240511" cy="-0.0432557" r="0.012"/><circle class="foot" data-pt="21" cx="-0.4240511" cy="-0.0432557" r="0.012"/><circle class="bindu" cx="0" cy="0" r="0.016"/></svg>