<svg xmlns="http://www.w3.org/2000/svg" viewBox="-1.08 -1.08 2.16 2.16" data-figure-id="016" data-engine-commit="75aed90"><style>.circumcircle{fill:none;stroke:var(--circle,#999);stroke-width:.006}.axis{stroke:var(--axis,#ccc);stroke-width:.004;stroke-dasharray:.03 .03}.triangle{fill:none;stroke-width:.008;stroke-linejoin:round}.triangle.sakti{stroke:var(--sakti,#1b1b1b)}.triangle.siva{stroke:var(--siva,#1b1b1b)}.foot{fill:var(--foot,crimson)}.bindu{fill:var(--bindu,#000)}</style><circle class="circumcircle" cx="0" cy="0" r="1"/><line class="axis" x1="0" y1="-1" x2="0" y2="1"/><polygon class="triangle sakti" data-name="P0-2" points="0,1 0.9573842,-0.2888175 -0.9573842,-0.2888175"/><polygon class="triangle sakti" data-name="P1-4" points="0,0.8524605 0.5282943,-0.2888175 -0.5282943,-0.2888175"/><polygon class="triangle sakti" data-name="P4-6" points="0,0.1073322 0.2511756,-0.2888175 -0.2511756,-0.2888175"/><polygon class="triangle sakti" data-name="P2-13" points="0,0.5126603 0.3046297,-0.1773961 -0.3046297,-0.1773961"/><polygon class="triangle sakti" data-name="P3-14" points="0,0.2888175 0.2497668,-0.0574742 -0.2497668,-0.0574742"/><polygon class="triangle siva" data-name="P10-1" points="0,-1 0.9573842,0.2888175 -0.9573842,0.2888175"/><polygon class="triangle siva" data-name="P9-3" points="0,-0.812376 0.5282943,0.2888175 -0.5282943,0.2888175"/><polygon class="triangle siva" data-name="P7-5" points="0,-0.2888175 0.2609087,0.2888175 -0.2609087,0.2888175"/><polygon class="triangle siva" data-name="P8-10" points="0,-0.4900829 0.3449177,0.1073322 -0.3449177,0.1073322"/><circle class="foot" data-pt="20" cx="0.2508563" cy="-0.055587" r="0.012"/><circle class="foot" data-pt="20" cx="-0.2508563" cy="-0.055587" r="0.012"/><circle class="foot" data-pt="21" cx="0.3922117" cy="0.0051626" r="0.012"/><circle class="foot" data-pt="21" cx="-0.3922117" cy="0.0051626" r="0.012"/><circle class="bindu" cx="0" cy="0" r="0.016"/></svg>