<svg xmlns="http://www.w3.org/2000/svg" viewBox="-1.08 -1.08 2.16 2.16" data-figure-id="017" data-engine-commit="75aed90"><style>.circumcircle{fill:none;stroke:var(--circle,#999);stroke-width:.006}.axis{stroke:var(--axis,#ccc);stroke-width:.004;stroke-dasharray:.03 .03}.triangle{fill:none;stroke-width:.008;stroke-linejoin:round}.triangle.sakti{stroke:var(--sakti,#1b1b1b)}.triangle.siva{stroke:var(--siva,#1b1b1b)}.foot{fill:var(--foot,crimson)}.bindu{fill:var(--bindu,#000)}</style><circle class="circumcircle" cx="0" cy="0" r="1"/><line class="axis" x1="0" y1="-1" x2="0" y2="1"/><polygon class="triangle sakti" data-name="P0-2" points="0,1 0.9557452,-0.2941957 -0.9557452,-0.2941957"/><polygon class="triangle sakti" data-name="P1-4" points="0,0.8484908 0.5305709,-0.2941957 -0.5305709,-0.2941957"/><polygon class="triangle sakti" data-name="P4-6" points="0,0.1086333 0.2613959,-0.2941957 -0.2613959,-0.2941957"/><polygon class="triangle sakti" data-name="P2-13" points="0,0.5011889 0.3197006,-0.1715131 -0.3197006,-0.1715131"/><polygon class="triangle sakti" data-name="P3-14" points="0,0.2778811 0.2466696,-0.0591334 -0.2466696,-0.0591334"/><polygon class="triangle siva" data-name="P10-1" points="0,-1 0.9606155,0.2778811 -0.9606155,0.2778811"/><polygon class="triangle siva" data-name="P9-3" points="0,-0.8442151 0.5332746,0.2778811 -0.5332746,0.2778811"/><polygon class="triangle siva" data-name="P7-5" points="0,-0.2941957 0.2649448,0.2778811 -0.2649448,0.2778811"/><polygon class="triangle siva" data-name="P8-10" points="0,-0.4863777 0.3435298,0.1086333 -0.3435298,0.1086333"/><circle class="foot" data-pt="20" cx="0.2574327" cy="-0.0404912" r="0.012"/><circle class="foot" data-pt="20" cx="-0.2574327" cy="-0.0404912" r="0.012"/><circle class="foot" data-pt="21" cx="0.397549" cy="-0.0077075" r="0.012"/><circle class="foot" data-pt="21" cx="-0.397549" cy="-0.0077075" r="0.012"/><circle class="bindu" cx="0" cy="0" r="0.016"/></svg>