<svg xmlns="http://www.w3.org/2000/svg" viewBox="-1.08 -1.08 2.16 2.16" data-figure-id="018" data-engine-commit="75aed90"><style>.circumcircle{fill:none;stroke:var(--circle,#999);stroke-width:.006}.axis{stroke:var(--axis,#ccc);stroke-width:.004;stroke-dasharray:.03 .03}.triangle{fill:none;stroke-width:.008;stroke-linejoin:round}.triangle.sakti{stroke:var(--sakti,#1b1b1b)}.triangle.siva{stroke:var(--siva,#1b1b1b)}.foot{fill:var(--foot,crimson)}.bindu{fill:var(--bindu,#000)}</style><circle class="circumcircle" cx="0" cy="0" r="1"/><line class="axis" x1="0" y1="-1" x2="0" y2="1"/><polygon class="triangle sakti" data-name="P0-2" points="0,1 0.9572501,-0.2892616 -0.9572501,-0.2892616"/><polygon class="triangle sakti" data-name="P1-4" points="0,0.8560066 0.5277086,-0.2892616 -0.5277086,-0.2892616"/><polygon class="triangle sakti" data-name="P4-6" points="0,0.1074626 0.2514965,-0.2892616 -0.2514965,-0.2892616"/><polygon class="triangle sakti" data-name="P2-13" points="0,0.5125418 0.3049595,-0.177284 -0.3049595,-0.177284"/><polygon class="triangle sakti" data-name="P3-14" points="0,0.2892616 0.2496463,-0.0575369 -0.2496463,-0.0575369"/><polygon class="triangle siva" data-name="P10-1" points="0,-1 0.9572501,0.2892616 -0.9572501,0.2892616"/><polygon class="triangle siva" data-name="P9-3" points="0,-0.8160184 0.5277086,0.2892616 -0.5277086,0.2892616"/><polygon class="triangle siva" data-name="P7-5" points="0,-0.2892616 0.2611408,0.2892616 -0.2611408,0.2892616"/><polygon class="triangle siva" data-name="P8-10" points="0,-0.489937 0.3449088,0.1074626 -0.3449088,0.1074626"/><circle class="foot" data-pt="20" cx="0.2509915" cy="-0.055207" r="0.012"/><circle class="foot" data-pt="20" cx="-0.2509915" cy="-0.055207" r="0.012"/><circle class="foot" data-pt="21" cx="0.3920565" cy="0.0051397" r="0.012"/><circle class="foot" data-pt="21" cx="-0.3920565" cy="0.0051397" r="0.012"/><circle class="bindu" cx="0" cy="0" r="0.016"/></svg>