<svg xmlns="http://www.w3.org/2000/svg" viewBox="-1.08 -1.08 2.16 2.16" data-figure-id="019" data-engine-commit="75aed90"><style>.circumcircle{fill:none;stroke:var(--circle,#999);stroke-width:.006}.axis{stroke:var(--axis,#ccc);stroke-width:.004;stroke-dasharray:.03 .03}.triangle{fill:none;stroke-width:.008;stroke-linejoin:round}.triangle.sakti{stroke:var(--sakti,#1b1b1b)}.triangle.siva{stroke:var(--siva,#1b1b1b)}.foot{fill:var(--foot,crimson)}.bindu{fill:var(--bindu,#000)}</style><circle class="circumcircle" cx="0" cy="0" r="1"/><line class="axis" x1="0" y1="-1" x2="0" y2="1"/><polygon class="triangle sakti" data-name="P0-2" points="0,1 0.9572958,-0.2891101 -0.9572958,-0.2891101"/><polygon class="triangle sakti" data-name="P1-4" points="0,0.6906285 0.5656524,-0.2891101 -0.5656524,-0.2891101"/><polygon class="triangle sakti" data-name="P4-6" points="0,0.106224 0.2808783,-0.2891101 -0.2808783,-0.2891101"/><polygon class="triangle sakti" data-name="P2-13" points="0,0.4668822 0.3574182,-0.1557711 -0.3574182,-0.1557711"/><polygon class="triangle sakti" data-name="P3-14" points="0,0.2246404 0.2405572,-0.0615232 -0.2405572,-0.0615232"/><polygon class="triangle siva" data-name="P10-1" points="0,-1 0.9744417,0.2246404 -0.9744417,0.2246404"/><polygon class="triangle siva" data-name="P9-3" points="0,-0.7784245 0.5757836,0.2246404 -0.5757836,0.2246404"/><polygon class="triangle siva" data-name="P7-5" points="0,-0.2891101 0.2690383,0.2246404 -0.2690383,0.2246404"/><polygon class="triangle siva" data-name="P8-10" points="0,-0.4781806 0.3374061,0.106224 -0.3374061,0.106224"/><circle class="foot" data-pt="20" cx="0.272028" cy="-0.0070142" r="0.012"/><circle class="foot" data-pt="20" cx="-0.272028" cy="-0.0070142" r="0.012"/><circle class="foot" data-pt="21" cx="0.422854" cy="-0.0417762" r="0.012"/><circle class="foot" data-pt="21" cx="-0.422854" cy="-0.0417762" r="0.012"/><circle class="bindu" cx="0" cy="0" r="0.016"/></svg>