<svg xmlns="http://www.w3.org/2000/svg" viewBox="-1.08 -1.08 2.16 2.16" data-figure-id="020" data-engine-commit="75aed90"><style>.circumcircle{fill:none;stroke:var(--circle,#999);stroke-width:.006}.axis{stroke:var(--axis,#ccc);stroke-width:.004;stroke-dasharray:.03 .03}.triangle{fill:none;stroke-width:.008;stroke-linejoin:round}.triangle.sakti{stroke:var(--sakti,#1b1b1b)}.triangle.siva{stroke:var(--siva,#1b1b1b)}.foot{fill:var(--foot,crimson)}.bindu{fill:var(--bindu,#000)}</style><circle class="circumcircle" cx="0" cy="0" r="1"/><line class="axis" x1="0" y1="-1" x2="0" y2="1"/><polygon class="triangle sakti" data-name="P0-2" points="0,1 0.954431,-0.2984316 -0.954431,-0.2984316"/><polygon class="triangle sakti" data-name="P1-4" points="0,0.6857818 0.5682358,-0.2984316 -0.5682358,-0.2984316"/><polygon class="triangle sakti" data-name="P4-6" points="0,0.1077799 0.3015612,-0.2984316 -0.3015612,-0.2984316"/><polygon class="triangle sakti" data-name="P2-13" points="0,0.4469933 0.3866419,-0.145083 -0.3866419,-0.145083"/><polygon class="triangle sakti" data-name="P3-14" points="0,0.2077148 0.234391,-0.0642449 -0.234391,-0.0642449"/><polygon class="triangle siva" data-name="P10-1" points="0,-1 0.9781894,0.2077148 -0.9781894,0.2077148"/><polygon class="triangle siva" data-name="P9-3" points="0,-0.8419624 0.5823808,0.2077148 -0.5823808,0.2077148"/><polygon class="triangle siva" data-name="P7-5" points="0,-0.2984316 0.2760121,0.2077148 -0.2760121,0.2077148"/><polygon class="triangle siva" data-name="P8-10" points="0,-0.470222 0.3337095,0.1077799 -0.3337095,0.1077799"/><circle class="foot" data-pt="20" cx="0.2810629" cy="0.0165933" r="0.012"/><circle class="foot" data-pt="20" cx="-0.2810629" cy="0.0165933" r="0.012"/><circle class="foot" data-pt="21" cx="0.432245" cy="-0.0628885" r="0.012"/><circle class="foot" data-pt="21" cx="-0.432245" cy="-0.0628885" r="0.012"/><circle class="bindu" cx="0" cy="0" r="0.016"/></svg>