<svg xmlns="http://www.w3.org/2000/svg" viewBox="-1.08 -1.08 2.16 2.16" data-figure-id="022" data-engine-commit="75aed90"><style>.circumcircle{fill:none;stroke:var(--circle,#999);stroke-width:.006}.axis{stroke:var(--axis,#ccc);stroke-width:.004;stroke-dasharray:.03 .03}.triangle{fill:none;stroke-width:.008;stroke-linejoin:round}.triangle.sakti{stroke:var(--sakti,#1b1b1b)}.triangle.siva{stroke:var(--siva,#1b1b1b)}.foot{fill:var(--foot,crimson)}.bindu{fill:var(--bindu,#000)}</style><circle class="circumcircle" cx="0" cy="0" r="1"/><line class="axis" x1="0" y1="-1" x2="0" y2="1"/><polygon class="triangle sakti" data-name="P0-2" points="0,1 0.9592496,-0.2825601 -0.9592496,-0.2825601"/><polygon class="triangle sakti" data-name="P1-4" points="0,0.6934154 0.5634797,-0.2825601 -0.5634797,-0.2825601"/><polygon class="triangle sakti" data-name="P4-6" points="0,0.1048219 0.2668447,-0.2825601 -0.2668447,-0.2825601"/><polygon class="triangle sakti" data-name="P2-13" points="0,0.4816789 0.3364402,-0.1635614 -0.3364402,-0.1635614"/><polygon class="triangle sakti" data-name="P3-14" points="0,0.2369666 0.2449746,-0.0594632 -0.2449746,-0.0594632"/><polygon class="triangle siva" data-name="P10-1" points="0,-1 0.9715178,0.2369666 -0.9715178,0.2369666"/><polygon class="triangle siva" data-name="P9-3" points="0,-0.7388272 0.5706863,0.2369666 -0.5706863,0.2369666"/><polygon class="triangle siva" data-name="P7-5" points="0,-0.2825601 0.2635309,0.2369666 -0.2635309,0.2369666"/><polygon class="triangle siva" data-name="P8-10" points="0,-0.4837717 0.3398246,0.1048219 -0.3398246,0.1048219"/><circle class="foot" data-pt="20" cx="0.2645145" cy="-0.0256191" r="0.012"/><circle class="foot" data-pt="20" cx="-0.2645145" cy="-0.0256191" r="0.012"/><circle class="foot" data-pt="21" cx="0.4161184" cy="-0.0273229" r="0.012"/><circle class="foot" data-pt="21" cx="-0.4161184" cy="-0.0273229" r="0.012"/><circle class="bindu" cx="0" cy="0" r="0.016"/></svg>