<svg xmlns="http://www.w3.org/2000/svg" viewBox="-1.08 -1.08 2.16 2.16" data-figure-id="023" data-engine-commit="75aed90"><style>.circumcircle{fill:none;stroke:var(--circle,#999);stroke-width:.006}.axis{stroke:var(--axis,#ccc);stroke-width:.004;stroke-dasharray:.03 .03}.triangle{fill:none;stroke-width:.008;stroke-linejoin:round}.triangle.sakti{stroke:var(--sakti,#1b1b1b)}.triangle.siva{stroke:var(--siva,#1b1b1b)}.foot{fill:var(--foot,crimson)}.bindu{fill:var(--bindu,#000)}</style><circle class="circumcircle" cx="0" cy="0" r="1"/><line class="axis" x1="0" y1="-1" x2="0" y2="1"/><polygon class="triangle sakti" data-name="P0-2" points="0,1 0.9625775,-0.2710064 -0.9625775,-0.2710064"/><polygon class="triangle sakti" data-name="P1-4" points="0,0.6969546 0.5588525,-0.2710064 -0.5588525,-0.2710064"/><polygon class="triangle sakti" data-name="P4-6" points="0,0.101661 0.2430129,-0.2710064 -0.2430129,-0.2710064"/><polygon class="triangle sakti" data-name="P2-13" points="0,0.5096516 0.2987465,-0.1778912 -0.2987465,-0.1778912"/><polygon class="triangle sakti" data-name="P3-14" points="0,0.2596931 0.2529392,-0.0555292 -0.2529392,-0.0555292"/><polygon class="triangle siva" data-name="P10-1" points="0,-1 0.9656912,0.2596931 -0.9656912,0.2596931"/><polygon class="triangle siva" data-name="P9-3" points="0,-0.6770128 0.5606603,0.2596931 -0.5606603,0.2596931"/><polygon class="triangle siva" data-name="P7-5" points="0,-0.2710064 0.252453,0.2596931 -0.252453,0.2596931"/><polygon class="triangle siva" data-name="P8-10" points="0,-0.4936326 0.3436929,0.101661 -0.3436929,0.101661"/><circle class="foot" data-pt="20" cx="0.2487393" cy="-0.0628034" r="0.012"/><circle class="foot" data-pt="20" cx="-0.2487393" cy="-0.0628034" r="0.012"/><circle class="foot" data-pt="21" cx="0.4037791" cy="-0.0024113" r="0.012"/><circle class="foot" data-pt="21" cx="-0.4037791" cy="-0.0024113" r="0.012"/><circle class="bindu" cx="0" cy="0" r="0.016"/></svg>