<svg xmlns="http://www.w3.org/2000/svg" viewBox="-1.08 -1.08 2.16 2.16" data-figure-id="024" data-engine-commit="75aed90"><style>.circumcircle{fill:none;stroke:var(--circle,#999);stroke-width:.006}.axis{stroke:var(--axis,#ccc);stroke-width:.004;stroke-dasharray:.03 .03}.triangle{fill:none;stroke-width:.008;stroke-linejoin:round}.triangle.sakti{stroke:var(--sakti,#1b1b1b)}.triangle.siva{stroke:var(--siva,#1b1b1b)}.foot{fill:var(--foot,crimson)}.bindu{fill:var(--bindu,#000)}</style><circle class="circumcircle" cx="0" cy="0" r="1"/><line class="axis" x1="0" y1="-1" x2="0" y2="1"/><polygon class="triangle sakti" data-name="P0-2" points="0,1 0.9581314,-0.2863288 -0.9581314,-0.2863288"/><polygon class="triangle sakti" data-name="P1-4" points="0,0.691877 0.5647674,-0.2863288 -0.5647674,-0.2863288"/><polygon class="triangle sakti" data-name="P4-6" points="0,0.1056611 0.2748707,-0.2863288 -0.2748707,-0.2863288"/><polygon class="triangle sakti" data-name="P2-13" points="0,0.4730781 0.3485506,-0.1590504 -0.3485506,-0.1590504"/><polygon class="triangle sakti" data-name="P3-14" points="0,0.2298285 0.2424244,-0.0606634 -0.2424244,-0.0606634"/><polygon class="triangle siva" data-name="P10-1" points="0,-1 0.9732311,0.2298285 -0.9732311,0.2298285"/><polygon class="triangle siva" data-name="P9-3" points="0,-0.7611542 0.5736679,0.2298285 -0.5736679,0.2298285"/><polygon class="triangle siva" data-name="P7-5" points="0,-0.2863288 0.2667638,0.2298285 -0.2667638,0.2298285"/><polygon class="triangle siva" data-name="P8-10" points="0,-0.4805548 0.3384519,0.1056611 -0.3384519,0.1056611"/><circle class="foot" data-pt="20" cx="0.2689591" cy="-0.014704" r="0.012"/><circle class="foot" data-pt="20" cx="-0.2689591" cy="-0.014704" r="0.012"/><circle class="foot" data-pt="21" cx="0.4200118" cy="-0.0356047" r="0.012"/><circle class="foot" data-pt="21" cx="-0.4200118" cy="-0.0356047" r="0.012"/><circle class="bindu" cx="0" cy="0" r="0.016"/></svg>