<svg xmlns="http://www.w3.org/2000/svg" viewBox="-1.08 -1.08 2.16 2.16" data-figure-id="025" data-engine-commit="75aed90"><style>.circumcircle{fill:none;stroke:var(--circle,#999);stroke-width:.006}.axis{stroke:var(--axis,#ccc);stroke-width:.004;stroke-dasharray:.03 .03}.triangle{fill:none;stroke-width:.008;stroke-linejoin:round}.triangle.sakti{stroke:var(--sakti,#1b1b1b)}.triangle.siva{stroke:var(--siva,#1b1b1b)}.foot{fill:var(--foot,crimson)}.bindu{fill:var(--bindu,#000)}</style><circle class="circumcircle" cx="0" cy="0" r="1"/><line class="axis" x1="0" y1="-1" x2="0" y2="1"/><polygon class="triangle sakti" data-name="P0-2" points="0,1 0.9594128,-0.2820055 -0.9594128,-0.2820055"/><polygon class="triangle sakti" data-name="P1-4" points="0,0.5884548 0.5935123,-0.2820055 -0.5935123,-0.2820055"/><polygon class="triangle sakti" data-name="P4-6" points="0,0.1033785 0.2950178,-0.2820055 -0.2950178,-0.2820055"/><polygon class="triangle sakti" data-name="P2-13" points="0,0.439931 0.387485,-0.1429178 -0.387485,-0.1429178"/><polygon class="triangle sakti" data-name="P3-14" points="0,0.1881359 0.2347772,-0.0628392 -0.2347772,-0.0628392"/><polygon class="triangle siva" data-name="P10-1" points="0,-1 0.982143,0.1881359 -0.982143,0.1881359"/><polygon class="triangle siva" data-name="P9-3" points="0,-0.7257666 0.6075736,0.1881359 -0.6075736,0.1881359"/><polygon class="triangle siva" data-name="P7-5" points="0,-0.2820055 0.2729523,0.1881359 -0.2729523,0.1881359"/><polygon class="triangle siva" data-name="P8-10" points="0,-0.4694854 0.3307431,0.1033785 -0.3307431,0.1033785"/><circle class="foot" data-pt="20" cx="0.2810106" cy="0.0172393" r="0.012"/><circle class="foot" data-pt="20" cx="-0.2810106" cy="0.0172393" r="0.012"/><circle class="foot" data-pt="21" cx="0.4423782" cy="-0.0603484" r="0.012"/><circle class="foot" data-pt="21" cx="-0.4423782" cy="-0.0603484" r="0.012"/><circle class="bindu" cx="0" cy="0" r="0.016"/></svg>