<svg xmlns="http://www.w3.org/2000/svg" viewBox="-1.08 -1.08 2.16 2.16" data-figure-id="026" data-engine-commit="75aed90"><style>.circumcircle{fill:none;stroke:var(--circle,#999);stroke-width:.006}.axis{stroke:var(--axis,#ccc);stroke-width:.004;stroke-dasharray:.03 .03}.triangle{fill:none;stroke-width:.008;stroke-linejoin:round}.triangle.sakti{stroke:var(--sakti,#1b1b1b)}.triangle.siva{stroke:var(--siva,#1b1b1b)}.foot{fill:var(--foot,crimson)}.bindu{fill:var(--bindu,#000)}</style><circle class="circumcircle" cx="0" cy="0" r="1"/><line class="axis" x1="0" y1="-1" x2="0" y2="1"/><polygon class="triangle sakti" data-name="P0-2" points="0,1 0.9565934,-0.2914258 -0.9565934,-0.2914258"/><polygon class="triangle sakti" data-name="P1-4" points="0,0.7419714 0.5533228,-0.2914258 -0.5533228,-0.2914258"/><polygon class="triangle sakti" data-name="P4-6" points="0,0.1072345 0.2742461,-0.2914258 -0.2742461,-0.2914258"/><polygon class="triangle sakti" data-name="P2-13" points="0,0.4788863 0.3441502,-0.1613753 -0.3441502,-0.1613753"/><polygon class="triangle sakti" data-name="P3-14" points="0,0.2423914 0.2428626,-0.0607766 -0.2428626,-0.0607766"/><polygon class="triangle siva" data-name="P10-1" points="0,-1 0.9701785,0.2423914 -0.9701785,0.2423914"/><polygon class="triangle siva" data-name="P9-3" points="0,-0.801637 0.5611808,0.2423914 -0.5611808,0.2423914"/><polygon class="triangle siva" data-name="P7-5" points="0,-0.2914258 0.2674954,0.2423914 -0.2674954,0.2423914"/><polygon class="triangle siva" data-name="P8-10" points="0,-0.481427 0.3398639,0.1072345 -0.3398639,0.1072345"/><circle class="foot" data-pt="20" cx="0.2673132" cy="-0.0184269" r="0.012"/><circle class="foot" data-pt="20" cx="-0.2673132" cy="-0.0184269" r="0.012"/><circle class="foot" data-pt="21" cx="0.4140542" cy="-0.0313249" r="0.012"/><circle class="foot" data-pt="21" cx="-0.4140542" cy="-0.0313249" r="0.012"/><circle class="bindu" cx="0" cy="0" r="0.016"/></svg>