<svg xmlns="http://www.w3.org/2000/svg" viewBox="-1.08 -1.08 2.16 2.16" data-figure-id="027" data-engine-commit="75aed90"><style>.circumcircle{fill:none;stroke:var(--circle,#999);stroke-width:.006}.axis{stroke:var(--axis,#ccc);stroke-width:.004;stroke-dasharray:.03 .03}.triangle{fill:none;stroke-width:.008;stroke-linejoin:round}.triangle.sakti{stroke:var(--sakti,#1b1b1b)}.triangle.siva{stroke:var(--siva,#1b1b1b)}.foot{fill:var(--foot,crimson)}.bindu{fill:var(--bindu,#000)}</style><circle class="circumcircle" cx="0" cy="0" r="1"/><line class="axis" x1="0" y1="-1" x2="0" y2="1"/><polygon class="triangle sakti" data-name="P0-2" points="0,1 0.9565186,-0.2916713 -0.9565186,-0.2916713"/><polygon class="triangle sakti" data-name="P1-4" points="0,0.7485422 0.5518144,-0.2916713 -0.5518144,-0.2916713"/><polygon class="triangle sakti" data-name="P4-6" points="0,0.1073466 0.2734188,-0.2916713 -0.2734188,-0.2916713"/><polygon class="triangle sakti" data-name="P2-13" points="0,0.4803587 0.342528,-0.1620563 -0.342528,-0.1620563"/><polygon class="triangle sakti" data-name="P3-14" points="0,0.2446334 0.2431333,-0.0606783 -0.2431333,-0.0606783"/><polygon class="triangle siva" data-name="P10-1" points="0,-1 0.9696157,0.2446334 -0.9696157,0.2446334"/><polygon class="triangle siva" data-name="P9-3" points="0,-0.8044713 0.55937,0.2446334 -0.55937,0.2446334"/><polygon class="triangle siva" data-name="P7-5" points="0,-0.2916713 0.2673145,0.2446334 -0.2673145,0.2446334"/><polygon class="triangle siva" data-name="P8-10" points="0,-0.4817976 0.3401426,0.1073466 -0.3401426,0.1073466"/><circle class="foot" data-pt="20" cx="0.2667054" cy="-0.0198503" r="0.012"/><circle class="foot" data-pt="20" cx="-0.2667054" cy="-0.0198503" r="0.012"/><circle class="foot" data-pt="21" cx="0.4129707" cy="-0.0299401" r="0.012"/><circle class="foot" data-pt="21" cx="-0.4129707" cy="-0.0299401" r="0.012"/><circle class="bindu" cx="0" cy="0" r="0.016"/></svg>