<svg xmlns="http://www.w3.org/2000/svg" viewBox="-1.08 -1.08 2.16 2.16" data-figure-id="028" data-engine-commit="75aed90"><style>.circumcircle{fill:none;stroke:var(--circle,#999);stroke-width:.006}.axis{stroke:var(--axis,#ccc);stroke-width:.004;stroke-dasharray:.03 .03}.triangle{fill:none;stroke-width:.008;stroke-linejoin:round}.triangle.sakti{stroke:var(--sakti,#1b1b1b)}.triangle.siva{stroke:var(--siva,#1b1b1b)}.foot{fill:var(--foot,crimson)}.bindu{fill:var(--bindu,#000)}</style><circle class="circumcircle" cx="0" cy="0" r="1"/><line class="axis" x1="0" y1="-1" x2="0" y2="1"/><polygon class="triangle sakti" data-name="P0-2" points="0,1 0.9573855,-0.2888131 -0.9573855,-0.2888131"/><polygon class="triangle sakti" data-name="P1-4" points="0,0.6850468 0.5670541,-0.2888131 -0.5670541,-0.2888131"/><polygon class="triangle sakti" data-name="P4-6" points="0,0.1060988 0.2816177,-0.2888131 -0.2816177,-0.2888131"/><polygon class="triangle sakti" data-name="P2-13" points="0,0.4655208 0.3589278,-0.1551301 -0.3589278,-0.1551301"/><polygon class="triangle sakti" data-name="P3-14" points="0,0.222686 0.240285,-0.0616017 -0.240285,-0.0616017"/><polygon class="triangle siva" data-name="P10-1" points="0,-1 0.9748902,0.222686 -0.9748902,0.222686"/><polygon class="triangle siva" data-name="P9-3" points="0,-0.7757809 0.5774221,0.222686 -0.5774221,0.222686"/><polygon class="triangle siva" data-name="P7-5" points="0,-0.2888131 0.2692211,0.222686 -0.2692211,0.222686"/><polygon class="triangle siva" data-name="P8-10" points="0,-0.4777875 0.3371069,0.1060988 -0.3371069,0.1060988"/><circle class="foot" data-pt="20" cx="0.2725355" cy="-0.0057422" r="0.012"/><circle class="foot" data-pt="20" cx="-0.2725355" cy="-0.0057422" r="0.012"/><circle class="foot" data-pt="21" cx="0.4238482" cy="-0.0428709" r="0.012"/><circle class="foot" data-pt="21" cx="-0.4238482" cy="-0.0428709" r="0.012"/><circle class="bindu" cx="0" cy="0" r="0.016"/></svg>