<svg xmlns="http://www.w3.org/2000/svg" viewBox="-1.08 -1.08 2.16 2.16" data-figure-id="029" data-engine-commit="75aed90"><style>.circumcircle{fill:none;stroke:var(--circle,#999);stroke-width:.006}.axis{stroke:var(--axis,#ccc);stroke-width:.004;stroke-dasharray:.03 .03}.triangle{fill:none;stroke-width:.008;stroke-linejoin:round}.triangle.sakti{stroke:var(--sakti,#1b1b1b)}.triangle.siva{stroke:var(--siva,#1b1b1b)}.foot{fill:var(--foot,crimson)}.bindu{fill:var(--bindu,#000)}</style><circle class="circumcircle" cx="0" cy="0" r="1"/><line class="axis" x1="0" y1="-1" x2="0" y2="1"/><polygon class="triangle sakti" data-name="P0-2" points="0,1 0.9553706,-0.29541 -0.9553706,-0.29541"/><polygon class="triangle sakti" data-name="P1-4" points="0,0.6664007 0.5729138,-0.29541 -0.5729138,-0.29541"/><polygon class="triangle sakti" data-name="P4-6" points="0,0.1069911 0.3003764,-0.29541 -0.3003764,-0.29541"/><polygon class="triangle sakti" data-name="P2-13" points="0,0.4457204 0.386885,-0.1447209 -0.386885,-0.1447209"/><polygon class="triangle sakti" data-name="P3-14" points="0,0.203979 0.234497,-0.0640002 -0.234497,-0.0640002"/><polygon class="triangle siva" data-name="P10-1" points="0,-1 0.9789753,0.203979 -0.9789753,0.203979"/><polygon class="triangle siva" data-name="P9-3" points="0,-0.8186348 0.587069,0.203979 -0.587069,0.203979"/><polygon class="triangle siva" data-name="P7-5" points="0,-0.29541 0.2754469,0.203979 -0.2754469,0.203979"/><polygon class="triangle siva" data-name="P8-10" points="0,-0.4701609 0.3332189,0.1069911 -0.3332189,0.1069911"/><circle class="foot" data-pt="20" cx="0.2811011" cy="0.0167204" r="0.012"/><circle class="foot" data-pt="20" cx="-0.2811011" cy="0.0167204" r="0.012"/><circle class="foot" data-pt="21" cx="0.4341317" cy="-0.062422" r="0.012"/><circle class="foot" data-pt="21" cx="-0.4341317" cy="-0.062422" r="0.012"/><circle class="bindu" cx="0" cy="0" r="0.016"/></svg>