<svg xmlns="http://www.w3.org/2000/svg" viewBox="-1.08 -1.08 2.16 2.16" data-figure-id="030" data-engine-commit="75aed90"><style>.circumcircle{fill:none;stroke:var(--circle,#999);stroke-width:.006}.axis{stroke:var(--axis,#ccc);stroke-width:.004;stroke-dasharray:.03 .03}.triangle{fill:none;stroke-width:.008;stroke-linejoin:round}.triangle.sakti{stroke:var(--sakti,#1b1b1b)}.triangle.siva{stroke:var(--siva,#1b1b1b)}.foot{fill:var(--foot,crimson)}.bindu{fill:var(--bindu,#000)}</style><circle class="circumcircle" cx="0" cy="0" r="1"/><line class="axis" x1="0" y1="-1" x2="0" y2="1"/><polygon class="triangle sakti" data-name="P0-2" points="0,1 0.9560548,-0.293188 -0.9560548,-0.293188"/><polygon class="triangle sakti" data-name="P1-4" points="0,0.7581637 0.549881,-0.293188 -0.549881,-0.293188"/><polygon class="triangle sakti" data-name="P4-6" points="0,0.1077519 0.2745104,-0.293188 -0.2745104,-0.293188"/><polygon class="triangle sakti" data-name="P2-13" points="0,0.4801529 0.3434772,-0.1618008 -0.3434772,-0.1618008"/><polygon class="triangle sakti" data-name="P3-14" points="0,0.2459175 0.2428244,-0.0608734 -0.2428244,-0.0608734"/><polygon class="triangle siva" data-name="P10-1" points="0,-1 0.9692908,0.2459175 -0.9692908,0.2459175"/><polygon class="triangle siva" data-name="P9-3" points="0,-0.8161518 0.5574937,0.2459175 -0.5574937,0.2459175"/><polygon class="triangle siva" data-name="P7-5" points="0,-0.293188 0.2679165,0.2459175 -0.2679165,0.2459175"/><polygon class="triangle siva" data-name="P8-10" points="0,-0.4814575 0.3401802,0.1077519 -0.3401802,0.1077519"/><circle class="foot" data-pt="20" cx="0.2670372" cy="-0.0189356" r="0.012"/><circle class="foot" data-pt="20" cx="-0.2670372" cy="-0.0189356" r="0.012"/><circle class="foot" data-pt="21" cx="0.412444" cy="-0.0304137" r="0.012"/><circle class="foot" data-pt="21" cx="-0.412444" cy="-0.0304137" r="0.012"/><circle class="bindu" cx="0" cy="0" r="0.016"/></svg>