<svg xmlns="http://www.w3.org/2000/svg" viewBox="-1.08 -1.08 2.16 2.16" data-figure-id="031" data-engine-commit="75aed90"><style>.circumcircle{fill:none;stroke:var(--circle,#999);stroke-width:.006}.axis{stroke:var(--axis,#ccc);stroke-width:.004;stroke-dasharray:.03 .03}.triangle{fill:none;stroke-width:.008;stroke-linejoin:round}.triangle.sakti{stroke:var(--sakti,#1b1b1b)}.triangle.siva{stroke:var(--siva,#1b1b1b)}.foot{fill:var(--foot,crimson)}.bindu{fill:var(--bindu,#000)}</style><circle class="circumcircle" cx="0" cy="0" r="1"/><line class="axis" x1="0" y1="-1" x2="0" y2="1"/><polygon class="triangle sakti" data-name="P0-2" points="0,1 0.9582933,-0.2857867 -0.9582933,-0.2857867"/><polygon class="triangle sakti" data-name="P1-4" points="0,0.693354 0.5642623,-0.2857867 -0.5642623,-0.2857867"/><polygon class="triangle sakti" data-name="P4-6" points="0,0.1055582 0.2734201,-0.2857867 -0.2734201,-0.2857867"/><polygon class="triangle sakti" data-name="P2-13" points="0,0.4747347 0.3462981,-0.1599058 -0.3462981,-0.1599058"/><polygon class="triangle sakti" data-name="P3-14" points="0,0.2313947 0.2428884,-0.0604563 -0.2428884,-0.0604563"/><polygon class="triangle siva" data-name="P10-1" points="0,-1 0.97286,0.2313947 -0.97286,0.2313947"/><polygon class="triangle siva" data-name="P9-3" points="0,-0.7580599 0.5728395,0.2313947 -0.5728395,0.2313947"/><polygon class="triangle siva" data-name="P7-5" points="0,-0.2857867 0.2662194,0.2313947 -0.2662194,0.2313947"/><polygon class="triangle siva" data-name="P8-10" points="0,-0.4811512 0.3387368,0.1055582 -0.3387368,0.1055582"/><circle class="foot" data-pt="20" cx="0.2681538" cy="-0.0166952" r="0.012"/><circle class="foot" data-pt="20" cx="-0.2681538" cy="-0.0166952" r="0.012"/><circle class="foot" data-pt="21" cx="0.4191762" cy="-0.0340249" r="0.012"/><circle class="foot" data-pt="21" cx="-0.4191762" cy="-0.0340249" r="0.012"/><circle class="bindu" cx="0" cy="0" r="0.016"/></svg>