<svg xmlns="http://www.w3.org/2000/svg" viewBox="-1.08 -1.08 2.16 2.16" data-figure-id="032" data-engine-commit="75aed90"><style>.circumcircle{fill:none;stroke:var(--circle,#999);stroke-width:.006}.axis{stroke:var(--axis,#ccc);stroke-width:.004;stroke-dasharray:.03 .03}.triangle{fill:none;stroke-width:.008;stroke-linejoin:round}.triangle.sakti{stroke:var(--sakti,#1b1b1b)}.triangle.siva{stroke:var(--siva,#1b1b1b)}.foot{fill:var(--foot,crimson)}.bindu{fill:var(--bindu,#000)}</style><circle class="circumcircle" cx="0" cy="0" r="1"/><line class="axis" x1="0" y1="-1" x2="0" y2="1"/><polygon class="triangle sakti" data-name="P0-2" points="0,1 0.9589505,-0.2835736 -0.9589505,-0.2835736"/><polygon class="triangle sakti" data-name="P1-4" points="0,0.6993334 0.5621774,-0.2835736 -0.5621774,-0.2835736"/><polygon class="triangle sakti" data-name="P4-6" points="0,0.1051105 0.2675771,-0.2835736 -0.2675771,-0.2835736"/><polygon class="triangle sakti" data-name="P2-13" points="0,0.4815247 0.3371505,-0.1633968 -0.3371505,-0.1633968"/><polygon class="triangle sakti" data-name="P3-14" points="0,0.2378162 0.2447712,-0.0596021 -0.2447712,-0.0596021"/><polygon class="triangle siva" data-name="P10-1" points="0,-1 0.9713102,0.2378162 -0.9713102,0.2378162"/><polygon class="triangle siva" data-name="P9-3" points="0,-0.7457694 0.5694231,0.2378162 -0.5694231,0.2378162"/><polygon class="triangle siva" data-name="P7-5" points="0,-0.2835736 0.2639665,0.2378162 -0.2639665,0.2378162"/><polygon class="triangle siva" data-name="P8-10" points="0,-0.4835582 0.339868,0.1051105 -0.339868,0.1051105"/><circle class="foot" data-pt="20" cx="0.2647755" cy="-0.0249536" r="0.012"/><circle class="foot" data-pt="20" cx="-0.2647755" cy="-0.0249536" r="0.012"/><circle class="foot" data-pt="21" cx="0.4157696" cy="-0.0275952" r="0.012"/><circle class="foot" data-pt="21" cx="-0.4157696" cy="-0.0275952" r="0.012"/><circle class="bindu" cx="0" cy="0" r="0.016"/></svg>