<svg xmlns="http://www.w3.org/2000/svg" viewBox="-1.08 -1.08 2.16 2.16" data-figure-id="033" data-engine-commit="75aed90"><style>.circumcircle{fill:none;stroke:var(--circle,#999);stroke-width:.006}.axis{stroke:var(--axis,#ccc);stroke-width:.004;stroke-dasharray:.03 .03}.triangle{fill:none;stroke-width:.008;stroke-linejoin:round}.triangle.sakti{stroke:var(--sakti,#1b1b1b)}.triangle.siva{stroke:var(--siva,#1b1b1b)}.foot{fill:var(--foot,crimson)}.bindu{fill:var(--bindu,#000)}</style><circle class="circumcircle" cx="0" cy="0" r="1"/><line class="axis" x1="0" y1="-1" x2="0" y2="1"/><polygon class="triangle sakti" data-name="P0-2" points="0,1 0.9626864,-0.2706193 -0.9626864,-0.2706193"/><polygon class="triangle sakti" data-name="P1-4" points="0,0.7078682 0.5557433,-0.2706193 -0.5557433,-0.2706193"/><polygon class="triangle sakti" data-name="P4-6" points="0,0.101562 0.2401561,-0.2706193 -0.2401561,-0.2706193"/><polygon class="triangle sakti" data-name="P2-13" points="0,0.514272 0.2935971,-0.1800951 -0.2935971,-0.1800951"/><polygon class="triangle sakti" data-name="P3-14" points="0,0.2653819 0.2539295,-0.0550658 -0.2539295,-0.0550658"/><polygon class="triangle siva" data-name="P10-1" points="0,-1 0.9641434,0.2653819 -0.9641434,0.2653819"/><polygon class="triangle siva" data-name="P9-3" points="0,-0.6774222 0.5565844,0.2653819 -0.5565844,0.2653819"/><polygon class="triangle siva" data-name="P7-5" points="0,-0.2706193 0.2513152,0.2653819 -0.2513152,0.2653819"/><polygon class="triangle siva" data-name="P8-10" points="0,-0.4948846 0.3443586,0.101562 -0.3443586,0.101562"/><circle class="foot" data-pt="20" cx="0.2463109" cy="-0.0682616" r="0.012"/><circle class="foot" data-pt="20" cx="-0.2463109" cy="-0.0682616" r="0.012"/><circle class="foot" data-pt="21" cx="0.4009996" cy="0.0018352" r="0.012"/><circle class="foot" data-pt="21" cx="-0.4009996" cy="0.0018352" r="0.012"/><circle class="bindu" cx="0" cy="0" r="0.016"/></svg>