<svg xmlns="http://www.w3.org/2000/svg" viewBox="-1.08 -1.08 2.16 2.16" data-figure-id="034" data-engine-commit="75aed90"><style>.circumcircle{fill:none;stroke:var(--circle,#999);stroke-width:.006}.axis{stroke:var(--axis,#ccc);stroke-width:.004;stroke-dasharray:.03 .03}.triangle{fill:none;stroke-width:.008;stroke-linejoin:round}.triangle.sakti{stroke:var(--sakti,#1b1b1b)}.triangle.siva{stroke:var(--siva,#1b1b1b)}.foot{fill:var(--foot,crimson)}.bindu{fill:var(--bindu,#000)}</style><circle class="circumcircle" cx="0" cy="0" r="1"/><line class="axis" x1="0" y1="-1" x2="0" y2="1"/><polygon class="triangle sakti" data-name="P0-2" points="0,1 0.9619665,-0.2731673 -0.9619665,-0.2731673"/><polygon class="triangle sakti" data-name="P1-4" points="0,0.7263954 0.5518591,-0.2731673 -0.5518591,-0.2731673"/><polygon class="triangle sakti" data-name="P4-6" points="0,0.1024129 0.2416879,-0.2731673 -0.2416879,-0.2731673"/><polygon class="triangle sakti" data-name="P2-13" points="0,0.5140324 0.2952824,-0.1797672 -0.2952824,-0.1797672"/><polygon class="triangle sakti" data-name="P3-14" points="0,0.2686456 0.2533762,-0.05542 -0.2533762,-0.05542"/><polygon class="triangle siva" data-name="P10-1" points="0,-1 0.9632391,0.2686456 -0.9632391,0.2686456"/><polygon class="triangle siva" data-name="P9-3" points="0,-0.694361 0.5525891,0.2686456 -0.5525891,0.2686456"/><polygon class="triangle siva" data-name="P7-5" points="0,-0.2731673 0.2527239,0.2686456 -0.2527239,0.2686456"/><polygon class="triangle siva" data-name="P8-10" points="0,-0.4942805 0.3445011,0.1024129 -0.3445011,0.1024129"/><circle class="foot" data-pt="20" cx="0.2470348" cy="-0.0664038" r="0.012"/><circle class="foot" data-pt="20" cx="-0.2470348" cy="-0.0664038" r="0.012"/><circle class="foot" data-pt="21" cx="0.3997647" cy="0.0023158" r="0.012"/><circle class="foot" data-pt="21" cx="-0.3997647" cy="0.0023158" r="0.012"/><circle class="bindu" cx="0" cy="0" r="0.016"/></svg>