<svg xmlns="http://www.w3.org/2000/svg" viewBox="-1.08 -1.08 2.16 2.16" data-figure-id="035" data-engine-commit="75aed90"><style>.circumcircle{fill:none;stroke:var(--circle,#999);stroke-width:.006}.axis{stroke:var(--axis,#ccc);stroke-width:.004;stroke-dasharray:.03 .03}.triangle{fill:none;stroke-width:.008;stroke-linejoin:round}.triangle.sakti{stroke:var(--sakti,#1b1b1b)}.triangle.siva{stroke:var(--siva,#1b1b1b)}.foot{fill:var(--foot,crimson)}.bindu{fill:var(--bindu,#000)}</style><circle class="circumcircle" cx="0" cy="0" r="1"/><line class="axis" x1="0" y1="-1" x2="0" y2="1"/><polygon class="triangle sakti" data-name="P0-2" points="0,1 0.9584919,-0.2851198 -0.9584919,-0.2851198"/><polygon class="triangle sakti" data-name="P1-4" points="0,0.8235436 0.5331852,-0.2851198 -0.5331852,-0.2851198"/><polygon class="triangle sakti" data-name="P4-6" points="0,0.1062284 0.2485032,-0.2851198 -0.2485032,-0.2851198"/><polygon class="triangle sakti" data-name="P2-13" points="0,0.5136687 0.3018189,-0.1783245 -0.3018189,-0.1783245"/><polygon class="triangle sakti" data-name="P3-14" points="0,0.2851198 0.2507681,-0.0569439 -0.2507681,-0.0569439"/><polygon class="triangle siva" data-name="P10-1" points="0,-1 0.9584919,0.2851198 -0.9584919,0.2851198"/><polygon class="triangle siva" data-name="P9-3" points="0,-0.7828906 0.5331852,0.2851198 -0.5331852,0.2851198"/><polygon class="triangle siva" data-name="P7-5" points="0,-0.2851198 0.2589421,0.2851198 -0.2589421,0.2851198"/><polygon class="triangle siva" data-name="P8-10" points="0,-0.4912869 0.3449756,0.1062284 -0.3449756,0.1062284"/><circle class="foot" data-pt="20" cx="0.2496912" cy="-0.0588091" r="0.012"/><circle class="foot" data-pt="20" cx="-0.2496912" cy="-0.0588091" r="0.012"/><circle class="foot" data-pt="21" cx="0.3935027" cy="0.0053251" r="0.012"/><circle class="foot" data-pt="21" cx="-0.3935027" cy="0.0053251" r="0.012"/><circle class="bindu" cx="0" cy="0" r="0.016"/></svg>