<svg xmlns="http://www.w3.org/2000/svg" viewBox="-1.08 -1.08 2.16 2.16" data-figure-id="036" data-engine-commit="75aed90"><style>.circumcircle{fill:none;stroke:var(--circle,#999);stroke-width:.006}.axis{stroke:var(--axis,#ccc);stroke-width:.004;stroke-dasharray:.03 .03}.triangle{fill:none;stroke-width:.008;stroke-linejoin:round}.triangle.sakti{stroke:var(--sakti,#1b1b1b)}.triangle.siva{stroke:var(--siva,#1b1b1b)}.foot{fill:var(--foot,crimson)}.bindu{fill:var(--bindu,#000)}</style><circle class="circumcircle" cx="0" cy="0" r="1"/><line class="axis" x1="0" y1="-1" x2="0" y2="1"/><polygon class="triangle sakti" data-name="P0-2" points="0,1 0.9630107,-0.2694633 -0.9630107,-0.2694633"/><polygon class="triangle sakti" data-name="P1-4" points="0,0.7356139 0.5479741,-0.2694633 -0.5479741,-0.2694633"/><polygon class="triangle sakti" data-name="P4-6" points="0,0.1012179 0.2330577,-0.2694633 -0.2330577,-0.2694633"/><polygon class="triangle sakti" data-name="P2-13" points="0,0.5258223 0.2808976,-0.18556 -0.2808976,-0.18556"/><polygon class="triangle sakti" data-name="P3-14" points="0,0.2798795 0.2563337,-0.0538749 -0.2563337,-0.0538749"/><polygon class="triangle siva" data-name="P10-1" points="0,-1 0.9600351,0.2798795 -0.9600351,0.2798795"/><polygon class="triangle siva" data-name="P9-3" points="0,-0.6782087 0.546281,0.2798795 -0.546281,0.2798795"/><polygon class="triangle siva" data-name="P7-5" points="0,-0.2694633 0.2484691,0.2798795 -0.2484691,0.2798795"/><polygon class="triangle siva" data-name="P8-10" points="0,-0.4978579 0.3458765,0.1012179 -0.3458765,0.1012179"/><circle class="foot" data-pt="20" cx="0.2400423" cy="-0.0820925" r="0.012"/><circle class="foot" data-pt="20" cx="-0.2400423" cy="-0.0820925" r="0.012"/><circle class="foot" data-pt="21" cx="0.3940412" cy="0.0128757" r="0.012"/><circle class="foot" data-pt="21" cx="-0.3940412" cy="0.0128757" r="0.012"/><circle class="bindu" cx="0" cy="0" r="0.016"/></svg>