<svg xmlns="http://www.w3.org/2000/svg" viewBox="-1.08 -1.08 2.16 2.16" data-figure-id="037" data-engine-commit="75aed90"><style>.circumcircle{fill:none;stroke:var(--circle,#999);stroke-width:.006}.axis{stroke:var(--axis,#ccc);stroke-width:.004;stroke-dasharray:.03 .03}.triangle{fill:none;stroke-width:.008;stroke-linejoin:round}.triangle.sakti{stroke:var(--sakti,#1b1b1b)}.triangle.siva{stroke:var(--siva,#1b1b1b)}.foot{fill:var(--foot,crimson)}.bindu{fill:var(--bindu,#000)}</style><circle class="circumcircle" cx="0" cy="0" r="1"/><line class="axis" x1="0" y1="-1" x2="0" y2="1"/><polygon class="triangle sakti" data-name="P0-2" points="0,1 0.9627881,-0.2702573 -0.9627881,-0.2702573"/><polygon class="triangle sakti" data-name="P1-4" points="0,0.7172091 0.5531066,-0.2702573 -0.5531066,-0.2702573"/><polygon class="triangle sakti" data-name="P4-6" points="0,0.1014608 0.2377404,-0.2702573 -0.2377404,-0.2702573"/><polygon class="triangle sakti" data-name="P2-13" points="0,0.5181916 0.2892598,-0.1819568 -0.2892598,-0.1819568"/><polygon class="triangle sakti" data-name="P3-14" points="0,0.2702573 0.2547569,-0.0546669 -0.2547569,-0.0546669"/><polygon class="triangle siva" data-name="P10-1" points="0,-1 0.9627881,0.2702573 -0.9627881,0.2702573"/><polygon class="triangle siva" data-name="P9-3" points="0,-0.677727 0.5531066,0.2702573 -0.5531066,0.2702573"/><polygon class="triangle siva" data-name="P7-5" points="0,-0.2702573 0.2503498,0.2702573 -0.2503498,0.2702573"/><polygon class="triangle siva" data-name="P8-10" points="0,-0.4959187 0.3448972,0.1014608 -0.3448972,0.1014608"/><circle class="foot" data-pt="20" cx="0.2442148" cy="-0.0729262" r="0.012"/><circle class="foot" data-pt="20" cx="-0.2442148" cy="-0.0729262" r="0.012"/><circle class="foot" data-pt="21" cx="0.3986401" cy="0.0055131" r="0.012"/><circle class="foot" data-pt="21" cx="-0.3986401" cy="0.0055131" r="0.012"/><circle class="bindu" cx="0" cy="0" r="0.016"/></svg>