<svg xmlns="http://www.w3.org/2000/svg" viewBox="-1.08 -1.08 2.16 2.16" data-figure-id="038" data-engine-commit="75aed90"><style>.circumcircle{fill:none;stroke:var(--circle,#999);stroke-width:.006}.axis{stroke:var(--axis,#ccc);stroke-width:.004;stroke-dasharray:.03 .03}.triangle{fill:none;stroke-width:.008;stroke-linejoin:round}.triangle.sakti{stroke:var(--sakti,#1b1b1b)}.triangle.siva{stroke:var(--siva,#1b1b1b)}.foot{fill:var(--foot,crimson)}.bindu{fill:var(--bindu,#000)}</style><circle class="circumcircle" cx="0" cy="0" r="1"/><line class="axis" x1="0" y1="-1" x2="0" y2="1"/><polygon class="triangle sakti" data-name="P0-2" points="0,1 0.9622852,-0.2720425 -0.9622852,-0.2720425"/><polygon class="triangle sakti" data-name="P1-4" points="0,0.7292178 0.5506913,-0.2720425 -0.5506913,-0.2720425"/><polygon class="triangle sakti" data-name="P4-6" points="0,0.1020629 0.2390362,-0.2720425 -0.2390362,-0.2720425"/><polygon class="triangle sakti" data-name="P2-13" points="0,0.5176012 0.2908829,-0.1815289 -0.2908829,-0.1815289"/><polygon class="triangle sakti" data-name="P3-14" points="0,0.2720425 0.2542805,-0.0549536 -0.2542805,-0.0549536"/><polygon class="triangle siva" data-name="P10-1" points="0,-1 0.9622852,0.2720425 -0.9622852,0.2720425"/><polygon class="triangle siva" data-name="P9-3" points="0,-0.68935 0.5506913,0.2720425 -0.5506913,0.2720425"/><polygon class="triangle siva" data-name="P7-5" points="0,-0.2720425 0.2514456,0.2720425 -0.2514456,0.2720425"/><polygon class="triangle siva" data-name="P8-10" points="0,-0.4953803 0.344934,0.1020629 -0.344934,0.1020629"/><circle class="foot" data-pt="20" cx="0.2449462" cy="-0.0711211" r="0.012"/><circle class="foot" data-pt="20" cx="-0.2449462" cy="-0.0711211" r="0.012"/><circle class="foot" data-pt="21" cx="0.3980291" cy="0.0055261" r="0.012"/><circle class="foot" data-pt="21" cx="-0.3980291" cy="0.0055261" r="0.012"/><circle class="bindu" cx="0" cy="0" r="0.016"/></svg>