<svg xmlns="http://www.w3.org/2000/svg" viewBox="-1.08 -1.08 2.16 2.16" data-figure-id="039" data-engine-commit="75aed90"><style>.circumcircle{fill:none;stroke:var(--circle,#999);stroke-width:.006}.axis{stroke:var(--axis,#ccc);stroke-width:.004;stroke-dasharray:.03 .03}.triangle{fill:none;stroke-width:.008;stroke-linejoin:round}.triangle.sakti{stroke:var(--sakti,#1b1b1b)}.triangle.siva{stroke:var(--siva,#1b1b1b)}.foot{fill:var(--foot,crimson)}.bindu{fill:var(--bindu,#000)}</style><circle class="circumcircle" cx="0" cy="0" r="1"/><line class="axis" x1="0" y1="-1" x2="0" y2="1"/><polygon class="triangle sakti" data-name="P0-2" points="0,1 0.9611312,-0.2760921 -0.9611312,-0.2760921"/><polygon class="triangle sakti" data-name="P1-4" points="0,0.7060247 0.574136,-0.2760921 -0.574136,-0.2760921"/><polygon class="triangle sakti" data-name="P4-6" points="0,0.0985354 0.2846045,-0.2760921 -0.2846045,-0.2760921"/><polygon class="triangle sakti" data-name="P2-13" points="0,0.458636 0.3551324,-0.1564713 -0.3551324,-0.1564713"/><polygon class="triangle sakti" data-name="P3-14" points="0,0.2277337 0.2550377,-0.0596072 -0.2550377,-0.0596072"/><polygon class="triangle siva" data-name="P10-1" points="0,-1 0.9737235,0.2277337 -0.9737235,0.2277337"/><polygon class="triangle siva" data-name="P9-3" points="0,-0.7588032 0.581658,0.2277337 -0.581658,0.2277337"/><polygon class="triangle siva" data-name="P7-5" points="0,-0.2760921 0.2796043,0.2277337 -0.2796043,0.2277337"/><polygon class="triangle siva" data-name="P8-10" points="0,-0.4625491 0.3551324,0.0985354 -0.3551324,0.0985354"/><circle class="foot" data-pt="20" cx="0.2781371" cy="-0.0231117" r="0.012"/><circle class="foot" data-pt="20" cx="-0.2781371" cy="-0.0231117" r="0.012"/><circle class="foot" data-pt="21" cx="0.4299874" cy="-0.0295115" r="0.012"/><circle class="foot" data-pt="21" cx="-0.4299874" cy="-0.0295115" r="0.012"/><circle class="bindu" cx="0" cy="0" r="0.016"/></svg>