<svg xmlns="http://www.w3.org/2000/svg" viewBox="-1.08 -1.08 2.16 2.16" data-figure-id="040" data-engine-commit="75aed90"><style>.circumcircle{fill:none;stroke:var(--circle,#999);stroke-width:.006}.axis{stroke:var(--axis,#ccc);stroke-width:.004;stroke-dasharray:.03 .03}.triangle{fill:none;stroke-width:.008;stroke-linejoin:round}.triangle.sakti{stroke:var(--sakti,#1b1b1b)}.triangle.siva{stroke:var(--siva,#1b1b1b)}.foot{fill:var(--foot,crimson)}.bindu{fill:var(--bindu,#000)}</style><circle class="circumcircle" cx="0" cy="0" r="1"/><line class="axis" x1="0" y1="-1" x2="0" y2="1"/><polygon class="triangle sakti" data-name="P0-2" points="0,1 0.9630033,-0.2694897 -0.9630033,-0.2694897"/><polygon class="triangle sakti" data-name="P1-4" points="0,0.6566089 0.5851089,-0.2694897 -0.5851089,-0.2694897"/><polygon class="triangle sakti" data-name="P4-6" points="0,0.0967164 0.2812309,-0.2694897 -0.2812309,-0.2694897"/><polygon class="triangle sakti" data-name="P2-13" points="0,0.4566968 0.3537399,-0.1559988 -0.3537399,-0.1559988"/><polygon class="triangle sakti" data-name="P3-14" points="0,0.2183714 0.2554167,-0.0589077 -0.2554167,-0.0589077"/><polygon class="triangle siva" data-name="P10-1" points="0,-1 0.9758657,0.2183714 -0.9758657,0.2183714"/><polygon class="triangle siva" data-name="P9-3" points="0,-0.7096717 0.5929239,0.2183714 -0.5929239,0.2183714"/><polygon class="triangle siva" data-name="P7-5" points="0,-0.2694897 0.2768783,0.2183714 -0.2768783,0.2183714"/><polygon class="triangle siva" data-name="P8-10" points="0,-0.4631762 0.3537399,0.0967164 -0.3537399,0.0967164"/><circle class="foot" data-pt="20" cx="0.2775022" cy="-0.0239512" r="0.012"/><circle class="foot" data-pt="20" cx="-0.2775022" cy="-0.0239512" r="0.012"/><circle class="foot" data-pt="21" cx="0.4340185" cy="-0.0303469" r="0.012"/><circle class="foot" data-pt="21" cx="-0.4340185" cy="-0.0303469" r="0.012"/><circle class="bindu" cx="0" cy="0" r="0.016"/></svg>