<svg xmlns="http://www.w3.org/2000/svg" viewBox="-1.08 -1.08 2.16 2.16" data-figure-id="041" data-engine-commit="75aed90"><style>.circumcircle{fill:none;stroke:var(--circle,#999);stroke-width:.006}.axis{stroke:var(--axis,#ccc);stroke-width:.004;stroke-dasharray:.03 .03}.triangle{fill:none;stroke-width:.008;stroke-linejoin:round}.triangle.sakti{stroke:var(--sakti,#1b1b1b)}.triangle.siva{stroke:var(--siva,#1b1b1b)}.foot{fill:var(--foot,crimson)}.bindu{fill:var(--bindu,#000)}</style><circle class="circumcircle" cx="0" cy="0" r="1"/><line class="axis" x1="0" y1="-1" x2="0" y2="1"/><polygon class="triangle sakti" data-name="P0-2" points="0,1 0.9606427,-0.277787 -0.9606427,-0.277787"/><polygon class="triangle sakti" data-name="P1-4" points="0,0.7194715 0.5713152,-0.277787 -0.5713152,-0.277787"/><polygon class="triangle sakti" data-name="P4-6" points="0,0.0989923 0.2854778,-0.277787 -0.2854778,-0.277787"/><polygon class="triangle sakti" data-name="P2-13" points="0,0.4591133 0.3554637,-0.1565679 -0.3554637,-0.1565679"/><polygon class="triangle sakti" data-name="P3-14" points="0,0.2301796 0.2549211,-0.0597824 -0.2549211,-0.0597824"/><polygon class="triangle siva" data-name="P10-1" points="0,-1 0.9731482,0.2301796 -0.9731482,0.2301796"/><polygon class="triangle siva" data-name="P9-3" points="0,-0.7722491 0.5787524,0.2301796 -0.5787524,0.2301796"/><polygon class="triangle siva" data-name="P7-5" points="0,-0.277787 0.2803084,0.2301796 -0.2803084,0.2301796"/><polygon class="triangle siva" data-name="P8-10" points="0,-0.4623481 0.3554637,0.0989923 -0.3554637,0.0989923"/><circle class="foot" data-pt="20" cx="0.2782839" cy="-0.0228884" r="0.012"/><circle class="foot" data-pt="20" cx="-0.2782839" cy="-0.0228884" r="0.012"/><circle class="foot" data-pt="21" cx="0.4289512" cy="-0.0292838" r="0.012"/><circle class="foot" data-pt="21" cx="-0.4289512" cy="-0.0292838" r="0.012"/><circle class="bindu" cx="0" cy="0" r="0.016"/></svg>