<svg xmlns="http://www.w3.org/2000/svg" viewBox="-1.08 -1.08 2.16 2.16" data-figure-id="042" data-engine-commit="75aed90"><style>.circumcircle{fill:none;stroke:var(--circle,#999);stroke-width:.006}.axis{stroke:var(--axis,#ccc);stroke-width:.004;stroke-dasharray:.03 .03}.triangle{fill:none;stroke-width:.008;stroke-linejoin:round}.triangle.sakti{stroke:var(--sakti,#1b1b1b)}.triangle.siva{stroke:var(--siva,#1b1b1b)}.foot{fill:var(--foot,crimson)}.bindu{fill:var(--bindu,#000)}</style><circle class="circumcircle" cx="0" cy="0" r="1"/><line class="axis" x1="0" y1="-1" x2="0" y2="1"/><polygon class="triangle sakti" data-name="P0-2" points="0,1 0.9614538,-0.2749666 -0.9614538,-0.2749666"/><polygon class="triangle sakti" data-name="P1-4" points="0,0.697274 0.5760083,-0.2749666 -0.5760083,-0.2749666"/><polygon class="triangle sakti" data-name="P4-6" points="0,0.0982298 0.2840262,-0.2749666 -0.2840262,-0.2749666"/><polygon class="triangle sakti" data-name="P2-13" points="0,0.4583144 0.3549065,-0.1564016 -0.3549065,-0.1564016"/><polygon class="triangle sakti" data-name="P3-14" points="0,0.2261192 0.2551108,-0.0594899 -0.2551108,-0.0594899"/><polygon class="triangle siva" data-name="P10-1" points="0,-1 0.9740996,0.2261192 -0.9740996,0.2261192"/><polygon class="triangle siva" data-name="P9-3" points="0,-0.7500711 0.5835844,0.2261192 -0.5835844,0.2261192"/><polygon class="triangle siva" data-name="P7-5" points="0,-0.2749666 0.2791378,0.2261192 -0.2791378,0.2261192"/><polygon class="triangle siva" data-name="P8-10" points="0,-0.4626735 0.3549065,0.0982298 -0.3549065,0.0982298"/><circle class="foot" data-pt="20" cx="0.278036" cy="-0.0232582" r="0.012"/><circle class="foot" data-pt="20" cx="-0.278036" cy="-0.0232582" r="0.012"/><circle class="foot" data-pt="21" cx="0.4306751" cy="-0.0296597" r="0.012"/><circle class="foot" data-pt="21" cx="-0.4306751" cy="-0.0296597" r="0.012"/><circle class="bindu" cx="0" cy="0" r="0.016"/></svg>