<svg xmlns="http://www.w3.org/2000/svg" viewBox="-1.08 -1.08 2.16 2.16" data-figure-id="045" data-engine-commit="75aed90"><style>.circumcircle{fill:none;stroke:var(--circle,#999);stroke-width:.006}.axis{stroke:var(--axis,#ccc);stroke-width:.004;stroke-dasharray:.03 .03}.triangle{fill:none;stroke-width:.008;stroke-linejoin:round}.triangle.sakti{stroke:var(--sakti,#1b1b1b)}.triangle.siva{stroke:var(--siva,#1b1b1b)}.foot{fill:var(--foot,crimson)}.bindu{fill:var(--bindu,#000)}</style><circle class="circumcircle" cx="0" cy="0" r="1"/><line class="axis" x1="0" y1="-1" x2="0" y2="1"/><polygon class="triangle sakti" data-name="P0-2" points="0,1 0.9575855,-0.2881494 -0.9575855,-0.2881494"/><polygon class="triangle sakti" data-name="P1-4" points="0,0.6881652 0.5670752,-0.2881494 -0.5670752,-0.2881494"/><polygon class="triangle sakti" data-name="P4-6" points="0,0.1056464 0.2817219,-0.2881494 -0.2817219,-0.2881494"/><polygon class="triangle sakti" data-name="P2-13" points="0,0.4653827 0.3583952,-0.1553759 -0.3583952,-0.1553759"/><polygon class="triangle sakti" data-name="P3-14" points="0,0.223537 0.2412797,-0.0614691 -0.2412797,-0.0614691"/><polygon class="triangle siva" data-name="P10-1" points="0,-1 0.9746954,0.223537 -0.9746954,0.223537"/><polygon class="triangle siva" data-name="P9-3" points="0,-0.7760012 0.5772076,0.223537 -0.5772076,0.223537"/><polygon class="triangle siva" data-name="P7-5" points="0,-0.2881494 0.2698711,0.223537 -0.2698711,0.223537"/><polygon class="triangle siva" data-name="P8-10" points="0,-0.4768724 0.3383459,0.1056464 -0.3383459,0.1056464"/><circle class="foot" data-pt="20" cx="0.2728234" cy="-0.0071614" r="0.012"/><circle class="foot" data-pt="20" cx="-0.2728234" cy="-0.0071614" r="0.012"/><circle class="foot" data-pt="21" cx="0.4239849" cy="-0.0417955" r="0.012"/><circle class="foot" data-pt="21" cx="-0.4239849" cy="-0.0417955" r="0.012"/><circle class="bindu" cx="0" cy="0" r="0.016"/></svg>