<svg xmlns="http://www.w3.org/2000/svg" viewBox="-1.08 -1.08 2.16 2.16" data-figure-id="046" data-engine-commit="75aed90"><style>.circumcircle{fill:none;stroke:var(--circle,#999);stroke-width:.006}.axis{stroke:var(--axis,#ccc);stroke-width:.004;stroke-dasharray:.03 .03}.triangle{fill:none;stroke-width:.008;stroke-linejoin:round}.triangle.sakti{stroke:var(--sakti,#1b1b1b)}.triangle.siva{stroke:var(--siva,#1b1b1b)}.foot{fill:var(--foot,crimson)}.bindu{fill:var(--bindu,#000)}</style><circle class="circumcircle" cx="0" cy="0" r="1"/><line class="axis" x1="0" y1="-1" x2="0" y2="1"/><polygon class="triangle sakti" data-name="P0-2" points="0,1 0.9575477,-0.2882747 -0.9575477,-0.2882747"/><polygon class="triangle sakti" data-name="P1-4" points="0,0.6879918 0.5670006,-0.2882747 -0.5670006,-0.2882747"/><polygon class="triangle sakti" data-name="P4-6" points="0,0.1057224 0.2816898,-0.2882747 -0.2816898,-0.2882747"/><polygon class="triangle sakti" data-name="P2-13" points="0,0.4654529 0.3584273,-0.1553615 -0.3584273,-0.1553615"/><polygon class="triangle sakti" data-name="P3-14" points="0,0.2234948 0.2411389,-0.061488 -0.2411389,-0.061488"/><polygon class="triangle siva" data-name="P10-1" points="0,-1 0.9747051,0.2234948 -0.9747051,0.2234948"/><polygon class="triangle siva" data-name="P9-3" points="0,-0.7761758 0.5771601,0.2234948 -0.5771601,0.2234948"/><polygon class="triangle siva" data-name="P7-5" points="0,-0.2882747 0.2697727,0.2234948 -0.2697727,0.2234948"/><polygon class="triangle siva" data-name="P8-10" points="0,-0.477021 0.3381731,0.1057224 -0.3381731,0.1057224"/><circle class="foot" data-pt="20" cx="0.2727649" cy="-0.0069897" r="0.012"/><circle class="foot" data-pt="20" cx="-0.2727649" cy="-0.0069897" r="0.012"/><circle class="foot" data-pt="21" cx="0.4239222" cy="-0.0419211" r="0.012"/><circle class="foot" data-pt="21" cx="-0.4239222" cy="-0.0419211" r="0.012"/><circle class="bindu" cx="0" cy="0" r="0.016"/></svg>