<svg xmlns="http://www.w3.org/2000/svg" viewBox="-1.08 -1.08 2.16 2.16" data-figure-id="047" data-engine-commit="75aed90"><style>.circumcircle{fill:none;stroke:var(--circle,#999);stroke-width:.006}.axis{stroke:var(--axis,#ccc);stroke-width:.004;stroke-dasharray:.03 .03}.triangle{fill:none;stroke-width:.008;stroke-linejoin:round}.triangle.sakti{stroke:var(--sakti,#1b1b1b)}.triangle.siva{stroke:var(--siva,#1b1b1b)}.foot{fill:var(--foot,crimson)}.bindu{fill:var(--bindu,#000)}</style><circle class="circumcircle" cx="0" cy="0" r="1"/><line class="axis" x1="0" y1="-1" x2="0" y2="1"/><polygon class="triangle sakti" data-name="P0-2" points="0,1 0.9510385,-0.3090726 -0.9510385,-0.3090726"/><polygon class="triangle sakti" data-name="P1-4" points="0,0.6623547 0.5542313,-0.3090726 -0.5542313,-0.3090726"/><polygon class="triangle sakti" data-name="P4-6" points="0,0.118993 0.2757787,-0.3090726 -0.2757787,-0.3090726"/><polygon class="triangle sakti" data-name="P2-13" points="0,0.4771744 0.3632781,-0.1520418 -0.3632781,-0.1520418"/><polygon class="triangle sakti" data-name="P3-14" points="0,0.2169495 0.218371,-0.0644445 -0.218371,-0.0644445"/><polygon class="triangle siva" data-name="P10-1" points="0,-1 0.9761828,0.2169495 -0.9761828,0.2169495"/><polygon class="triangle siva" data-name="P9-3" points="0,-0.8039983 0.5688846,0.2169495 -0.5688846,0.2169495"/><polygon class="triangle siva" data-name="P7-5" points="0,-0.3090726 0.2541184,0.2169495 -0.2541184,0.2169495"/><polygon class="triangle siva" data-name="P8-10" points="0,-0.5015869 0.3100058,0.118993 -0.3100058,0.118993"/><circle class="foot" data-pt="20" cx="0.2621295" cy="0.0231528" r="0.012"/><circle class="foot" data-pt="20" cx="-0.2621295" cy="0.0231528" r="0.012"/><circle class="foot" data-pt="21" cx="0.4133605" cy="-0.0621616" r="0.012"/><circle class="foot" data-pt="21" cx="-0.4133605" cy="-0.0621616" r="0.012"/><circle class="bindu" cx="0" cy="0" r="0.016"/></svg>