<svg xmlns="http://www.w3.org/2000/svg" viewBox="-1.08 -1.08 2.16 2.16" data-figure-id="048" data-engine-commit="75aed90"><style>.circumcircle{fill:none;stroke:var(--circle,#999);stroke-width:.006}.axis{stroke:var(--axis,#ccc);stroke-width:.004;stroke-dasharray:.03 .03}.triangle{fill:none;stroke-width:.008;stroke-linejoin:round}.triangle.sakti{stroke:var(--sakti,#1b1b1b)}.triangle.siva{stroke:var(--siva,#1b1b1b)}.foot{fill:var(--foot,crimson)}.bindu{fill:var(--bindu,#000)}</style><circle class="circumcircle" cx="0" cy="0" r="1"/><line class="axis" x1="0" y1="-1" x2="0" y2="1"/><polygon class="triangle sakti" data-name="P0-2" points="0,1 0.9601568,-0.2794617 -0.9601568,-0.2794617"/><polygon class="triangle sakti" data-name="P1-4" points="0,0.700791 0.5721872,-0.2794617 -0.5721872,-0.2794617"/><polygon class="triangle sakti" data-name="P4-6" points="0,0.1004827 0.2838396,-0.2794617 -0.2838396,-0.2794617"/><polygon class="triangle sakti" data-name="P2-13" points="0,0.4605209 0.3560778,-0.156224 -0.3560778,-0.156224"/><polygon class="triangle sakti" data-name="P3-14" points="0,0.2265335 0.2511515,-0.0601378 -0.2511515,-0.0601378"/><polygon class="triangle siva" data-name="P10-1" points="0,-1 0.9740034,0.2265335 -0.9740034,0.2265335"/><polygon class="triangle siva" data-name="P9-3" points="0,-0.763689 0.5804388,0.2265335 -0.5804388,0.2265335"/><polygon class="triangle siva" data-name="P7-5" points="0,-0.2794617 0.2768308,0.2265335 -0.2768308,0.2265335"/><polygon class="triangle siva" data-name="P8-10" points="0,-0.4665587 0.3504084,0.1004827 -0.3504084,0.1004827"/><circle class="foot" data-pt="20" cx="0.276717" cy="-0.018767" r="0.012"/><circle class="foot" data-pt="20" cx="-0.276717" cy="-0.018767" r="0.012"/><circle class="foot" data-pt="21" cx="0.4283161" cy="-0.0329863" r="0.012"/><circle class="foot" data-pt="21" cx="-0.4283161" cy="-0.0329863" r="0.012"/><circle class="bindu" cx="0" cy="0" r="0.016"/></svg>