<svg xmlns="http://www.w3.org/2000/svg" viewBox="-1.08 -1.08 2.16 2.16" data-figure-id="049" data-engine-commit="75aed90"><style>.circumcircle{fill:none;stroke:var(--circle,#999);stroke-width:.006}.axis{stroke:var(--axis,#ccc);stroke-width:.004;stroke-dasharray:.03 .03}.triangle{fill:none;stroke-width:.008;stroke-linejoin:round}.triangle.sakti{stroke:var(--sakti,#1b1b1b)}.triangle.siva{stroke:var(--siva,#1b1b1b)}.foot{fill:var(--foot,crimson)}.bindu{fill:var(--bindu,#000)}</style><circle class="circumcircle" cx="0" cy="0" r="1"/><line class="axis" x1="0" y1="-1" x2="0" y2="1"/><polygon class="triangle sakti" data-name="P0-2" points="0,1 0.961001,-0.276545 -0.961001,-0.276545"/><polygon class="triangle sakti" data-name="P1-4" points="0,0.7053098 0.5738752,-0.276545 -0.5738752,-0.276545"/><polygon class="triangle sakti" data-name="P4-6" points="0,0.0987954 0.2845035,-0.276545 -0.2845035,-0.276545"/><polygon class="triangle sakti" data-name="P2-13" points="0,0.4588893 0.355261,-0.1564407 -0.355261,-0.1564407"/><polygon class="triangle sakti" data-name="P3-14" points="0,0.2275712 0.2545135,-0.059679 -0.2545135,-0.059679"/><polygon class="triangle siva" data-name="P10-1" points="0,-1 0.9737614,0.2275712 -0.9737614,0.2275712"/><polygon class="triangle siva" data-name="P9-3" points="0,-0.7594635 0.5814953,0.2275712 -0.5814953,0.2275712"/><polygon class="triangle siva" data-name="P7-5" points="0,-0.276545 0.279229,0.2275712 -0.279229,0.2275712"/><polygon class="triangle siva" data-name="P8-10" points="0,-0.4630883 0.354496,0.0987954 -0.354496,0.0987954"/><circle class="foot" data-pt="20" cx="0.2779492" cy="-0.0225329" r="0.012"/><circle class="foot" data-pt="20" cx="-0.2779492" cy="-0.0225329" r="0.012"/><circle class="foot" data-pt="21" cx="0.429763" cy="-0.0299804" r="0.012"/><circle class="foot" data-pt="21" cx="-0.429763" cy="-0.0299804" r="0.012"/><circle class="bindu" cx="0" cy="0" r="0.016"/></svg>