<svg xmlns="http://www.w3.org/2000/svg" viewBox="-1.08 -1.08 2.16 2.16" data-figure-id="050" data-engine-commit="75aed90"><style>.circumcircle{fill:none;stroke:var(--circle,#999);stroke-width:.006}.axis{stroke:var(--axis,#ccc);stroke-width:.004;stroke-dasharray:.03 .03}.triangle{fill:none;stroke-width:.008;stroke-linejoin:round}.triangle.sakti{stroke:var(--sakti,#1b1b1b)}.triangle.siva{stroke:var(--siva,#1b1b1b)}.foot{fill:var(--foot,crimson)}.bindu{fill:var(--bindu,#000)}</style><circle class="circumcircle" cx="0" cy="0" r="1"/><line class="axis" x1="0" y1="-1" x2="0" y2="1"/><polygon class="triangle sakti" data-name="P0-2" points="0,1 0.9570528,-0.2899138 -0.9570528,-0.2899138"/><polygon class="triangle sakti" data-name="P1-4" points="0,0.6857464 0.5660215,-0.2899138 -0.5660215,-0.2899138"/><polygon class="triangle sakti" data-name="P4-6" points="0,0.106721 0.2812664,-0.2899138 -0.2812664,-0.2899138"/><polygon class="triangle sakti" data-name="P2-13" points="0,0.4663713 0.3588448,-0.1551661 -0.3588448,-0.1551661"/><polygon class="triangle sakti" data-name="P3-14" points="0,0.2229463 0.2393008,-0.0617329 -0.2393008,-0.0617329"/><polygon class="triangle siva" data-name="P10-1" points="0,-1 0.9748307,0.2229463 -0.9748307,0.2229463"/><polygon class="triangle siva" data-name="P9-3" points="0,-0.7784519 0.5765357,0.2229463 -0.5765357,0.2229463"/><polygon class="triangle siva" data-name="P7-5" points="0,-0.2899138 0.2684898,0.2229463 -0.2684898,0.2229463"/><polygon class="triangle siva" data-name="P8-10" points="0,-0.478963 0.3359169,0.106721 -0.3359169,0.106721"/><circle class="foot" data-pt="20" cx="0.2719925" cy="-0.0047336" r="0.012"/><circle class="foot" data-pt="20" cx="-0.2719925" cy="-0.0047336" r="0.012"/><circle class="foot" data-pt="21" cx="0.4231006" cy="-0.0435588" r="0.012"/><circle class="foot" data-pt="21" cx="-0.4231006" cy="-0.0435588" r="0.012"/><circle class="bindu" cx="0" cy="0" r="0.016"/></svg>