<svg xmlns="http://www.w3.org/2000/svg" viewBox="-1.08 -1.08 2.16 2.16" data-figure-id="051" data-engine-commit="75aed90"><style>.circumcircle{fill:none;stroke:var(--circle,#999);stroke-width:.006}.axis{stroke:var(--axis,#ccc);stroke-width:.004;stroke-dasharray:.03 .03}.triangle{fill:none;stroke-width:.008;stroke-linejoin:round}.triangle.sakti{stroke:var(--sakti,#1b1b1b)}.triangle.siva{stroke:var(--siva,#1b1b1b)}.foot{fill:var(--foot,crimson)}.bindu{fill:var(--bindu,#000)}</style><circle class="circumcircle" cx="0" cy="0" r="1"/><line class="axis" x1="0" y1="-1" x2="0" y2="1"/><polygon class="triangle sakti" data-name="P0-2" points="0,1 0.9656205,-0.2599558 -0.9656205,-0.2599558"/><polygon class="triangle sakti" data-name="P1-4" points="0,0.78304 0.5779,-0.2599558 -0.5779,-0.2599558"/><polygon class="triangle sakti" data-name="P4-6" points="0,0.0886123 0.2906004,-0.2599558 -0.2906004,-0.2599558"/><polygon class="triangle sakti" data-name="P2-13" points="0,0.4486401 0.3498542,-0.1573252 -0.3498542,-0.1573252"/><polygon class="triangle sakti" data-name="P3-14" points="0,0.2423875 0.2785422,-0.0567428 -0.2785422,-0.0567428"/><polygon class="triangle siva" data-name="P10-1" points="0,-1 0.9701795,0.2423875 -0.9701795,0.2423875"/><polygon class="triangle siva" data-name="P9-3" points="0,-0.7632905 0.5806285,0.2423875 -0.5806285,0.2423875"/><polygon class="triangle siva" data-name="P7-5" points="0,-0.2599558 0.2995631,0.2423875 -0.2995631,0.2423875"/><polygon class="triangle siva" data-name="P8-10" points="0,-0.4378946 0.3847665,0.0886123 -0.3847665,0.0886123"/><circle class="foot" data-pt="20" cx="0.2859392" cy="-0.0466211" r="0.012"/><circle class="foot" data-pt="20" cx="-0.2859392" cy="-0.0466211" r="0.012"/><circle class="foot" data-pt="21" cx="0.4372051" cy="-0.0060291" r="0.012"/><circle class="foot" data-pt="21" cx="-0.4372051" cy="-0.0060291" r="0.012"/><circle class="bindu" cx="0" cy="0" r="0.016"/></svg>