<svg xmlns="http://www.w3.org/2000/svg" viewBox="-1.08 -1.08 2.16 2.16" data-figure-id="053" data-engine-commit="75aed90"><style>.circumcircle{fill:none;stroke:var(--circle,#999);stroke-width:.006}.axis{stroke:var(--axis,#ccc);stroke-width:.004;stroke-dasharray:.03 .03}.triangle{fill:none;stroke-width:.008;stroke-linejoin:round}.triangle.sakti{stroke:var(--sakti,#1b1b1b)}.triangle.siva{stroke:var(--siva,#1b1b1b)}.foot{fill:var(--foot,crimson)}.bindu{fill:var(--bindu,#000)}</style><circle class="circumcircle" cx="0" cy="0" r="1"/><line class="axis" x1="0" y1="-1" x2="0" y2="1"/><polygon class="triangle sakti" data-name="P0-2" points="0,1 0.9608907,-0.2769278 -0.9608907,-0.2769278"/><polygon class="triangle sakti" data-name="P1-4" points="0,0.6692937 0.5778569,-0.2769278 -0.5778569,-0.2769278"/><polygon class="triangle sakti" data-name="P4-6" points="0,0.1002678 0.2814268,-0.2769278 -0.2814268,-0.2769278"/><polygon class="triangle sakti" data-name="P2-13" points="0,0.4602401 0.3557008,-0.1558518 -0.3557008,-0.1558518"/><polygon class="triangle sakti" data-name="P3-14" points="0,0.2205012 0.2496527,-0.0599601 -0.2496527,-0.0599601"/><polygon class="triangle siva" data-name="P10-1" points="0,-1 0.9753867,0.2205012 -0.9753867,0.2205012"/><polygon class="triangle siva" data-name="P9-3" points="0,-0.7356891 0.5865744,0.2205012 -0.5865744,0.2205012"/><polygon class="triangle siva" data-name="P7-5" points="0,-0.2769278 0.2740773,0.2205012 -0.2740773,0.2205012"/><polygon class="triangle siva" data-name="P8-10" points="0,-0.4687581 0.3475038,0.1002678 -0.3475038,0.1002678"/><circle class="foot" data-pt="20" cx="0.2757066" cy="-0.0172977" r="0.012"/><circle class="foot" data-pt="20" cx="-0.2757066" cy="-0.0172977" r="0.012"/><circle class="foot" data-pt="21" cx="0.4299748" cy="-0.0347758" r="0.012"/><circle class="foot" data-pt="21" cx="-0.4299748" cy="-0.0347758" r="0.012"/><circle class="bindu" cx="0" cy="0" r="0.016"/></svg>