<svg xmlns="http://www.w3.org/2000/svg" viewBox="-1.08 -1.08 2.16 2.16" data-figure-id="054" data-engine-commit="75aed90"><style>.circumcircle{fill:none;stroke:var(--circle,#999);stroke-width:.006}.axis{stroke:var(--axis,#ccc);stroke-width:.004;stroke-dasharray:.03 .03}.triangle{fill:none;stroke-width:.008;stroke-linejoin:round}.triangle.sakti{stroke:var(--sakti,#1b1b1b)}.triangle.siva{stroke:var(--siva,#1b1b1b)}.foot{fill:var(--foot,crimson)}.bindu{fill:var(--bindu,#000)}</style><circle class="circumcircle" cx="0" cy="0" r="1"/><line class="axis" x1="0" y1="-1" x2="0" y2="1"/><polygon class="triangle sakti" data-name="P0-2" points="0,1 0.9642206,-0.265101 -0.9642206,-0.265101"/><polygon class="triangle sakti" data-name="P1-4" points="0,0.6490575 0.5894284,-0.265101 -0.5894284,-0.265101"/><polygon class="triangle sakti" data-name="P4-6" points="0,0.0946275 0.2811151,-0.265101 -0.2811151,-0.265101"/><polygon class="triangle sakti" data-name="P2-13" points="0,0.4545542 0.3525151,-0.1560198 -0.3525151,-0.1560198"/><polygon class="triangle sakti" data-name="P3-14" points="0,0.2170706 0.2589009,-0.0582668 -0.2589009,-0.0582668"/><polygon class="triangle siva" data-name="P10-1" points="0,-1 0.9761559,0.2170706 -0.9761559,0.2170706"/><polygon class="triangle siva" data-name="P9-3" points="0,-0.6945742 0.5967244,0.2170706 -0.5967244,0.2170706"/><polygon class="triangle siva" data-name="P7-5" points="0,-0.265101 0.2785352,0.2170706 -0.2785352,0.2170706"/><polygon class="triangle siva" data-name="P8-10" points="0,-0.4598025 0.3574837,0.0946275 -0.3574837,0.0946275"/><circle class="foot" data-pt="20" cx="0.2785147" cy="-0.0278474" r="0.012"/><circle class="foot" data-pt="20" cx="-0.2785147" cy="-0.0278474" r="0.012"/><circle class="foot" data-pt="21" cx="0.4364322" cy="-0.0278156" r="0.012"/><circle class="foot" data-pt="21" cx="-0.4364322" cy="-0.0278156" r="0.012"/><circle class="bindu" cx="0" cy="0" r="0.016"/></svg>