<svg xmlns="http://www.w3.org/2000/svg" viewBox="-1.08 -1.08 2.16 2.16" data-figure-id="055" data-engine-commit="75aed90"><style>.circumcircle{fill:none;stroke:var(--circle,#999);stroke-width:.006}.axis{stroke:var(--axis,#ccc);stroke-width:.004;stroke-dasharray:.03 .03}.triangle{fill:none;stroke-width:.008;stroke-linejoin:round}.triangle.sakti{stroke:var(--sakti,#1b1b1b)}.triangle.siva{stroke:var(--siva,#1b1b1b)}.foot{fill:var(--foot,crimson)}.bindu{fill:var(--bindu,#000)}</style><circle class="circumcircle" cx="0" cy="0" r="1"/><line class="axis" x1="0" y1="-1" x2="0" y2="1"/><polygon class="triangle sakti" data-name="P0-2" points="0,1 0.9583127,-0.2857214 -0.9583127,-0.2857214"/><polygon class="triangle sakti" data-name="P1-4" points="0,0.6841088 0.5693921,-0.2857214 -0.5693921,-0.2857214"/><polygon class="triangle sakti" data-name="P4-6" points="0,0.104481 0.2816581,-0.2857214 -0.2816581,-0.2857214"/><polygon class="triangle sakti" data-name="P2-13" points="0,0.4642903 0.3578384,-0.1555041 -0.3578384,-0.1555041"/><polygon class="triangle sakti" data-name="P3-14" points="0,0.2228982 0.2430593,-0.0611505 -0.2430593,-0.0611505"/><polygon class="triangle siva" data-name="P10-1" points="0,-1 0.9748417,0.2228982 -0.9748417,0.2228982"/><polygon class="triangle siva" data-name="P9-3" points="0,-0.7671682 0.579213,0.2228982 -0.579213,0.2228982"/><polygon class="triangle siva" data-name="P7-5" points="0,-0.2857214 0.270779,0.2228982 -0.270779,0.2228982"/><polygon class="triangle siva" data-name="P8-10" points="0,-0.4751469 0.3403024,0.104481 -0.3403024,0.104481"/><circle class="foot" data-pt="20" cx="0.2734639" cy="-0.0093631" r="0.012"/><circle class="foot" data-pt="20" cx="-0.2734639" cy="-0.0093631" r="0.012"/><circle class="foot" data-pt="21" cx="0.4252697" cy="-0.0402417" r="0.012"/><circle class="foot" data-pt="21" cx="-0.4252697" cy="-0.0402417" r="0.012"/><circle class="bindu" cx="0" cy="0" r="0.016"/></svg>