<svg xmlns="http://www.w3.org/2000/svg" viewBox="-1.08 -1.08 2.16 2.16" data-figure-id="056" data-engine-commit="75aed90"><style>.circumcircle{fill:none;stroke:var(--circle,#999);stroke-width:.006}.axis{stroke:var(--axis,#ccc);stroke-width:.004;stroke-dasharray:.03 .03}.triangle{fill:none;stroke-width:.008;stroke-linejoin:round}.triangle.sakti{stroke:var(--sakti,#1b1b1b)}.triangle.siva{stroke:var(--siva,#1b1b1b)}.foot{fill:var(--foot,crimson)}.bindu{fill:var(--bindu,#000)}</style><circle class="circumcircle" cx="0" cy="0" r="1"/><line class="axis" x1="0" y1="-1" x2="0" y2="1"/><polygon class="triangle sakti" data-name="P0-2" points="0,1 0.952043,-0.3059641 -0.952043,-0.3059641"/><polygon class="triangle sakti" data-name="P1-4" points="0,0.642573 0.558949,-0.3059641 -0.558949,-0.3059641"/><polygon class="triangle sakti" data-name="P4-6" points="0,0.1183824 0.2739045,-0.3059641 -0.2739045,-0.3059641"/><polygon class="triangle sakti" data-name="P2-13" points="0,0.4766668 0.3628783,-0.1518569 -0.3628783,-0.1518569"/><polygon class="triangle sakti" data-name="P3-14" points="0,0.2131466 0.2180468,-0.0642002 -0.2180468,-0.0642002"/><polygon class="triangle siva" data-name="P10-1" points="0,-1 0.9770202,0.2131466 -0.9770202,0.2131466"/><polygon class="triangle siva" data-name="P9-3" points="0,-0.7803807 0.5736132,0.2131466 -0.5736132,0.2131466"/><polygon class="triangle siva" data-name="P7-5" points="0,-0.3059641 0.2530502,0.2131466 -0.2530502,0.2131466"/><polygon class="triangle siva" data-name="P8-10" points="0,-0.5024335 0.3088923,0.1183824 -0.3088923,0.1183824"/><circle class="foot" data-pt="20" cx="0.2616611" cy="0.0234565" r="0.012"/><circle class="foot" data-pt="20" cx="-0.2616611" cy="0.0234565" r="0.012"/><circle class="foot" data-pt="21" cx="0.41497" cy="-0.0616315" r="0.012"/><circle class="foot" data-pt="21" cx="-0.41497" cy="-0.0616315" r="0.012"/><circle class="bindu" cx="0" cy="0" r="0.016"/></svg>