<svg xmlns="http://www.w3.org/2000/svg" viewBox="-1.08 -1.08 2.16 2.16" data-figure-id="057" data-engine-commit="75aed90"><style>.circumcircle{fill:none;stroke:var(--circle,#999);stroke-width:.006}.axis{stroke:var(--axis,#ccc);stroke-width:.004;stroke-dasharray:.03 .03}.triangle{fill:none;stroke-width:.008;stroke-linejoin:round}.triangle.sakti{stroke:var(--sakti,#1b1b1b)}.triangle.siva{stroke:var(--siva,#1b1b1b)}.foot{fill:var(--foot,crimson)}.bindu{fill:var(--bindu,#000)}</style><circle class="circumcircle" cx="0" cy="0" r="1"/><line class="axis" x1="0" y1="-1" x2="0" y2="1"/><polygon class="triangle sakti" data-name="P0-2" points="0,1 0.959914,-0.2802948 -0.959914,-0.2802948"/><polygon class="triangle sakti" data-name="P1-4" points="0,0.7115924 0.5703137,-0.2802948 -0.5703137,-0.2802948"/><polygon class="triangle sakti" data-name="P4-6" points="0,0.1005554 0.2846256,-0.2802948 -0.2846256,-0.2802948"/><polygon class="triangle sakti" data-name="P2-13" points="0,0.4606136 0.3561946,-0.1563336 -0.3561946,-0.1563336"/><polygon class="triangle sakti" data-name="P3-14" points="0,0.2285464 0.2516184,-0.0601962 -0.2516184,-0.0601962"/><polygon class="triangle siva" data-name="P10-1" points="0,-1 0.973533,0.2285464 -0.973533,0.2285464"/><polygon class="triangle siva" data-name="P9-3" points="0,-0.7732808 0.5784052,0.2285464 -0.5784052,0.2285464"/><polygon class="triangle siva" data-name="P7-5" points="0,-0.2802948 0.277741,0.2285464 -0.277741,0.2285464"/><polygon class="triangle siva" data-name="P8-10" points="0,-0.4658343 0.351333,0.1005554 -0.351333,0.1005554"/><circle class="foot" data-pt="20" cx="0.277034" cy="-0.0192233" r="0.012"/><circle class="foot" data-pt="20" cx="-0.277034" cy="-0.0192233" r="0.012"/><circle class="foot" data-pt="21" cx="0.4277637" cy="-0.0323724" r="0.012"/><circle class="foot" data-pt="21" cx="-0.4277637" cy="-0.0323724" r="0.012"/><circle class="bindu" cx="0" cy="0" r="0.016"/></svg>