<svg xmlns="http://www.w3.org/2000/svg" viewBox="-1.08 -1.08 2.16 2.16" data-figure-id="058" data-engine-commit="75aed90"><style>.circumcircle{fill:none;stroke:var(--circle,#999);stroke-width:.006}.axis{stroke:var(--axis,#ccc);stroke-width:.004;stroke-dasharray:.03 .03}.triangle{fill:none;stroke-width:.008;stroke-linejoin:round}.triangle.sakti{stroke:var(--sakti,#1b1b1b)}.triangle.siva{stroke:var(--siva,#1b1b1b)}.foot{fill:var(--foot,crimson)}.bindu{fill:var(--bindu,#000)}</style><circle class="circumcircle" cx="0" cy="0" r="1"/><line class="axis" x1="0" y1="-1" x2="0" y2="1"/><polygon class="triangle sakti" data-name="P0-2" points="0,1 0.9603733,-0.2787169 -0.9603733,-0.2787169"/><polygon class="triangle sakti" data-name="P1-4" points="0,0.7165226 0.570946,-0.2787169 -0.570946,-0.2787169"/><polygon class="triangle sakti" data-name="P4-6" points="0,0.0995687 0.2851657,-0.2787169 -0.2851657,-0.2787169"/><polygon class="triangle sakti" data-name="P2-13" points="0,0.4596686 0.3557364,-0.1564849 -0.3557364,-0.1564849"/><polygon class="triangle sakti" data-name="P3-14" points="0,0.2295715 0.2536958,-0.0599363 -0.2536958,-0.0599363"/><polygon class="triangle siva" data-name="P10-1" points="0,-1 0.9732918,0.2295715 -0.9732918,0.2295715"/><polygon class="triangle siva" data-name="P9-3" points="0,-0.7726384 0.5786261,0.2295715 -0.5786261,0.2295715"/><polygon class="triangle siva" data-name="P7-5" points="0,-0.2787169 0.2793527,0.2295715 -0.2793527,0.2295715"/><polygon class="triangle siva" data-name="P8-10" points="0,-0.4636393 0.3539322,0.0995687 -0.3539322,0.0995687"/><circle class="foot" data-pt="20" cx="0.2778254" cy="-0.0215391" r="0.012"/><circle class="foot" data-pt="20" cx="-0.2778254" cy="-0.0215391" r="0.012"/><circle class="foot" data-pt="21" cx="0.4285118" cy="-0.0304341" r="0.012"/><circle class="foot" data-pt="21" cx="-0.4285118" cy="-0.0304341" r="0.012"/><circle class="bindu" cx="0" cy="0" r="0.016"/></svg>