<svg xmlns="http://www.w3.org/2000/svg" viewBox="-1.08 -1.08 2.16 2.16" data-figure-id="059" data-engine-commit="75aed90"><style>.circumcircle{fill:none;stroke:var(--circle,#999);stroke-width:.006}.axis{stroke:var(--axis,#ccc);stroke-width:.004;stroke-dasharray:.03 .03}.triangle{fill:none;stroke-width:.008;stroke-linejoin:round}.triangle.sakti{stroke:var(--sakti,#1b1b1b)}.triangle.siva{stroke:var(--siva,#1b1b1b)}.foot{fill:var(--foot,crimson)}.bindu{fill:var(--bindu,#000)}</style><circle class="circumcircle" cx="0" cy="0" r="1"/><line class="axis" x1="0" y1="-1" x2="0" y2="1"/><polygon class="triangle sakti" data-name="P0-2" points="0,1 0.9572762,-0.2891751 -0.9572762,-0.2891751"/><polygon class="triangle sakti" data-name="P1-4" points="0,0.6854611 0.5666146,-0.2891751 -0.5666146,-0.2891751"/><polygon class="triangle sakti" data-name="P4-6" points="0,0.1063248 0.2813368,-0.2891751 -0.2813368,-0.2891751"/><polygon class="triangle sakti" data-name="P2-13" points="0,0.466006 0.3586704,-0.1552294 -0.3586704,-0.1552294"/><polygon class="triangle sakti" data-name="P3-14" points="0,0.2229392 0.2399593,-0.0616312 -0.2399593,-0.0616312"/><polygon class="triangle siva" data-name="P10-1" points="0,-1 0.9748324,0.2229392 -0.9748324,0.2229392"/><polygon class="triangle siva" data-name="P9-3" points="0,-0.7764647 0.5770061,0.2229392 -0.5770061,0.2229392"/><polygon class="triangle siva" data-name="P7-5" points="0,-0.2891751 0.2688918,0.2229392 -0.2688918,0.2229392"/><polygon class="triangle siva" data-name="P8-10" points="0,-0.4782927 0.3366867,0.1063248 -0.3366867,0.1063248"/><circle class="foot" data-pt="20" cx="0.272255" cy="-0.0055534" r="0.012"/><circle class="foot" data-pt="20" cx="-0.272255" cy="-0.0055534" r="0.012"/><circle class="foot" data-pt="21" cx="0.4234821" cy="-0.0429722" r="0.012"/><circle class="foot" data-pt="21" cx="-0.4234821" cy="-0.0429722" r="0.012"/><circle class="bindu" cx="0" cy="0" r="0.016"/></svg>