<svg xmlns="http://www.w3.org/2000/svg" viewBox="-1.08 -1.08 2.16 2.16" data-figure-id="060" data-engine-commit="75aed90"><style>.circumcircle{fill:none;stroke:var(--circle,#999);stroke-width:.006}.axis{stroke:var(--axis,#ccc);stroke-width:.004;stroke-dasharray:.03 .03}.triangle{fill:none;stroke-width:.008;stroke-linejoin:round}.triangle.sakti{stroke:var(--sakti,#1b1b1b)}.triangle.siva{stroke:var(--siva,#1b1b1b)}.foot{fill:var(--foot,crimson)}.bindu{fill:var(--bindu,#000)}</style><circle class="circumcircle" cx="0" cy="0" r="1"/><line class="axis" x1="0" y1="-1" x2="0" y2="1"/><polygon class="triangle sakti" data-name="P0-2" points="0,1 0.9494893,-0.3137995 -0.9494893,-0.3137995"/><polygon class="triangle sakti" data-name="P1-4" points="0,0.6942862 0.5470151,-0.3137995 -0.5470151,-0.3137995"/><polygon class="triangle sakti" data-name="P4-6" points="0,0.1198793 0.2786718,-0.3137995 -0.2786718,-0.3137995"/><polygon class="triangle sakti" data-name="P2-13" points="0,0.4778904 0.3638282,-0.1522786 -0.3638282,-0.1522786"/><polygon class="triangle sakti" data-name="P3-14" points="0,0.2228884 0.2188527,-0.0648056 -0.2188527,-0.0648056"/><polygon class="triangle siva" data-name="P10-1" points="0,-1 0.974844,0.2228884 -0.974844,0.2228884"/><polygon class="triangle siva" data-name="P9-3" points="0,-0.8423717 0.5616223,0.2228884 -0.5616223,0.2228884"/><polygon class="triangle siva" data-name="P7-5" points="0,-0.3137995 0.2557935,0.2228884 -0.2557935,0.2228884"/><polygon class="triangle siva" data-name="P8-10" points="0,-0.5001824 0.311689,0.1198793 -0.311689,0.1198793"/><circle class="foot" data-pt="20" cx="0.2628231" cy="0.0226674" r="0.012"/><circle class="foot" data-pt="20" cx="-0.2628231" cy="0.0226674" r="0.012"/><circle class="foot" data-pt="21" cx="0.4109107" cy="-0.0629747" r="0.012"/><circle class="foot" data-pt="21" cx="-0.4109107" cy="-0.0629747" r="0.012"/><circle class="bindu" cx="0" cy="0" r="0.016"/></svg>