<svg xmlns="http://www.w3.org/2000/svg" viewBox="-1.08 -1.08 2.16 2.16" data-figure-id="061" data-engine-commit="75aed90"><style>.circumcircle{fill:none;stroke:var(--circle,#999);stroke-width:.006}.axis{stroke:var(--axis,#ccc);stroke-width:.004;stroke-dasharray:.03 .03}.triangle{fill:none;stroke-width:.008;stroke-linejoin:round}.triangle.sakti{stroke:var(--sakti,#1b1b1b)}.triangle.siva{stroke:var(--siva,#1b1b1b)}.foot{fill:var(--foot,crimson)}.bindu{fill:var(--bindu,#000)}</style><circle class="circumcircle" cx="0" cy="0" r="1"/><line class="axis" x1="0" y1="-1" x2="0" y2="1"/><polygon class="triangle sakti" data-name="P0-2" points="0,1 0.9594354,-0.2819285 -0.9594354,-0.2819285"/><polygon class="triangle sakti" data-name="P1-4" points="0,0.7334429 0.5666276,-0.2819285 -0.5666276,-0.2819285"/><polygon class="triangle sakti" data-name="P4-6" points="0,0.1007012 0.2861561,-0.2819285 -0.2861561,-0.2819285"/><polygon class="triangle sakti" data-name="P2-13" points="0,0.4607959 0.3564134,-0.1565301 -0.3564134,-0.1565301"/><polygon class="triangle sakti" data-name="P3-14" points="0,0.2325343 0.2524959,-0.0603106 -0.2524959,-0.0603106"/><polygon class="triangle siva" data-name="P10-1" points="0,-1 0.9725882,0.2325343 -0.9725882,0.2325343"/><polygon class="triangle siva" data-name="P9-3" points="0,-0.7926731 0.5743954,0.2325343 -0.5743954,0.2325343"/><polygon class="triangle siva" data-name="P7-5" points="0,-0.2819285 0.2795319,0.2325343 -0.2795319,0.2325343"/><polygon class="triangle siva" data-name="P8-10" points="0,-0.4644126 0.3531012,0.1007012 -0.3531012,0.1007012"/><circle class="foot" data-pt="20" cx="0.2776336" cy="-0.0200795" r="0.012"/><circle class="foot" data-pt="20" cx="-0.2776336" cy="-0.0200795" r="0.012"/><circle class="foot" data-pt="21" cx="0.4266706" cy="-0.0311318" r="0.012"/><circle class="foot" data-pt="21" cx="-0.4266706" cy="-0.0311318" r="0.012"/><circle class="bindu" cx="0" cy="0" r="0.016"/></svg>