<svg xmlns="http://www.w3.org/2000/svg" viewBox="-1.08 -1.08 2.16 2.16" data-figure-id="062" data-engine-commit="75aed90"><style>.circumcircle{fill:none;stroke:var(--circle,#999);stroke-width:.006}.axis{stroke:var(--axis,#ccc);stroke-width:.004;stroke-dasharray:.03 .03}.triangle{fill:none;stroke-width:.008;stroke-linejoin:round}.triangle.sakti{stroke:var(--sakti,#1b1b1b)}.triangle.siva{stroke:var(--siva,#1b1b1b)}.foot{fill:var(--foot,crimson)}.bindu{fill:var(--bindu,#000)}</style><circle class="circumcircle" cx="0" cy="0" r="1"/><line class="axis" x1="0" y1="-1" x2="0" y2="1"/><polygon class="triangle sakti" data-name="P0-2" points="0,1 0.9606152,-0.2778822 -0.9606152,-0.2778822"/><polygon class="triangle sakti" data-name="P1-4" points="0,0.6809234 0.5757266,-0.2778822 -0.5757266,-0.2778822"/><polygon class="triangle sakti" data-name="P4-6" points="0,0.1003476 0.2823395,-0.2778822 -0.2823395,-0.2778822"/><polygon class="triangle sakti" data-name="P2-13" points="0,0.4603457 0.3558467,-0.1559988 -0.3558467,-0.1559988"/><polygon class="triangle sakti" data-name="P3-14" points="0,0.2227572 0.250231,-0.0600271 -0.250231,-0.0600271"/><polygon class="triangle siva" data-name="P10-1" points="0,-1 0.974874,0.2227572 -0.974874,0.2227572"/><polygon class="triangle siva" data-name="P9-3" points="0,-0.7460335 0.5842723,0.2227572 -0.5842723,0.2227572"/><polygon class="triangle siva" data-name="P7-5" points="0,-0.2778822 0.2751115,0.2227572 -0.2751115,0.2227572"/><polygon class="triangle siva" data-name="P8-10" points="0,-0.4679304 0.3486139,0.1003476 -0.3486139,0.1003476"/><circle class="foot" data-pt="20" cx="0.2760953" cy="-0.0178654" r="0.012"/><circle class="foot" data-pt="20" cx="-0.2760953" cy="-0.0178654" r="0.012"/><circle class="foot" data-pt="21" cx="0.4293539" cy="-0.0341154" r="0.012"/><circle class="foot" data-pt="21" cx="-0.4293539" cy="-0.0341154" r="0.012"/><circle class="bindu" cx="0" cy="0" r="0.016"/></svg>