<svg xmlns="http://www.w3.org/2000/svg" viewBox="-1.08 -1.08 2.16 2.16" data-figure-id="063" data-engine-commit="75aed90"><style>.circumcircle{fill:none;stroke:var(--circle,#999);stroke-width:.006}.axis{stroke:var(--axis,#ccc);stroke-width:.004;stroke-dasharray:.03 .03}.triangle{fill:none;stroke-width:.008;stroke-linejoin:round}.triangle.sakti{stroke:var(--sakti,#1b1b1b)}.triangle.siva{stroke:var(--siva,#1b1b1b)}.foot{fill:var(--foot,crimson)}.bindu{fill:var(--bindu,#000)}</style><circle class="circumcircle" cx="0" cy="0" r="1"/><line class="axis" x1="0" y1="-1" x2="0" y2="1"/><polygon class="triangle sakti" data-name="P0-2" points="0,1 0.9625477,-0.2711125 -0.9625477,-0.2711125"/><polygon class="triangle sakti" data-name="P1-4" points="0,0.6780364 0.5812328,-0.2711125 -0.5812328,-0.2711125"/><polygon class="triangle sakti" data-name="P4-6" points="0,0.0968361 0.2828742,-0.2711125 -0.2828742,-0.2711125"/><polygon class="triangle sakti" data-name="P2-13" points="0,0.4568798 0.3540086,-0.1562811 -0.3540086,-0.1562811"/><polygon class="triangle sakti" data-name="P3-14" points="0,0.2225792 0.2565798,-0.0590206 -0.2565798,-0.0590206"/><polygon class="triangle siva" data-name="P10-1" points="0,-1 0.9749146,0.2225792 -0.9749146,0.2225792"/><polygon class="triangle siva" data-name="P9-3" points="0,-0.7277529 0.5887005,0.2225792 -0.5887005,0.2225792"/><polygon class="triangle siva" data-name="P7-5" points="0,-0.2711125 0.2789095,0.2225792 -0.2789095,0.2225792"/><polygon class="triangle siva" data-name="P8-10" points="0,-0.4616094 0.3559111,0.0968361 -0.3559111,0.0968361"/><circle class="foot" data-pt="20" cx="0.2782365" cy="-0.02504" r="0.012"/><circle class="foot" data-pt="20" cx="-0.2782365" cy="-0.02504" r="0.012"/><circle class="foot" data-pt="21" cx="0.4329128" cy="-0.0289071" r="0.012"/><circle class="foot" data-pt="21" cx="-0.4329128" cy="-0.0289071" r="0.012"/><circle class="bindu" cx="0" cy="0" r="0.016"/></svg>