<svg xmlns="http://www.w3.org/2000/svg" viewBox="-1.08 -1.08 2.16 2.16" data-figure-id="065" data-engine-commit="75aed90"><style>.circumcircle{fill:none;stroke:var(--circle,#999);stroke-width:.006}.axis{stroke:var(--axis,#ccc);stroke-width:.004;stroke-dasharray:.03 .03}.triangle{fill:none;stroke-width:.008;stroke-linejoin:round}.triangle.sakti{stroke:var(--sakti,#1b1b1b)}.triangle.siva{stroke:var(--siva,#1b1b1b)}.foot{fill:var(--foot,crimson)}.bindu{fill:var(--bindu,#000)}</style><circle class="circumcircle" cx="0" cy="0" r="1"/><line class="axis" x1="0" y1="-1" x2="0" y2="1"/><polygon class="triangle sakti" data-name="P0-2" points="0,1 0.9503516,-0.3111783 -0.9503516,-0.3111783"/><polygon class="triangle sakti" data-name="P1-4" points="0,0.7862254 0.5214074,-0.3111783 -0.5214074,-0.3111783"/><polygon class="triangle sakti" data-name="P4-6" points="0,0.1214056 0.2497524,-0.3111783 -0.2497524,-0.3111783"/><polygon class="triangle sakti" data-name="P2-13" points="0,0.5191347 0.3158746,-0.1727403 -0.3158746,-0.1727403"/><polygon class="triangle sakti" data-name="P3-14" points="0,0.2714707 0.2254541,-0.0607028 -0.2254541,-0.0607028"/><polygon class="triangle siva" data-name="P10-1" points="0,-1 0.9624467,0.2714707 -0.9624467,0.2714707"/><polygon class="triangle siva" data-name="P9-3" points="0,-0.834077 0.5280434,0.2714707 -0.5280434,0.2714707"/><polygon class="triangle siva" data-name="P7-5" points="0,-0.3111783 0.2445745,0.2714707 -0.2445745,0.2714707"/><polygon class="triangle siva" data-name="P8-10" points="0,-0.514771 0.3158746,0.1214056 -0.3158746,0.1214056"/><circle class="foot" data-pt="20" cx="0.2459126" cy="-0.0194991" r="0.012"/><circle class="foot" data-pt="20" cx="-0.2459126" cy="-0.0194991" r="0.012"/><circle class="foot" data-pt="21" cx="0.3859367" cy="-0.0260536" r="0.012"/><circle class="foot" data-pt="21" cx="-0.3859367" cy="-0.0260536" r="0.012"/><circle class="bindu" cx="0" cy="0" r="0.016"/></svg>