<svg xmlns="http://www.w3.org/2000/svg" viewBox="-1.08 -1.08 2.16 2.16" data-figure-id="067" data-engine-commit="75aed90"><style>.circumcircle{fill:none;stroke:var(--circle,#999);stroke-width:.006}.axis{stroke:var(--axis,#ccc);stroke-width:.004;stroke-dasharray:.03 .03}.triangle{fill:none;stroke-width:.008;stroke-linejoin:round}.triangle.sakti{stroke:var(--sakti,#1b1b1b)}.triangle.siva{stroke:var(--siva,#1b1b1b)}.foot{fill:var(--foot,crimson)}.bindu{fill:var(--bindu,#000)}</style><circle class="circumcircle" cx="0" cy="0" r="1"/><line class="axis" x1="0" y1="-1" x2="0" y2="1"/><polygon class="triangle sakti" data-name="P0-2" points="0,1 0.9493248,-0.3142968 -0.9493248,-0.3142968"/><polygon class="triangle sakti" data-name="P1-4" points="0,0.8154781 0.5162892,-0.3142968 -0.5162892,-0.3142968"/><polygon class="triangle sakti" data-name="P4-6" points="0,0.1219843 0.251887,-0.3142968 -0.251887,-0.3142968"/><polygon class="triangle sakti" data-name="P2-13" points="0,0.5189125 0.3169156,-0.1724373 -0.3169156,-0.1724373"/><polygon class="triangle sakti" data-name="P3-14" points="0,0.2763979 0.2256012,-0.0609921 -0.2256012,-0.0609921"/><polygon class="triangle siva" data-name="P10-1" points="0,-1 0.9610433,0.2763979 -0.9610433,0.2763979"/><polygon class="triangle siva" data-name="P9-3" points="0,-0.8637871 0.5226623,0.2763979 -0.5226623,0.2763979"/><polygon class="triangle siva" data-name="P7-5" points="0,-0.3142968 0.2463511,0.2763979 -0.2463511,0.2763979"/><polygon class="triangle siva" data-name="P8-10" points="0,-0.513053 0.3169156,0.1219843 -0.3169156,0.1219843"/><circle class="foot" data-pt="20" cx="0.246569" cy="-0.0189766" r="0.012"/><circle class="foot" data-pt="20" cx="-0.246569" cy="-0.0189766" r="0.012"/><circle class="foot" data-pt="21" cx="0.3842928" cy="-0.0254544" r="0.012"/><circle class="foot" data-pt="21" cx="-0.3842928" cy="-0.0254544" r="0.012"/><circle class="bindu" cx="0" cy="0" r="0.016"/></svg>