<svg xmlns="http://www.w3.org/2000/svg" viewBox="-1.08 -1.08 2.16 2.16" data-figure-id="068" data-engine-commit="75aed90"><style>.circumcircle{fill:none;stroke:var(--circle,#999);stroke-width:.006}.axis{stroke:var(--axis,#ccc);stroke-width:.004;stroke-dasharray:.03 .03}.triangle{fill:none;stroke-width:.008;stroke-linejoin:round}.triangle.sakti{stroke:var(--sakti,#1b1b1b)}.triangle.siva{stroke:var(--siva,#1b1b1b)}.foot{fill:var(--foot,crimson)}.bindu{fill:var(--bindu,#000)}</style><circle class="circumcircle" cx="0" cy="0" r="1"/><line class="axis" x1="0" y1="-1" x2="0" y2="1"/><polygon class="triangle sakti" data-name="P0-2" points="0,1 0.9509717,-0.3092779 -0.9509717,-0.3092779"/><polygon class="triangle sakti" data-name="P1-4" points="0,0.7690816 0.5245231,-0.3092779 -0.5245231,-0.3092779"/><polygon class="triangle sakti" data-name="P4-6" points="0,0.1210467 0.2484481,-0.3092779 -0.2484481,-0.3092779"/><polygon class="triangle sakti" data-name="P2-13" points="0,0.5192747 0.3152096,-0.1729103 -0.3152096,-0.1729103"/><polygon class="triangle sakti" data-name="P3-14" points="0,0.2685014 0.2253418,-0.0605234 -0.2253418,-0.0605234"/><polygon class="triangle siva" data-name="P10-1" points="0,-1 0.9632793,0.2685014 -0.9632793,0.2685014"/><polygon class="triangle siva" data-name="P9-3" points="0,-0.8167601 0.5313115,0.2685014 -0.5313115,0.2685014"/><polygon class="triangle siva" data-name="P7-5" points="0,-0.3092779 0.2434864,0.2685014 -0.2434864,0.2685014"/><polygon class="triangle siva" data-name="P8-10" points="0,-0.5158074 0.3152096,0.1210467 -0.3152096,0.1210467"/><circle class="foot" data-pt="20" cx="0.2454915" cy="-0.0198127" r="0.012"/><circle class="foot" data-pt="20" cx="-0.2454915" cy="-0.0198127" r="0.012"/><circle class="foot" data-pt="21" cx="0.3869327" cy="-0.0264079" r="0.012"/><circle class="foot" data-pt="21" cx="-0.3869327" cy="-0.0264079" r="0.012"/><circle class="bindu" cx="0" cy="0" r="0.016"/></svg>