<svg xmlns="http://www.w3.org/2000/svg" viewBox="-1.08 -1.08 2.16 2.16" data-figure-id="069" data-engine-commit="75aed90"><style>.circumcircle{fill:none;stroke:var(--circle,#999);stroke-width:.006}.axis{stroke:var(--axis,#ccc);stroke-width:.004;stroke-dasharray:.03 .03}.triangle{fill:none;stroke-width:.008;stroke-linejoin:round}.triangle.sakti{stroke:var(--sakti,#1b1b1b)}.triangle.siva{stroke:var(--siva,#1b1b1b)}.foot{fill:var(--foot,crimson)}.bindu{fill:var(--bindu,#000)}</style><circle class="circumcircle" cx="0" cy="0" r="1"/><line class="axis" x1="0" y1="-1" x2="0" y2="1"/><polygon class="triangle sakti" data-name="P0-2" points="0,1 0.9552323,-0.2958567 -0.9552323,-0.2958567"/><polygon class="triangle sakti" data-name="P1-4" points="0,0.660752 0.5464698,-0.2958567 -0.5464698,-0.2958567"/><polygon class="triangle sakti" data-name="P4-6" points="0,0.1183753 0.239157,-0.2958567 -0.239157,-0.2958567"/><polygon class="triangle sakti" data-name="P2-13" points="0,0.520368 0.3098367,-0.1737876 -0.3098367,-0.1737876"/><polygon class="triangle sakti" data-name="P3-14" points="0,0.2482086 0.2240484,-0.0591877 -0.2240484,-0.0591877"/><polygon class="triangle siva" data-name="P10-1" points="0,-1 0.9687066,0.2482086 -0.9687066,0.2482086"/><polygon class="triangle siva" data-name="P9-3" points="0,-0.7088989 0.5541781,0.2482086 -0.5541781,0.2482086"/><polygon class="triangle siva" data-name="P7-5" points="0,-0.2958567 0.2356685,0.2482086 -0.2356685,0.2482086"/><polygon class="triangle siva" data-name="P8-10" points="0,-0.5229193 0.3098367,0.1183753 -0.3098367,0.1183753"/><circle class="foot" data-pt="20" cx="0.2420522" cy="-0.0219238" r="0.012"/><circle class="foot" data-pt="20" cx="-0.2420522" cy="-0.0219238" r="0.012"/><circle class="foot" data-pt="21" cx="0.3938495" cy="-0.0286911" r="0.012"/><circle class="foot" data-pt="21" cx="-0.3938495" cy="-0.0286911" r="0.012"/><circle class="bindu" cx="0" cy="0" r="0.016"/></svg>