<svg xmlns="http://www.w3.org/2000/svg" viewBox="-1.08 -1.08 2.16 2.16" data-figure-id="070" data-engine-commit="75aed90"><style>.circumcircle{fill:none;stroke:var(--circle,#999);stroke-width:.006}.axis{stroke:var(--axis,#ccc);stroke-width:.004;stroke-dasharray:.03 .03}.triangle{fill:none;stroke-width:.008;stroke-linejoin:round}.triangle.sakti{stroke:var(--sakti,#1b1b1b)}.triangle.siva{stroke:var(--siva,#1b1b1b)}.foot{fill:var(--foot,crimson)}.bindu{fill:var(--bindu,#000)}</style><circle class="circumcircle" cx="0" cy="0" r="1"/><line class="axis" x1="0" y1="-1" x2="0" y2="1"/><polygon class="triangle sakti" data-name="P0-2" points="0,1 0.9524955,-0.3045526 -0.9524955,-0.3045526"/><polygon class="triangle sakti" data-name="P1-4" points="0,0.7285221 0.532261,-0.3045526 -0.532261,-0.3045526"/><polygon class="triangle sakti" data-name="P4-6" points="0,0.1201338 0.2451928,-0.3045526 -0.2451928,-0.3045526"/><polygon class="triangle sakti" data-name="P2-13" points="0,0.5196381 0.313454,-0.1732845 -0.313454,-0.1732845"/><polygon class="triangle sakti" data-name="P3-14" points="0,0.2612238 0.2249874,-0.0600669 -0.2249874,-0.0600669"/><polygon class="triangle siva" data-name="P10-1" points="0,-1 0.9652783,0.2612238 -0.9652783,0.2612238"/><polygon class="triangle siva" data-name="P9-3" points="0,-0.7760652 0.5394041,0.2612238 -0.5394041,0.2612238"/><polygon class="triangle siva" data-name="P7-5" points="0,-0.3045526 0.2407615,0.2612238 -0.2407615,0.2612238"/><polygon class="triangle siva" data-name="P8-10" points="0,-0.5183517 0.313454,0.1201338 -0.313454,0.1201338"/><circle class="foot" data-pt="20" cx="0.2443744" cy="-0.0205769" r="0.012"/><circle class="foot" data-pt="20" cx="-0.2443744" cy="-0.0205769" r="0.012"/><circle class="foot" data-pt="21" cx="0.3893914" cy="-0.0272546" r="0.012"/><circle class="foot" data-pt="21" cx="-0.3893914" cy="-0.0272546" r="0.012"/><circle class="bindu" cx="0" cy="0" r="0.016"/></svg>