<svg xmlns="http://www.w3.org/2000/svg" viewBox="-1.08 -1.08 2.16 2.16" data-figure-id="071" data-engine-commit="75aed90"><style>.circumcircle{fill:none;stroke:var(--circle,#999);stroke-width:.006}.axis{stroke:var(--axis,#ccc);stroke-width:.004;stroke-dasharray:.03 .03}.triangle{fill:none;stroke-width:.008;stroke-linejoin:round}.triangle.sakti{stroke:var(--sakti,#1b1b1b)}.triangle.siva{stroke:var(--siva,#1b1b1b)}.foot{fill:var(--foot,crimson)}.bindu{fill:var(--bindu,#000)}</style><circle class="circumcircle" cx="0" cy="0" r="1"/><line class="axis" x1="0" y1="-1" x2="0" y2="1"/><polygon class="triangle sakti" data-name="P0-2" points="0,1 0.9659316,-0.2587974 -0.9659316,-0.2587974"/><polygon class="triangle sakti" data-name="P1-4" points="0,0.6622179 0.6002099,-0.2587974 -0.6002099,-0.2587974"/><polygon class="triangle sakti" data-name="P4-6" points="0,0.0888478 0.3009921,-0.2587974 -0.3009921,-0.2587974"/><polygon class="triangle sakti" data-name="P2-13" points="0,0.4303213 0.3736555,-0.1482619 -0.3736555,-0.1482619"/><polygon class="triangle sakti" data-name="P3-14" points="0,0.2079182 0.269272,-0.058156 -0.269272,-0.058156"/><polygon class="triangle siva" data-name="P10-1" points="0,-1 0.9781462,0.2079182 -0.9781462,0.2079182"/><polygon class="triangle siva" data-name="P9-3" points="0,-0.7166664 0.6077998,0.2079182 -0.6077998,0.2079182"/><polygon class="triangle siva" data-name="P7-5" points="0,-0.2587974 0.2960593,0.2079182 -0.2960593,0.2079182"/><polygon class="triangle siva" data-name="P8-10" points="0,-0.437373 0.3736555,0.0888478 -0.3736555,0.0888478"/><circle class="foot" data-pt="20" cx="0.2934627" cy="-0.0240881" r="0.012"/><circle class="foot" data-pt="20" cx="-0.2934627" cy="-0.0240881" r="0.012"/><circle class="foot" data-pt="21" cx="0.4512517" cy="-0.0302227" r="0.012"/><circle class="foot" data-pt="21" cx="-0.4512517" cy="-0.0302227" r="0.012"/><circle class="bindu" cx="0" cy="0" r="0.016"/></svg>