<svg xmlns="http://www.w3.org/2000/svg" viewBox="-1.08 -1.08 2.16 2.16" data-figure-id="072" data-engine-commit="75aed90"><style>.circumcircle{fill:none;stroke:var(--circle,#999);stroke-width:.006}.axis{stroke:var(--axis,#ccc);stroke-width:.004;stroke-dasharray:.03 .03}.triangle{fill:none;stroke-width:.008;stroke-linejoin:round}.triangle.sakti{stroke:var(--sakti,#1b1b1b)}.triangle.siva{stroke:var(--siva,#1b1b1b)}.foot{fill:var(--foot,crimson)}.bindu{fill:var(--bindu,#000)}</style><circle class="circumcircle" cx="0" cy="0" r="1"/><line class="axis" x1="0" y1="-1" x2="0" y2="1"/><polygon class="triangle sakti" data-name="P0-2" points="0,1 0.9473222,-0.3202822 -0.9473222,-0.3202822"/><polygon class="triangle sakti" data-name="P1-4" points="0,0.7911112 0.5080294,-0.3202822 -0.5080294,-0.3202822"/><polygon class="triangle sakti" data-name="P4-6" points="0,0.129224 0.2372149,-0.3202822 -0.2372149,-0.3202822"/><polygon class="triangle sakti" data-name="P2-13" points="0,0.5391545 0.3025555,-0.1779909 -0.3025555,-0.1779909"/><polygon class="triangle sakti" data-name="P3-14" points="0,0.2831822 0.2159168,-0.0603115 -0.2159168,-0.0603115"/><polygon class="triangle siva" data-name="P10-1" points="0,-1 0.9590661,0.2831822 -0.9590661,0.2831822"/><polygon class="triangle siva" data-name="P9-3" points="0,-0.8368619 0.5143275,0.2831822 -0.5143275,0.2831822"/><polygon class="triangle siva" data-name="P7-5" points="0,-0.3202822 0.2321796,0.2831822 -0.2321796,0.2831822"/><polygon class="triangle siva" data-name="P8-10" points="0,-0.5326632 0.3025555,0.129224 -0.3025555,0.129224"/><circle class="foot" data-pt="20" cx="0.2351535" cy="-0.0182284" r="0.012"/><circle class="foot" data-pt="20" cx="-0.2351535" cy="-0.0182284" r="0.012"/><circle class="foot" data-pt="21" cx="0.3729314" cy="-0.0247342" r="0.012"/><circle class="foot" data-pt="21" cx="-0.3729314" cy="-0.0247342" r="0.012"/><circle class="bindu" cx="0" cy="0" r="0.016"/></svg>