<svg xmlns="http://www.w3.org/2000/svg" viewBox="-1.08 -1.08 2.16 2.16" data-figure-id="073" data-engine-commit="75aed90"><style>.circumcircle{fill:none;stroke:var(--circle,#999);stroke-width:.006}.axis{stroke:var(--axis,#ccc);stroke-width:.004;stroke-dasharray:.03 .03}.triangle{fill:none;stroke-width:.008;stroke-linejoin:round}.triangle.sakti{stroke:var(--sakti,#1b1b1b)}.triangle.siva{stroke:var(--siva,#1b1b1b)}.foot{fill:var(--foot,crimson)}.bindu{fill:var(--bindu,#000)}</style><circle class="circumcircle" cx="0" cy="0" r="1"/><line class="axis" x1="0" y1="-1" x2="0" y2="1"/><polygon class="triangle sakti" data-name="P0-2" points="0,1 0.9579258,-0.2870161 -0.9579258,-0.2870161"/><polygon class="triangle sakti" data-name="P1-4" points="0,0.7022638 0.5584753,-0.2870161 -0.5584753,-0.2870161"/><polygon class="triangle sakti" data-name="P4-6" points="0,0.1072056 0.2657665,-0.2870161 -0.2657665,-0.2870161"/><polygon class="triangle sakti" data-name="P2-13" points="0,0.4852164 0.3359265,-0.1639911 -0.3359265,-0.1639911"/><polygon class="triangle sakti" data-name="P3-14" points="0,0.2395045 0.2415757,-0.059927 -0.2415757,-0.059927"/><polygon class="triangle siva" data-name="P10-1" points="0,-1 0.9708952,0.2395045 -0.9708952,0.2395045"/><polygon class="triangle siva" data-name="P9-3" points="0,-0.7530349 0.5660366,0.2395045 -0.5660366,0.2395045"/><polygon class="triangle siva" data-name="P7-5" points="0,-0.2870161 0.2612401,0.2395045 -0.2612401,0.2395045"/><polygon class="triangle siva" data-name="P8-10" points="0,-0.4878526 0.3359265,0.1072056 -0.3359265,0.1072056"/><circle class="foot" data-pt="20" cx="0.2627089" cy="-0.0224917" r="0.012"/><circle class="foot" data-pt="20" cx="-0.2627089" cy="-0.0224917" r="0.012"/><circle class="foot" data-pt="21" cx="0.4128643" cy="-0.0290815" r="0.012"/><circle class="foot" data-pt="21" cx="-0.4128643" cy="-0.0290815" r="0.012"/><circle class="bindu" cx="0" cy="0" r="0.016"/></svg>