<svg xmlns="http://www.w3.org/2000/svg" viewBox="-1.08 -1.08 2.16 2.16" data-figure-id="074" data-engine-commit="75aed90"><style>.circumcircle{fill:none;stroke:var(--circle,#999);stroke-width:.006}.axis{stroke:var(--axis,#ccc);stroke-width:.004;stroke-dasharray:.03 .03}.triangle{fill:none;stroke-width:.008;stroke-linejoin:round}.triangle.sakti{stroke:var(--sakti,#1b1b1b)}.triangle.siva{stroke:var(--siva,#1b1b1b)}.foot{fill:var(--foot,crimson)}.bindu{fill:var(--bindu,#000)}</style><circle class="circumcircle" cx="0" cy="0" r="1"/><line class="axis" x1="0" y1="-1" x2="0" y2="1"/><polygon class="triangle sakti" data-name="P0-2" points="0,1 0.9538876,-0.3001641 -0.9538876,-0.3001641"/><polygon class="triangle sakti" data-name="P1-4" points="0,0.8757117 0.5110288,-0.3001641 -0.5110288,-0.3001641"/><polygon class="triangle sakti" data-name="P4-6" points="0,0.1150458 0.2397216,-0.3001641 -0.2397216,-0.3001641"/><polygon class="triangle sakti" data-name="P2-13" points="0,0.5334468 0.2920431,-0.1832498 -0.2920431,-0.1832498"/><polygon class="triangle sakti" data-name="P3-14" points="0,0.3044527 0.2389673,-0.0575229 -0.2389673,-0.0575229"/><polygon class="triangle siva" data-name="P10-1" points="0,-1 0.9525275,0.3044527 -0.9525275,0.3044527"/><polygon class="triangle siva" data-name="P9-3" points="0,-0.83583 0.5103001,0.3044527 -0.5103001,0.3044527"/><polygon class="triangle siva" data-name="P7-5" points="0,-0.3001641 0.2482658,0.3044527 -0.2482658,0.3044527"/><polygon class="triangle siva" data-name="P8-10" points="0,-0.5076549 0.330581,0.1150458 -0.330581,0.1150458"/><circle class="foot" data-pt="20" cx="0.2400105" cy="-0.0555577" r="0.012"/><circle class="foot" data-pt="20" cx="-0.2400105" cy="-0.0555577" r="0.012"/><circle class="foot" data-pt="21" cx="0.377363" cy="0.0074004" r="0.012"/><circle class="foot" data-pt="21" cx="-0.377363" cy="0.0074004" r="0.012"/><circle class="bindu" cx="0" cy="0" r="0.016"/></svg>