<svg xmlns="http://www.w3.org/2000/svg" viewBox="-1.08 -1.08 2.16 2.16" data-figure-id="075" data-engine-commit="75aed90"><style>.circumcircle{fill:none;stroke:var(--circle,#999);stroke-width:.006}.axis{stroke:var(--axis,#ccc);stroke-width:.004;stroke-dasharray:.03 .03}.triangle{fill:none;stroke-width:.008;stroke-linejoin:round}.triangle.sakti{stroke:var(--sakti,#1b1b1b)}.triangle.siva{stroke:var(--siva,#1b1b1b)}.foot{fill:var(--foot,crimson)}.bindu{fill:var(--bindu,#000)}</style><circle class="circumcircle" cx="0" cy="0" r="1"/><line class="axis" x1="0" y1="-1" x2="0" y2="1"/><polygon class="triangle sakti" data-name="P0-2" points="0,1 0.9493723,-0.3141532 -0.9493723,-0.3141532"/><polygon class="triangle sakti" data-name="P1-4" points="0,0.763108 0.5242291,-0.3141532 -0.5242291,-0.3141532"/><polygon class="triangle sakti" data-name="P4-6" points="0,0.1232215 0.2525184,-0.3141532 -0.2525184,-0.3141532"/><polygon class="triangle sakti" data-name="P2-13" points="0,0.5150104 0.32287,-0.1694422 -0.32287,-0.1694422"/><polygon class="triangle sakti" data-name="P3-14" points="0,0.2624385 0.2214437,-0.0616108 -0.2214437,-0.0616108"/><polygon class="triangle siva" data-name="P10-1" points="0,-1 0.9649487,0.2624385 -0.9649487,0.2624385"/><polygon class="triangle siva" data-name="P9-3" points="0,-0.8335748 0.5328302,0.2624385 -0.5328302,0.2624385"/><polygon class="triangle siva" data-name="P7-5" points="0,-0.3141532 0.2436415,0.2624385 -0.2436415,0.2624385"/><polygon class="triangle siva" data-name="P8-10" points="0,-0.5166649 0.3113889,0.1232215 -0.3113889,0.1232215"/><circle class="foot" data-pt="20" cx="0.2471171" cy="-0.0088534" r="0.012"/><circle class="foot" data-pt="20" cx="-0.2471171" cy="-0.0088534" r="0.012"/><circle class="foot" data-pt="21" cx="0.3883069" cy="-0.0348408" r="0.012"/><circle class="foot" data-pt="21" cx="-0.3883069" cy="-0.0348408" r="0.012"/><circle class="bindu" cx="0" cy="0" r="0.016"/></svg>