<svg xmlns="http://www.w3.org/2000/svg" viewBox="-1.08 -1.08 2.16 2.16" data-figure-id="076" data-engine-commit="75aed90"><style>.circumcircle{fill:none;stroke:var(--circle,#999);stroke-width:.006}.axis{stroke:var(--axis,#ccc);stroke-width:.004;stroke-dasharray:.03 .03}.triangle{fill:none;stroke-width:.008;stroke-linejoin:round}.triangle.sakti{stroke:var(--sakti,#1b1b1b)}.triangle.siva{stroke:var(--siva,#1b1b1b)}.foot{fill:var(--foot,crimson)}.bindu{fill:var(--bindu,#000)}</style><circle class="circumcircle" cx="0" cy="0" r="1"/><line class="axis" x1="0" y1="-1" x2="0" y2="1"/><polygon class="triangle sakti" data-name="P0-2" points="0,1 0.9475401,-0.3196368 -0.9475401,-0.3196368"/><polygon class="triangle sakti" data-name="P1-4" points="0,0.7215394 0.529461,-0.3196368 -0.529461,-0.3196368"/><polygon class="triangle sakti" data-name="P4-6" points="0,0.126696 0.2576904,-0.3196368 -0.2576904,-0.3196368"/><polygon class="triangle sakti" data-name="P2-13" points="0,0.5070791 0.3364934,-0.1627664 -0.3364934,-0.1627664"/><polygon class="triangle sakti" data-name="P3-14" points="0,0.2456398 0.2136151,-0.063348 -0.2136151,-0.063348"/><polygon class="triangle siva" data-name="P10-1" points="0,-1 0.9693612,0.2456398 -0.9693612,0.2456398"/><polygon class="triangle siva" data-name="P9-3" points="0,-0.832612 0.541654,0.2456398 -0.541654,0.2456398"/><polygon class="triangle siva" data-name="P7-5" points="0,-0.3196368 0.2420054,0.2456398 -0.2420054,0.2456398"/><polygon class="triangle siva" data-name="P8-10" points="0,-0.5201236 0.3024909,0.126696 -0.3024909,0.126696"/><circle class="foot" data-pt="20" cx="0.2487791" cy="0.0118433" r="0.012"/><circle class="foot" data-pt="20" cx="-0.2487791" cy="0.0118433" r="0.012"/><circle class="foot" data-pt="21" cx="0.3927453" cy="-0.0507876" r="0.012"/><circle class="foot" data-pt="21" cx="-0.3927453" cy="-0.0507876" r="0.012"/><circle class="bindu" cx="0" cy="0" r="0.016"/></svg>