<svg xmlns="http://www.w3.org/2000/svg" viewBox="-1.08 -1.08 2.16 2.16" data-figure-id="077" data-engine-commit="75aed90"><style>.circumcircle{fill:none;stroke:var(--circle,#999);stroke-width:.006}.axis{stroke:var(--axis,#ccc);stroke-width:.004;stroke-dasharray:.03 .03}.triangle{fill:none;stroke-width:.008;stroke-linejoin:round}.triangle.sakti{stroke:var(--sakti,#1b1b1b)}.triangle.siva{stroke:var(--siva,#1b1b1b)}.foot{fill:var(--foot,crimson)}.bindu{fill:var(--bindu,#000)}</style><circle class="circumcircle" cx="0" cy="0" r="1"/><line class="axis" x1="0" y1="-1" x2="0" y2="1"/><polygon class="triangle sakti" data-name="P0-2" points="0,1 0.9461724,-0.3236629 -0.9461724,-0.3236629"/><polygon class="triangle sakti" data-name="P1-4" points="0,0.6918185 0.5333342,-0.3236629 -0.5333342,-0.3236629"/><polygon class="triangle sakti" data-name="P4-6" points="0,0.1293638 0.2615551,-0.3236629 -0.2615551,-0.3236629"/><polygon class="triangle sakti" data-name="P2-13" points="0,0.5009581 0.3471667,-0.1573175 -0.3471667,-0.1573175"/><polygon class="triangle sakti" data-name="P3-14" points="0,0.233174 0.2074862,-0.0646819 -0.2074862,-0.0646819"/><polygon class="triangle siva" data-name="P10-1" points="0,-1 0.972435,0.233174 -0.972435,0.233174"/><polygon class="triangle siva" data-name="P9-3" points="0,-0.8318709 0.5481377,0.233174 -0.5481377,0.233174"/><polygon class="triangle siva" data-name="P7-5" points="0,-0.3236629 0.2408816,0.233174 -0.2408816,0.233174"/><polygon class="triangle siva" data-name="P8-10" points="0,-0.5226354 0.295403,0.1293638 -0.295403,0.1293638"/><circle class="foot" data-pt="20" cx="0.2494569" cy="0.0279537" r="0.012"/><circle class="foot" data-pt="20" cx="-0.2494569" cy="0.0279537" r="0.012"/><circle class="foot" data-pt="21" cx="0.3960671" cy="-0.062303" r="0.012"/><circle class="foot" data-pt="21" cx="-0.3960671" cy="-0.062303" r="0.012"/><circle class="bindu" cx="0" cy="0" r="0.016"/></svg>