<svg xmlns="http://www.w3.org/2000/svg" viewBox="-1.08 -1.08 2.16 2.16" data-figure-id="078" data-engine-commit="75aed90"><style>.circumcircle{fill:none;stroke:var(--circle,#999);stroke-width:.006}.axis{stroke:var(--axis,#ccc);stroke-width:.004;stroke-dasharray:.03 .03}.triangle{fill:none;stroke-width:.008;stroke-linejoin:round}.triangle.sakti{stroke:var(--sakti,#1b1b1b)}.triangle.siva{stroke:var(--siva,#1b1b1b)}.foot{fill:var(--foot,crimson)}.bindu{fill:var(--bindu,#000)}</style><circle class="circumcircle" cx="0" cy="0" r="1"/><line class="axis" x1="0" y1="-1" x2="0" y2="1"/><polygon class="triangle sakti" data-name="P0-2" points="0,1 0.9499107,-0.3125216 -0.9499107,-0.3125216"/><polygon class="triangle sakti" data-name="P1-4" points="0,0.7757354 0.5226803,-0.3125216 -0.5226803,-0.3125216"/><polygon class="triangle sakti" data-name="P4-6" points="0,0.1222199 0.2509981,-0.3125216 -0.2509981,-0.3125216"/><polygon class="triangle sakti" data-name="P2-13" points="0,0.5172872 0.319001,-0.1712776 -0.319001,-0.1712776"/><polygon class="triangle sakti" data-name="P3-14" points="0,0.2673991 0.2236632,-0.0611099 -0.2236632,-0.0611099"/><polygon class="triangle siva" data-name="P10-1" points="0,-1 0.9635859,0.2673991 -0.9635859,0.2673991"/><polygon class="triangle siva" data-name="P9-3" points="0,-0.8338519 0.5302049,0.2673991 -0.5302049,0.2673991"/><polygon class="triangle siva" data-name="P7-5" points="0,-0.3125216 0.2441495,0.2673991 -0.2441495,0.2673991"/><polygon class="triangle siva" data-name="P8-10" points="0,-0.5156277 0.3138778,0.1222199 -0.3138778,0.1222199"/><circle class="foot" data-pt="20" cx="0.2464804" cy="-0.0147418" r="0.012"/><circle class="foot" data-pt="20" cx="-0.2464804" cy="-0.0147418" r="0.012"/><circle class="foot" data-pt="21" cx="0.3870038" cy="-0.0300337" r="0.012"/><circle class="foot" data-pt="21" cx="-0.3870038" cy="-0.0300337" r="0.012"/><circle class="bindu" cx="0" cy="0" r="0.016"/></svg>