<svg xmlns="http://www.w3.org/2000/svg" viewBox="-1.08 -1.08 2.16 2.16" data-figure-id="079" data-engine-commit="75aed90"><style>.circumcircle{fill:none;stroke:var(--circle,#999);stroke-width:.006}.axis{stroke:var(--axis,#ccc);stroke-width:.004;stroke-dasharray:.03 .03}.triangle{fill:none;stroke-width:.008;stroke-linejoin:round}.triangle.sakti{stroke:var(--sakti,#1b1b1b)}.triangle.siva{stroke:var(--siva,#1b1b1b)}.foot{fill:var(--foot,crimson)}.bindu{fill:var(--bindu,#000)}</style><circle class="circumcircle" cx="0" cy="0" r="1"/><line class="axis" x1="0" y1="-1" x2="0" y2="1"/><polygon class="triangle sakti" data-name="P0-2" points="0,1 0.950233,-0.31154 -0.950233,-0.31154"/><polygon class="triangle sakti" data-name="P1-4" points="0,0.7833922 0.52175,-0.31154 -0.52175,-0.31154"/><polygon class="triangle sakti" data-name="P4-6" points="0,0.121624 0.2500873,-0.31154 -0.2500873,-0.31154"/><polygon class="triangle sakti" data-name="P2-13" points="0,0.5186395 0.3167114,-0.1723506 -0.3167114,-0.1723506"/><polygon class="triangle sakti" data-name="P3-14" points="0,0.2703754 0.224975,-0.060812 -0.224975,-0.060812"/><polygon class="triangle siva" data-name="P10-1" points="0,-1 0.962755,0.2703754 -0.962755,0.2703754"/><polygon class="triangle siva" data-name="P9-3" points="0,-0.8340166 0.5286255,0.2703754 -0.5286255,0.2703754"/><polygon class="triangle siva" data-name="P7-5" points="0,-0.31154 0.2444594,0.2703754 -0.2444594,0.2703754"/><polygon class="triangle siva" data-name="P8-10" points="0,-0.515002 0.3153415,0.121624 -0.3153415,0.121624"/><circle class="foot" data-pt="20" cx="0.2460692" cy="-0.018226" r="0.012"/><circle class="foot" data-pt="20" cx="-0.2460692" cy="-0.018226" r="0.012"/><circle class="foot" data-pt="21" cx="0.3862235" cy="-0.0271274" r="0.012"/><circle class="foot" data-pt="21" cx="-0.3862235" cy="-0.0271274" r="0.012"/><circle class="bindu" cx="0" cy="0" r="0.016"/></svg>