<svg xmlns="http://www.w3.org/2000/svg" viewBox="-1.08 -1.08 2.16 2.16" data-figure-id="080" data-engine-commit="75aed90"><style>.circumcircle{fill:none;stroke:var(--circle,#999);stroke-width:.006}.axis{stroke:var(--axis,#ccc);stroke-width:.004;stroke-dasharray:.03 .03}.triangle{fill:none;stroke-width:.008;stroke-linejoin:round}.triangle.sakti{stroke:var(--sakti,#1b1b1b)}.triangle.siva{stroke:var(--siva,#1b1b1b)}.foot{fill:var(--foot,crimson)}.bindu{fill:var(--bindu,#000)}</style><circle class="circumcircle" cx="0" cy="0" r="1"/><line class="axis" x1="0" y1="-1" x2="0" y2="1"/><polygon class="triangle sakti" data-name="P0-2" points="0,1 0.9473313,-0.3202552 -0.9473313,-0.3202552"/><polygon class="triangle sakti" data-name="P1-4" points="0,0.7169316 0.530054,-0.3202552 -0.530054,-0.3202552"/><polygon class="triangle sakti" data-name="P4-6" points="0,0.1270991 0.2582801,-0.3202552 -0.2582801,-0.3202552"/><polygon class="triangle sakti" data-name="P2-13" points="0,0.506156 0.3380939,-0.1619612 -0.3380939,-0.1619612"/><polygon class="triangle sakti" data-name="P3-14" points="0,0.2437324 0.2126953,-0.0635495 -0.2126953,-0.0635495"/><polygon class="triangle siva" data-name="P10-1" points="0,-1 0.9698425,0.2437324 -0.9698425,0.2437324"/><polygon class="triangle siva" data-name="P9-3" points="0,-0.8325001 0.5426496,0.2437324 -0.5426496,0.2437324"/><polygon class="triangle siva" data-name="P7-5" points="0,-0.3202552 0.2418283,0.2437324 -0.2418283,0.2437324"/><polygon class="triangle siva" data-name="P8-10" points="0,-0.520511 0.3014337,0.1270991 -0.3014337,0.1270991"/><circle class="foot" data-pt="20" cx="0.2489154" cy="0.014267" r="0.012"/><circle class="foot" data-pt="20" cx="-0.2489154" cy="0.014267" r="0.012"/><circle class="foot" data-pt="21" cx="0.3932519" cy="-0.0525668" r="0.012"/><circle class="foot" data-pt="21" cx="-0.3932519" cy="-0.0525668" r="0.012"/><circle class="bindu" cx="0" cy="0" r="0.016"/></svg>