<svg xmlns="http://www.w3.org/2000/svg" viewBox="-1.08 -1.08 2.16 2.16" data-figure-id="081" data-engine-commit="75aed90"><style>.circumcircle{fill:none;stroke:var(--circle,#999);stroke-width:.006}.axis{stroke:var(--axis,#ccc);stroke-width:.004;stroke-dasharray:.03 .03}.triangle{fill:none;stroke-width:.008;stroke-linejoin:round}.triangle.sakti{stroke:var(--sakti,#1b1b1b)}.triangle.siva{stroke:var(--siva,#1b1b1b)}.foot{fill:var(--foot,crimson)}.bindu{fill:var(--bindu,#000)}</style><circle class="circumcircle" cx="0" cy="0" r="1"/><line class="axis" x1="0" y1="-1" x2="0" y2="1"/><polygon class="triangle sakti" data-name="P0-2" points="0,1 0.9535467,-0.3012454 -0.9535467,-0.3012454"/><polygon class="triangle sakti" data-name="P1-4" points="0,0.8666337 0.5120442,-0.3012454 -0.5120442,-0.3012454"/><polygon class="triangle sakti" data-name="P4-6" points="0,0.1156471 0.240693,-0.3012454 -0.240693,-0.3012454"/><polygon class="triangle sakti" data-name="P2-13" points="0,0.5321032 0.2942523,-0.1823256 -0.2942523,-0.1823256"/><polygon class="triangle sakti" data-name="P3-14" points="0,0.3012454 0.2377291,-0.0578236 -0.2377291,-0.0578236"/><polygon class="triangle siva" data-name="P10-1" points="0,-1 0.9535467,0.3012454 -0.9535467,0.3012454"/><polygon class="triangle siva" data-name="P9-3" points="0,-0.8356646 0.5120442,0.3012454 -0.5120442,0.3012454"/><polygon class="triangle siva" data-name="P7-5" points="0,-0.3012454 0.2478885,0.3012454 -0.2478885,0.3012454"/><polygon class="triangle siva" data-name="P8-10" points="0,-0.5083607 0.3292621,0.1156471 -0.3292621,0.1156471"/><circle class="foot" data-pt="20" cx="0.2406745" cy="-0.0522415" r="0.012"/><circle class="foot" data-pt="20" cx="-0.2406745" cy="-0.0522415" r="0.012"/><circle class="foot" data-pt="21" cx="0.3781917" cy="0.0040478" r="0.012"/><circle class="foot" data-pt="21" cx="-0.3781917" cy="0.0040478" r="0.012"/><circle class="bindu" cx="0" cy="0" r="0.016"/></svg>