<svg xmlns="http://www.w3.org/2000/svg" viewBox="-1.08 -1.08 2.16 2.16" data-figure-id="082" data-engine-commit="75aed90"><style>.circumcircle{fill:none;stroke:var(--circle,#999);stroke-width:.006}.axis{stroke:var(--axis,#ccc);stroke-width:.004;stroke-dasharray:.03 .03}.triangle{fill:none;stroke-width:.008;stroke-linejoin:round}.triangle.sakti{stroke:var(--sakti,#1b1b1b)}.triangle.siva{stroke:var(--siva,#1b1b1b)}.foot{fill:var(--foot,crimson)}.bindu{fill:var(--bindu,#000)}</style><circle class="circumcircle" cx="0" cy="0" r="1"/><line class="axis" x1="0" y1="-1" x2="0" y2="1"/><polygon class="triangle sakti" data-name="P0-2" points="0,1 0.9532137,-0.3022973 -0.9532137,-0.3022973"/><polygon class="triangle sakti" data-name="P1-4" points="0,0.8751429 0.510682,-0.3022973 -0.510682,-0.3022973"/><polygon class="triangle sakti" data-name="P4-6" points="0,0.1159385 0.2414685,-0.3022973 -0.2414685,-0.3022973"/><polygon class="triangle sakti" data-name="P2-13" points="0,0.5317377 0.2950304,-0.1820091 -0.2950304,-0.1820091"/><polygon class="triangle sakti" data-name="P3-14" points="0,0.3022973 0.2374913,-0.0579693 -0.2374913,-0.0579693"/><polygon class="triangle siva" data-name="P10-1" points="0,-1 0.9532137,0.3022973 -0.9532137,0.3022973"/><polygon class="triangle siva" data-name="P9-3" points="0,-0.8445829 0.510682,0.3022973 -0.510682,0.3022973"/><polygon class="triangle siva" data-name="P7-5" points="0,-0.3022973 0.2484559,0.3022973 -0.2484559,0.3022973"/><polygon class="triangle siva" data-name="P8-10" points="0,-0.5079139 0.3292838,0.1159385 -0.3292838,0.1159385"/><circle class="foot" data-pt="20" cx="0.2410057" cy="-0.0513109" r="0.012"/><circle class="foot" data-pt="20" cx="-0.2410057" cy="-0.0513109" r="0.012"/><circle class="foot" data-pt="21" cx="0.3778451" cy="0.0039746" r="0.012"/><circle class="foot" data-pt="21" cx="-0.3778451" cy="0.0039746" r="0.012"/><circle class="bindu" cx="0" cy="0" r="0.016"/></svg>