<svg xmlns="http://www.w3.org/2000/svg" viewBox="-1.08 -1.08 2.16 2.16" data-figure-id="083" data-engine-commit="75aed90"><style>.circumcircle{fill:none;stroke:var(--circle,#999);stroke-width:.006}.axis{stroke:var(--axis,#ccc);stroke-width:.004;stroke-dasharray:.03 .03}.triangle{fill:none;stroke-width:.008;stroke-linejoin:round}.triangle.sakti{stroke:var(--sakti,#1b1b1b)}.triangle.siva{stroke:var(--siva,#1b1b1b)}.foot{fill:var(--foot,crimson)}.bindu{fill:var(--bindu,#000)}</style><circle class="circumcircle" cx="0" cy="0" r="1"/><line class="axis" x1="0" y1="-1" x2="0" y2="1"/><polygon class="triangle sakti" data-name="P0-2" points="0,1 0.9483347,-0.3172716 -0.9483347,-0.3172716"/><polygon class="triangle sakti" data-name="P1-4" points="0,0.7656052 0.5230102,-0.3172716 -0.5230102,-0.3172716"/><polygon class="triangle sakti" data-name="P4-6" points="0,0.124421 0.2550113,-0.3172716 -0.2550113,-0.3172716"/><polygon class="triangle sakti" data-name="P2-13" points="0,0.5128693 0.3268889,-0.1676389 -0.3268889,-0.1676389"/><polygon class="triangle sakti" data-name="P3-14" points="0,0.2603615 0.2195409,-0.0622105 -0.2195409,-0.0622105"/><polygon class="triangle siva" data-name="P10-1" points="0,-1 0.9655112,0.2603615 -0.9655112,0.2603615"/><polygon class="triangle siva" data-name="P9-3" points="0,-0.8481471 0.5324831,0.2603615 -0.5324831,0.2603615"/><polygon class="triangle siva" data-name="P7-5" points="0,-0.3172716 0.2440237,0.2603615 -0.2440237,0.2603615"/><polygon class="triangle siva" data-name="P8-10" points="0,-0.5167632 0.3096806,0.124421 -0.3096806,0.124421"/><circle class="foot" data-pt="20" cx="0.2479703" cy="-0.0033483" r="0.012"/><circle class="foot" data-pt="20" cx="-0.2479703" cy="-0.0033483" r="0.012"/><circle class="foot" data-pt="21" cx="0.388646" cy="-0.0390746" r="0.012"/><circle class="foot" data-pt="21" cx="-0.388646" cy="-0.0390746" r="0.012"/><circle class="bindu" cx="0" cy="0" r="0.016"/></svg>