<svg xmlns="http://www.w3.org/2000/svg" viewBox="-1.08 -1.08 2.16 2.16" data-figure-id="084" data-engine-commit="75aed90"><style>.circumcircle{fill:none;stroke:var(--circle,#999);stroke-width:.006}.axis{stroke:var(--axis,#ccc);stroke-width:.004;stroke-dasharray:.03 .03}.triangle{fill:none;stroke-width:.008;stroke-linejoin:round}.triangle.sakti{stroke:var(--sakti,#1b1b1b)}.triangle.siva{stroke:var(--siva,#1b1b1b)}.foot{fill:var(--foot,crimson)}.bindu{fill:var(--bindu,#000)}</style><circle class="circumcircle" cx="0" cy="0" r="1"/><line class="axis" x1="0" y1="-1" x2="0" y2="1"/><polygon class="triangle sakti" data-name="P0-2" points="0,1 0.9503206,-0.3112728 -0.9503206,-0.3112728"/><polygon class="triangle sakti" data-name="P1-4" points="0,0.7607697 0.525338,-0.3112728 -0.525338,-0.3112728"/><polygon class="triangle sakti" data-name="P4-6" points="0,0.122096 0.2502056,-0.3112728 -0.2502056,-0.3112728"/><polygon class="triangle sakti" data-name="P2-13" points="0,0.5170345 0.3190911,-0.171118 -0.3190911,-0.171118"/><polygon class="triangle sakti" data-name="P3-14" points="0,0.2643721 0.2232253,-0.061048 -0.2232253,-0.061048"/><polygon class="triangle siva" data-name="P10-1" points="0,-1 0.9644207,0.2643721 -0.9644207,0.2643721"/><polygon class="triangle siva" data-name="P9-3" points="0,-0.8203427 0.5331326,0.2643721 -0.5331326,0.2643721"/><polygon class="triangle siva" data-name="P7-5" points="0,-0.3112728 0.243252,0.2643721 -0.243252,0.2643721"/><polygon class="triangle siva" data-name="P8-10" points="0,-0.5165776 0.3129723,0.122096 -0.3129723,0.122096"/><circle class="foot" data-pt="20" cx="0.246258" cy="-0.0140459" r="0.012"/><circle class="foot" data-pt="20" cx="-0.246258" cy="-0.0140459" r="0.012"/><circle class="foot" data-pt="21" cx="0.3879766" cy="-0.0309632" r="0.012"/><circle class="foot" data-pt="21" cx="-0.3879766" cy="-0.0309632" r="0.012"/><circle class="bindu" cx="0" cy="0" r="0.016"/></svg>