<svg xmlns="http://www.w3.org/2000/svg" viewBox="-1.08 -1.08 2.16 2.16" data-figure-id="085" data-engine-commit="75aed90"><style>.circumcircle{fill:none;stroke:var(--circle,#999);stroke-width:.006}.axis{stroke:var(--axis,#ccc);stroke-width:.004;stroke-dasharray:.03 .03}.triangle{fill:none;stroke-width:.008;stroke-linejoin:round}.triangle.sakti{stroke:var(--sakti,#1b1b1b)}.triangle.siva{stroke:var(--siva,#1b1b1b)}.foot{fill:var(--foot,crimson)}.bindu{fill:var(--bindu,#000)}</style><circle class="circumcircle" cx="0" cy="0" r="1"/><line class="axis" x1="0" y1="-1" x2="0" y2="1"/><polygon class="triangle sakti" data-name="P0-2" points="0,1 0.9515703,-0.3074311 -0.9515703,-0.3074311"/><polygon class="triangle sakti" data-name="P1-4" points="0,0.7576022 0.5267908,-0.3074311 -0.5267908,-0.3074311"/><polygon class="triangle sakti" data-name="P4-6" points="0,0.120568 0.2471054,-0.3074311 -0.2471054,-0.3074311"/><polygon class="triangle sakti" data-name="P2-13" points="0,0.5198071 0.3139498,-0.1733685 -0.3139498,-0.1733685"/><polygon class="triangle sakti" data-name="P3-14" points="0,0.2669752 0.2256386,-0.060284 -0.2256386,-0.060284"/><polygon class="triangle siva" data-name="P10-1" points="0,-1 0.9637034,0.2669752 -0.9637034,0.2669752"/><polygon class="triangle siva" data-name="P9-3" points="0,-0.803024 0.5335077,0.2669752 -0.5335077,0.2669752"/><polygon class="triangle siva" data-name="P7-5" points="0,-0.3074311 0.2426758,0.2669752 -0.2426758,0.2669752"/><polygon class="triangle siva" data-name="P8-10" points="0,-0.5164662 0.3150923,0.120568 -0.3150923,0.120568"/><circle class="foot" data-pt="20" cx="0.2450018" cy="-0.0211367" r="0.012"/><circle class="foot" data-pt="20" cx="-0.2450018" cy="-0.0211367" r="0.012"/><circle class="foot" data-pt="21" cx="0.3875088" cy="-0.0258392" r="0.012"/><circle class="foot" data-pt="21" cx="-0.3875088" cy="-0.0258392" r="0.012"/><circle class="bindu" cx="0" cy="0" r="0.016"/></svg>