<svg xmlns="http://www.w3.org/2000/svg" viewBox="-1.08 -1.08 2.16 2.16" data-figure-id="086" data-engine-commit="75aed90"><style>.circumcircle{fill:none;stroke:var(--circle,#999);stroke-width:.006}.axis{stroke:var(--axis,#ccc);stroke-width:.004;stroke-dasharray:.03 .03}.triangle{fill:none;stroke-width:.008;stroke-linejoin:round}.triangle.sakti{stroke:var(--sakti,#1b1b1b)}.triangle.siva{stroke:var(--siva,#1b1b1b)}.foot{fill:var(--foot,crimson)}.bindu{fill:var(--bindu,#000)}</style><circle class="circumcircle" cx="0" cy="0" r="1"/><line class="axis" x1="0" y1="-1" x2="0" y2="1"/><polygon class="triangle sakti" data-name="P0-2" points="0,1 0.958443,-0.285284 -0.958443,-0.285284"/><polygon class="triangle sakti" data-name="P1-4" points="0,0.7381657 0.5345082,-0.285284 -0.5345082,-0.285284"/><polygon class="triangle sakti" data-name="P4-6" points="0,0.1111223 0.2288653,-0.285284 -0.2288653,-0.285284"/><polygon class="triangle sakti" data-name="P2-13" points="0,0.5376809 0.2820018,-0.1866925 -0.2820018,-0.1866925"/><polygon class="triangle sakti" data-name="P3-14" points="0,0.2826301 0.2404282,-0.0555611 -0.2404282,-0.0555611"/><polygon class="triangle siva" data-name="P10-1" points="0,-1 0.959229,0.2826301 -0.959229,0.2826301"/><polygon class="triangle siva" data-name="P9-3" points="0,-0.7099286 0.5349466,0.2826301 -0.5349466,0.2826301"/><polygon class="triangle siva" data-name="P7-5" points="0,-0.285284 0.2379087,0.2826301 -0.2379087,0.2826301"/><polygon class="triangle siva" data-name="P8-10" points="0,-0.5159211 0.3274806,0.1111223 -0.3274806,0.1111223"/><circle class="foot" data-pt="20" cx="0.2349989" cy="-0.0659569" r="0.012"/><circle class="foot" data-pt="20" cx="-0.2349989" cy="-0.0659569" r="0.012"/><circle class="foot" data-pt="21" cx="0.384091" cy="0.0027274" r="0.012"/><circle class="foot" data-pt="21" cx="-0.384091" cy="0.0027274" r="0.012"/><circle class="bindu" cx="0" cy="0" r="0.016"/></svg>