<svg xmlns="http://www.w3.org/2000/svg" viewBox="-1.08 -1.08 2.16 2.16" data-figure-id="087" data-engine-commit="75aed90"><style>.circumcircle{fill:none;stroke:var(--circle,#999);stroke-width:.006}.axis{stroke:var(--axis,#ccc);stroke-width:.004;stroke-dasharray:.03 .03}.triangle{fill:none;stroke-width:.008;stroke-linejoin:round}.triangle.sakti{stroke:var(--sakti,#1b1b1b)}.triangle.siva{stroke:var(--siva,#1b1b1b)}.foot{fill:var(--foot,crimson)}.bindu{fill:var(--bindu,#000)}</style><circle class="circumcircle" cx="0" cy="0" r="1"/><line class="axis" x1="0" y1="-1" x2="0" y2="1"/><polygon class="triangle sakti" data-name="P0-2" points="0,1 0.9595026,-0.2816996 -0.9595026,-0.2816996"/><polygon class="triangle sakti" data-name="P1-4" points="0,0.7348149 0.5356379,-0.2816996 -0.5356379,-0.2816996"/><polygon class="triangle sakti" data-name="P4-6" points="0,0.1094846 0.2258503,-0.2816996 -0.2258503,-0.2816996"/><polygon class="triangle sakti" data-name="P2-13" points="0,0.5409267 0.2764532,-0.1889064 -0.2764532,-0.1889064"/><polygon class="triangle sakti" data-name="P3-14" points="0,0.2852883 0.2429719,-0.0547423 -0.2429719,-0.0547423"/><polygon class="triangle siva" data-name="P10-1" points="0,-1 0.9584418,0.2852883 -0.9584418,0.2852883"/><polygon class="triangle siva" data-name="P9-3" points="0,-0.6958533 0.5350456,0.2852883 -0.5350456,0.2852883"/><polygon class="triangle siva" data-name="P7-5" points="0,-0.2816996 0.2368717,0.2852883 -0.2368717,0.2852883"/><polygon class="triangle siva" data-name="P8-10" points="0,-0.5158458 0.3295089,0.1094846 -0.3295089,0.1094846"/><circle class="foot" data-pt="20" cx="0.2328846" cy="-0.0738857" r="0.012"/><circle class="foot" data-pt="20" cx="-0.2328846" cy="-0.0738857" r="0.012"/><circle class="foot" data-pt="21" cx="0.3834012" cy="0.0072098" r="0.012"/><circle class="foot" data-pt="21" cx="-0.3834012" cy="0.0072098" r="0.012"/><circle class="bindu" cx="0" cy="0" r="0.016"/></svg>