<svg xmlns="http://www.w3.org/2000/svg" viewBox="-1.08 -1.08 2.16 2.16" data-figure-id="088" data-engine-commit="75aed90"><style>.circumcircle{fill:none;stroke:var(--circle,#999);stroke-width:.006}.axis{stroke:var(--axis,#ccc);stroke-width:.004;stroke-dasharray:.03 .03}.triangle{fill:none;stroke-width:.008;stroke-linejoin:round}.triangle.sakti{stroke:var(--sakti,#1b1b1b)}.triangle.siva{stroke:var(--siva,#1b1b1b)}.foot{fill:var(--foot,crimson)}.bindu{fill:var(--bindu,#000)}</style><circle class="circumcircle" cx="0" cy="0" r="1"/><line class="axis" x1="0" y1="-1" x2="0" y2="1"/><polygon class="triangle sakti" data-name="P0-2" points="0,1 0.9575065,-0.2884117 -0.9575065,-0.2884117"/><polygon class="triangle sakti" data-name="P1-4" points="0,0.7410403 0.5334931,-0.2884117 -0.5334931,-0.2884117"/><polygon class="triangle sakti" data-name="P4-6" points="0,0.1125255 0.2314812,-0.2884117 -0.2314812,-0.2884117"/><polygon class="triangle sakti" data-name="P2-13" points="0,0.5349372 0.2867566,-0.1847739 -0.2867566,-0.1847739"/><polygon class="triangle sakti" data-name="P3-14" points="0,0.2803422 0.2382442,-0.0562627 -0.2382442,-0.0562627"/><polygon class="triangle siva" data-name="P10-1" points="0,-1 0.9599001,0.2803422 -0.9599001,0.2803422"/><polygon class="triangle siva" data-name="P9-3" points="0,-0.7224244 0.5348268,0.2803422 -0.5348268,0.2803422"/><polygon class="triangle siva" data-name="P7-5" points="0,-0.2884117 0.2387477,0.2803422 -0.2387477,0.2803422"/><polygon class="triangle siva" data-name="P8-10" points="0,-0.5159894 0.3257153,0.1125255 -0.3257153,0.1125255"/><circle class="foot" data-pt="20" cx="0.236723" cy="-0.0591981" r="0.012"/><circle class="foot" data-pt="20" cx="-0.236723" cy="-0.0591981" r="0.012"/><circle class="foot" data-pt="21" cx="0.3846585" cy="-0.0012139" r="0.012"/><circle class="foot" data-pt="21" cx="-0.3846585" cy="-0.0012139" r="0.012"/><circle class="bindu" cx="0" cy="0" r="0.016"/></svg>