<svg xmlns="http://www.w3.org/2000/svg" viewBox="-1.08 -1.08 2.16 2.16" data-figure-id="089" data-engine-commit="75aed90"><style>.circumcircle{fill:none;stroke:var(--circle,#999);stroke-width:.006}.axis{stroke:var(--axis,#ccc);stroke-width:.004;stroke-dasharray:.03 .03}.triangle{fill:none;stroke-width:.008;stroke-linejoin:round}.triangle.sakti{stroke:var(--sakti,#1b1b1b)}.triangle.siva{stroke:var(--siva,#1b1b1b)}.foot{fill:var(--foot,crimson)}.bindu{fill:var(--bindu,#000)}</style><circle class="circumcircle" cx="0" cy="0" r="1"/><line class="axis" x1="0" y1="-1" x2="0" y2="1"/><polygon class="triangle sakti" data-name="P0-2" points="0,1 0.9588961,-0.2837573 -0.9588961,-0.2837573"/><polygon class="triangle sakti" data-name="P1-4" points="0,0.7367461 0.5349939,-0.2837573 -0.5349939,-0.2837573"/><polygon class="triangle sakti" data-name="P4-6" points="0,0.1104287 0.2275834,-0.2837573 -0.2275834,-0.2837573"/><polygon class="triangle sakti" data-name="P2-13" points="0,0.5390498 0.2796517,-0.1876334 -0.2796517,-0.1876334"/><polygon class="triangle sakti" data-name="P3-14" points="0,0.2837573 0.2415062,-0.0552143 -0.2415062,-0.0552143"/><polygon class="triangle siva" data-name="P10-1" points="0,-1 0.9588961,0.2837573 -0.9588961,0.2837573"/><polygon class="triangle siva" data-name="P9-3" points="0,-0.7039022 0.5349939,0.2837573 -0.5349939,0.2837573"/><polygon class="triangle siva" data-name="P7-5" points="0,-0.2837573 0.2374771,0.2837573 -0.2374771,0.2837573"/><polygon class="triangle siva" data-name="P8-10" points="0,-0.5158887 0.3283438,0.1104287 -0.3283438,0.1104287"/><circle class="foot" data-pt="20" cx="0.2341168" cy="-0.0693097" r="0.012"/><circle class="foot" data-pt="20" cx="-0.2341168" cy="-0.0693097" r="0.012"/><circle class="foot" data-pt="21" cx="0.3838025" cy="0.0046409" r="0.012"/><circle class="foot" data-pt="21" cx="-0.3838025" cy="0.0046409" r="0.012"/><circle class="bindu" cx="0" cy="0" r="0.016"/></svg>