<svg xmlns="http://www.w3.org/2000/svg" viewBox="-1.08 -1.08 2.16 2.16" data-figure-id="090" data-engine-commit="75aed90"><style>.circumcircle{fill:none;stroke:var(--circle,#999);stroke-width:.006}.axis{stroke:var(--axis,#ccc);stroke-width:.004;stroke-dasharray:.03 .03}.triangle{fill:none;stroke-width:.008;stroke-linejoin:round}.triangle.sakti{stroke:var(--sakti,#1b1b1b)}.triangle.siva{stroke:var(--siva,#1b1b1b)}.foot{fill:var(--foot,crimson)}.bindu{fill:var(--bindu,#000)}</style><circle class="circumcircle" cx="0" cy="0" r="1"/><line class="axis" x1="0" y1="-1" x2="0" y2="1"/><polygon class="triangle sakti" data-name="P0-2" points="0,1 0.9468651,-0.321631 -0.9468651,-0.321631"/><polygon class="triangle sakti" data-name="P1-4" points="0,0.6781342 0.5363744,-0.321631 -0.5363744,-0.321631"/><polygon class="triangle sakti" data-name="P4-6" points="0,0.1290594 0.2602062,-0.321631 -0.2602062,-0.321631"/><polygon class="triangle sakti" data-name="P2-13" points="0,0.5008981 0.346804,-0.1572819 -0.346804,-0.1572819"/><polygon class="triangle sakti" data-name="P3-14" points="0,0.2306339 0.2071892,-0.0645297 -0.2071892,-0.0645297"/><polygon class="triangle siva" data-name="P10-1" points="0,-1 0.9730406,0.2306339 -0.9730406,0.2306339"/><polygon class="triangle siva" data-name="P9-3" points="0,-0.8154618 0.5512022,0.2306339 -0.5512022,0.2306339"/><polygon class="triangle siva" data-name="P7-5" points="0,-0.321631 0.240084,0.2306339 -0.240084,0.2306339"/><polygon class="triangle siva" data-name="P8-10" points="0,-0.5235035 0.2945789,0.1290594 -0.2945789,0.1290594"/><circle class="foot" data-pt="20" cx="0.2490592" cy="0.0282225" r="0.012"/><circle class="foot" data-pt="20" cx="-0.2490592" cy="0.0282225" r="0.012"/><circle class="foot" data-pt="21" cx="0.3970455" cy="-0.0619314" r="0.012"/><circle class="foot" data-pt="21" cx="-0.3970455" cy="-0.0619314" r="0.012"/><circle class="bindu" cx="0" cy="0" r="0.016"/></svg>