<svg xmlns="http://www.w3.org/2000/svg" viewBox="-1.08 -1.08 2.16 2.16" data-figure-id="091" data-engine-commit="75aed90"><style>.circumcircle{fill:none;stroke:var(--circle,#999);stroke-width:.006}.axis{stroke:var(--axis,#ccc);stroke-width:.004;stroke-dasharray:.03 .03}.triangle{fill:none;stroke-width:.008;stroke-linejoin:round}.triangle.sakti{stroke:var(--sakti,#1b1b1b)}.triangle.siva{stroke:var(--siva,#1b1b1b)}.foot{fill:var(--foot,crimson)}.bindu{fill:var(--bindu,#000)}</style><circle class="circumcircle" cx="0" cy="0" r="1"/><line class="axis" x1="0" y1="-1" x2="0" y2="1"/><polygon class="triangle sakti" data-name="P0-2" points="0,1 0.9491228,-0.3149062 -0.9491228,-0.3149062"/><polygon class="triangle sakti" data-name="P1-4" points="0,0.8056011 0.5175761,-0.3149062 -0.5175761,-0.3149062"/><polygon class="triangle sakti" data-name="P4-6" points="0,0.1224558 0.2525111,-0.3149062 -0.2525111,-0.3149062"/><polygon class="triangle sakti" data-name="P2-13" points="0,0.5177552 0.3188217,-0.1715416 -0.3188217,-0.1715416"/><polygon class="triangle sakti" data-name="P3-14" points="0,0.2732746 0.2244517,-0.0612279 -0.2244517,-0.0612279"/><polygon class="triangle siva" data-name="P10-1" points="0,-1 0.9619361,0.2732746 -0.9619361,0.2732746"/><polygon class="triangle siva" data-name="P9-3" points="0,-0.8608385 0.5245634,0.2732746 -0.5245634,0.2732746"/><polygon class="triangle siva" data-name="P7-5" points="0,-0.3149062 0.2458881,0.2732746 -0.2458881,0.2732746"/><polygon class="triangle siva" data-name="P8-10" points="0,-0.5137797 0.3155532,0.1224558 -0.3155532,0.1224558"/><circle class="foot" data-pt="20" cx="0.246881" cy="-0.0160048" r="0.012"/><circle class="foot" data-pt="20" cx="-0.246881" cy="-0.0160048" r="0.012"/><circle class="foot" data-pt="21" cx="0.3851324" cy="-0.0281771" r="0.012"/><circle class="foot" data-pt="21" cx="-0.3851324" cy="-0.0281771" r="0.012"/><circle class="bindu" cx="0" cy="0" r="0.016"/></svg>