<svg xmlns="http://www.w3.org/2000/svg" viewBox="-1.08 -1.08 2.16 2.16" data-figure-id="092" data-engine-commit="75aed90"><style>.circumcircle{fill:none;stroke:var(--circle,#999);stroke-width:.006}.axis{stroke:var(--axis,#ccc);stroke-width:.004;stroke-dasharray:.03 .03}.triangle{fill:none;stroke-width:.008;stroke-linejoin:round}.triangle.sakti{stroke:var(--sakti,#1b1b1b)}.triangle.siva{stroke:var(--siva,#1b1b1b)}.foot{fill:var(--foot,crimson)}.bindu{fill:var(--bindu,#000)}</style><circle class="circumcircle" cx="0" cy="0" r="1"/><line class="axis" x1="0" y1="-1" x2="0" y2="1"/><polygon class="triangle sakti" data-name="P0-2" points="0,1 0.9491173,-0.3149227 -0.9491173,-0.3149227"/><polygon class="triangle sakti" data-name="P1-4" points="0,0.8053312 0.5176115,-0.3149227 -0.5176115,-0.3149227"/><polygon class="triangle sakti" data-name="P4-6" points="0,0.1224688 0.2525281,-0.3149227 -0.2525281,-0.3149227"/><polygon class="triangle sakti" data-name="P2-13" points="0,0.5177233 0.3188743,-0.1715168 -0.3188743,-0.1715168"/><polygon class="triangle sakti" data-name="P3-14" points="0,0.2731889 0.22442,-0.0612344 -0.22442,-0.0612344"/><polygon class="triangle siva" data-name="P10-1" points="0,-1 0.9619604,0.2731889 -0.9619604,0.2731889"/><polygon class="triangle siva" data-name="P9-3" points="0,-0.860757 0.5246156,0.2731889 -0.5246156,0.2731889"/><polygon class="triangle siva" data-name="P7-5" points="0,-0.3149227 0.2458755,0.2731889 -0.2458755,0.2731889"/><polygon class="triangle siva" data-name="P8-10" points="0,-0.5137996 0.3155155,0.1224688 -0.3155155,0.1224688"/><circle class="foot" data-pt="20" cx="0.2468893" cy="-0.0159228" r="0.012"/><circle class="foot" data-pt="20" cx="-0.2468893" cy="-0.0159228" r="0.012"/><circle class="foot" data-pt="21" cx="0.3851555" cy="-0.0282514" r="0.012"/><circle class="foot" data-pt="21" cx="-0.3851555" cy="-0.0282514" r="0.012"/><circle class="bindu" cx="0" cy="0" r="0.016"/></svg>