<svg xmlns="http://www.w3.org/2000/svg" viewBox="-1.08 -1.08 2.16 2.16" data-figure-id="093" data-engine-commit="75aed90"><style>.circumcircle{fill:none;stroke:var(--circle,#999);stroke-width:.006}.axis{stroke:var(--axis,#ccc);stroke-width:.004;stroke-dasharray:.03 .03}.triangle{fill:none;stroke-width:.008;stroke-linejoin:round}.triangle.sakti{stroke:var(--sakti,#1b1b1b)}.triangle.siva{stroke:var(--siva,#1b1b1b)}.foot{fill:var(--foot,crimson)}.bindu{fill:var(--bindu,#000)}</style><circle class="circumcircle" cx="0" cy="0" r="1"/><line class="axis" x1="0" y1="-1" x2="0" y2="1"/><polygon class="triangle sakti" data-name="P0-2" points="0,1 0.9474676,-0.3198517 -0.9474676,-0.3198517"/><polygon class="triangle sakti" data-name="P1-4" points="0,0.7172228 0.5301221,-0.3198517 -0.5301221,-0.3198517"/><polygon class="triangle sakti" data-name="P4-6" points="0,0.1269255 0.2579469,-0.3198517 -0.2579469,-0.3198517"/><polygon class="triangle sakti" data-name="P2-13" points="0,0.5064868 0.3374787,-0.1622533 -0.3374787,-0.1622533"/><polygon class="triangle sakti" data-name="P3-14" points="0,0.2441698 0.2130034,-0.0634627 -0.2130034,-0.0634627"/><polygon class="triangle siva" data-name="P10-1" points="0,-1 0.9697325,0.2441698 -0.9697325,0.2441698"/><polygon class="triangle siva" data-name="P9-3" points="0,-0.8309934 0.5425796,0.2441698 -0.5425796,0.2441698"/><polygon class="triangle siva" data-name="P7-5" points="0,-0.3198517 0.2418108,0.2441698 -0.2418108,0.2441698"/><polygon class="triangle siva" data-name="P8-10" points="0,-0.5204567 0.3017427,0.1269255 -0.3017427,0.1269255"/><circle class="foot" data-pt="20" cx="0.2488321" cy="0.0134069" r="0.012"/><circle class="foot" data-pt="20" cx="-0.2488321" cy="0.0134069" r="0.012"/><circle class="foot" data-pt="21" cx="0.3931608" cy="-0.0519151" r="0.012"/><circle class="foot" data-pt="21" cx="-0.3931608" cy="-0.0519151" r="0.012"/><circle class="bindu" cx="0" cy="0" r="0.016"/></svg>