<svg xmlns="http://www.w3.org/2000/svg" viewBox="-1.08 -1.08 2.16 2.16" data-figure-id="094" data-engine-commit="75aed90"><style>.circumcircle{fill:none;stroke:var(--circle,#999);stroke-width:.006}.axis{stroke:var(--axis,#ccc);stroke-width:.004;stroke-dasharray:.03 .03}.triangle{fill:none;stroke-width:.008;stroke-linejoin:round}.triangle.sakti{stroke:var(--sakti,#1b1b1b)}.triangle.siva{stroke:var(--siva,#1b1b1b)}.foot{fill:var(--foot,crimson)}.bindu{fill:var(--bindu,#000)}</style><circle class="circumcircle" cx="0" cy="0" r="1"/><line class="axis" x1="0" y1="-1" x2="0" y2="1"/><polygon class="triangle sakti" data-name="P0-2" points="0,1 0.9512604,-0.3083887 -0.9512604,-0.3083887"/><polygon class="triangle sakti" data-name="P1-4" points="0,0.5977079 0.555972,-0.3083887 -0.555972,-0.3083887"/><polygon class="triangle sakti" data-name="P4-6" points="0,0.126941 0.2513377,-0.3083887 -0.2513377,-0.3083887"/><polygon class="triangle sakti" data-name="P2-13" points="0,0.5005694 0.3438348,-0.1568759 -0.3438348,-0.1568759"/><polygon class="triangle sakti" data-name="P3-14" points="0,0.2149032 0.2049986,-0.0634705 -0.2049986,-0.0634705"/><polygon class="triangle siva" data-name="P10-1" points="0,-1 0.9766354,0.2149032 -0.9766354,0.2149032"/><polygon class="triangle siva" data-name="P9-3" points="0,-0.7200865 0.5708025,0.2149032 -0.5708025,0.2149032"/><polygon class="triangle siva" data-name="P7-5" points="0,-0.3083887 0.2348852,0.2149032 -0.2348852,0.2149032"/><polygon class="triangle siva" data-name="P8-10" points="0,-0.5289416 0.2888579,0.126941 -0.2888579,0.126941"/><circle class="foot" data-pt="20" cx="0.2461354" cy="0.0299349" r="0.012"/><circle class="foot" data-pt="20" cx="-0.2461354" cy="0.0299349" r="0.012"/><circle class="foot" data-pt="21" cx="0.4032692" cy="-0.0595209" r="0.012"/><circle class="foot" data-pt="21" cx="-0.4032692" cy="-0.0595209" r="0.012"/><circle class="bindu" cx="0" cy="0" r="0.016"/></svg>