<svg xmlns="http://www.w3.org/2000/svg" viewBox="-1.08 -1.08 2.16 2.16" data-figure-id="095" data-engine-commit="75aed90"><style>.circumcircle{fill:none;stroke:var(--circle,#999);stroke-width:.006}.axis{stroke:var(--axis,#ccc);stroke-width:.004;stroke-dasharray:.03 .03}.triangle{fill:none;stroke-width:.008;stroke-linejoin:round}.triangle.sakti{stroke:var(--sakti,#1b1b1b)}.triangle.siva{stroke:var(--siva,#1b1b1b)}.foot{fill:var(--foot,crimson)}.bindu{fill:var(--bindu,#000)}</style><circle class="circumcircle" cx="0" cy="0" r="1"/><line class="axis" x1="0" y1="-1" x2="0" y2="1"/><polygon class="triangle sakti" data-name="P0-2" points="0,1 0.9451596,-0.326609 -0.9451596,-0.326609"/><polygon class="triangle sakti" data-name="P1-4" points="0,0.7123895 0.5289085,-0.326609 -0.5289085,-0.326609"/><polygon class="triangle sakti" data-name="P4-6" points="0,0.1297956 0.2635053,-0.326609 -0.2635053,-0.326609"/><polygon class="triangle sakti" data-name="P2-13" points="0,0.5010497 0.347649,-0.1573566 -0.347649,-0.1573566"/><polygon class="triangle sakti" data-name="P3-14" points="0,0.2369222 0.2078985,-0.0648978 -0.2078985,-0.0648978"/><polygon class="triangle siva" data-name="P10-1" points="0,-1 0.9715286,0.2369222 -0.9715286,0.2369222"/><polygon class="triangle siva" data-name="P9-3" points="0,-0.8566413 0.5436645,0.2369222 -0.5436645,0.2369222"/><polygon class="triangle siva" data-name="P7-5" points="0,-0.326609 0.2420395,0.2369222 -0.2420395,0.2369222"/><polygon class="triangle siva" data-name="P8-10" points="0,-0.5213588 0.296573,0.1297956 -0.296573,0.1297956"/><circle class="foot" data-pt="20" cx="0.2500095" cy="0.0275611" r="0.012"/><circle class="foot" data-pt="20" cx="-0.2500095" cy="0.0275611" r="0.012"/><circle class="foot" data-pt="21" cx="0.3946366" cy="-0.0628426" r="0.012"/><circle class="foot" data-pt="21" cx="-0.3946366" cy="-0.0628426" r="0.012"/><circle class="bindu" cx="0" cy="0" r="0.016"/></svg>