<svg xmlns="http://www.w3.org/2000/svg" viewBox="-1.08 -1.08 2.16 2.16" data-figure-id="096" data-engine-commit="75aed90"><style>.circumcircle{fill:none;stroke:var(--circle,#999);stroke-width:.006}.axis{stroke:var(--axis,#ccc);stroke-width:.004;stroke-dasharray:.03 .03}.triangle{fill:none;stroke-width:.008;stroke-linejoin:round}.triangle.sakti{stroke:var(--sakti,#1b1b1b)}.triangle.siva{stroke:var(--siva,#1b1b1b)}.foot{fill:var(--foot,crimson)}.bindu{fill:var(--bindu,#000)}</style><circle class="circumcircle" cx="0" cy="0" r="1"/><line class="axis" x1="0" y1="-1" x2="0" y2="1"/><polygon class="triangle sakti" data-name="P0-2" points="0,1 0.9491427,-0.3148461 -0.9491427,-0.3148461"/><polygon class="triangle sakti" data-name="P1-4" points="0,0.8048267 0.5177052,-0.3148461 -0.5177052,-0.3148461"/><polygon class="triangle sakti" data-name="P4-6" points="0,0.1224499 0.2524729,-0.3148461 -0.2524729,-0.3148461"/><polygon class="triangle sakti" data-name="P2-13" points="0,0.5177437 0.3188264,-0.1715357 -0.3188264,-0.1715357"/><polygon class="triangle sakti" data-name="P3-14" points="0,0.273125 0.2244326,-0.0612249 -0.2244326,-0.0612249"/><polygon class="triangle siva" data-name="P10-1" points="0,-1 0.9619786,0.273125 -0.9619786,0.273125"/><polygon class="triangle siva" data-name="P9-3" points="0,-0.8601382 0.5247064,0.273125 -0.5247064,0.273125"/><polygon class="triangle siva" data-name="P7-5" points="0,-0.3148461 0.2458439,0.273125 -0.2458439,0.273125"/><polygon class="triangle siva" data-name="P8-10" points="0,-0.5138268 0.3155118,0.1224499 -0.3155118,0.1224499"/><circle class="foot" data-pt="20" cx="0.2468713" cy="-0.0159741" r="0.012"/><circle class="foot" data-pt="20" cx="-0.2468713" cy="-0.0159741" r="0.012"/><circle class="foot" data-pt="21" cx="0.3851798" cy="-0.0282252" r="0.012"/><circle class="foot" data-pt="21" cx="-0.3851798" cy="-0.0282252" r="0.012"/><circle class="bindu" cx="0" cy="0" r="0.016"/></svg>