<svg xmlns="http://www.w3.org/2000/svg" viewBox="-1.08 -1.08 2.16 2.16" data-figure-id="097" data-engine-commit="75aed90"><style>.circumcircle{fill:none;stroke:var(--circle,#999);stroke-width:.006}.axis{stroke:var(--axis,#ccc);stroke-width:.004;stroke-dasharray:.03 .03}.triangle{fill:none;stroke-width:.008;stroke-linejoin:round}.triangle.sakti{stroke:var(--sakti,#1b1b1b)}.triangle.siva{stroke:var(--siva,#1b1b1b)}.foot{fill:var(--foot,crimson)}.bindu{fill:var(--bindu,#000)}</style><circle class="circumcircle" cx="0" cy="0" r="1"/><line class="axis" x1="0" y1="-1" x2="0" y2="1"/><polygon class="triangle sakti" data-name="P0-2" points="0,1 0.9540304,-0.2997098 -0.9540304,-0.2997098"/><polygon class="triangle sakti" data-name="P1-4" points="0,0.6411319 0.5493957,-0.2997098 -0.5493957,-0.2997098"/><polygon class="triangle sakti" data-name="P4-6" points="0,0.1209311 0.2428571,-0.2997098 -0.2428571,-0.2997098"/><polygon class="triangle sakti" data-name="P2-13" points="0,0.5144591 0.3197905,-0.1689843 -0.3197905,-0.1689843"/><polygon class="triangle sakti" data-name="P3-14" points="0,0.2380216 0.2184327,-0.0604655 -0.2184327,-0.0604655"/><polygon class="triangle siva" data-name="P10-1" points="0,-1 0.9712599,0.2380216 -0.9712599,0.2380216"/><polygon class="triangle siva" data-name="P9-3" points="0,-0.7123741 0.5593176,0.2380216 -0.5593176,0.2380216"/><polygon class="triangle siva" data-name="P7-5" points="0,-0.2997098 0.2353925,0.2380216 -0.2353925,0.2380216"/><polygon class="triangle siva" data-name="P8-10" points="0,-0.5247953 0.3037664,0.1209311 -0.3037664,0.1209311"/><circle class="foot" data-pt="20" cx="0.2437908" cy="-0.0065609" r="0.012"/><circle class="foot" data-pt="20" cx="-0.2437908" cy="-0.0065609" r="0.012"/><circle class="foot" data-pt="21" cx="0.3967238" cy="-0.0382587" r="0.012"/><circle class="foot" data-pt="21" cx="-0.3967238" cy="-0.0382587" r="0.012"/><circle class="bindu" cx="0" cy="0" r="0.016"/></svg>