<svg xmlns="http://www.w3.org/2000/svg" viewBox="-1.08 -1.08 2.16 2.16" data-figure-id="098" data-engine-commit="75aed90"><style>.circumcircle{fill:none;stroke:var(--circle,#999);stroke-width:.006}.axis{stroke:var(--axis,#ccc);stroke-width:.004;stroke-dasharray:.03 .03}.triangle{fill:none;stroke-width:.008;stroke-linejoin:round}.triangle.sakti{stroke:var(--sakti,#1b1b1b)}.triangle.siva{stroke:var(--siva,#1b1b1b)}.foot{fill:var(--foot,crimson)}.bindu{fill:var(--bindu,#000)}</style><circle class="circumcircle" cx="0" cy="0" r="1"/><line class="axis" x1="0" y1="-1" x2="0" y2="1"/><polygon class="triangle sakti" data-name="P0-2" points="0,1 0.9513217,-0.3081996 -0.9513217,-0.3081996"/><polygon class="triangle sakti" data-name="P1-4" points="0,0.7257811 0.531832,-0.3081996 -0.531832,-0.3081996"/><polygon class="triangle sakti" data-name="P4-6" points="0,0.1217899 0.2482546,-0.3081996 -0.2482546,-0.3081996"/><polygon class="triangle sakti" data-name="P2-13" points="0,0.5163909 0.3193014,-0.1706642 -0.3193014,-0.1706642"/><polygon class="triangle sakti" data-name="P3-14" points="0,0.2570712 0.2220777,-0.0608949 -0.2220777,-0.0608949"/><polygon class="triangle siva" data-name="P10-1" points="0,-1 0.9663925,0.2570712 -0.9663925,0.2570712"/><polygon class="triangle siva" data-name="P9-3" points="0,-0.7887812 0.5402572,0.2570712 -0.5402572,0.2570712"/><polygon class="triangle siva" data-name="P7-5" points="0,-0.3081996 0.2410827,0.2570712 -0.2410827,0.2570712"/><polygon class="triangle siva" data-name="P8-10" points="0,-0.5188632 0.3106652,0.1217899 -0.3106652,0.1217899"/><circle class="foot" data-pt="20" cx="0.2456735" cy="-0.0122358" r="0.012"/><circle class="foot" data-pt="20" cx="-0.2456735" cy="-0.0122358" r="0.012"/><circle class="foot" data-pt="21" cx="0.3903482" cy="-0.0331288" r="0.012"/><circle class="foot" data-pt="21" cx="-0.3903482" cy="-0.0331288" r="0.012"/><circle class="bindu" cx="0" cy="0" r="0.016"/></svg>