<svg xmlns="http://www.w3.org/2000/svg" viewBox="-1.08 -1.08 2.16 2.16" data-figure-id="101" data-engine-commit="75aed90"><style>.circumcircle{fill:none;stroke:var(--circle,#999);stroke-width:.006}.axis{stroke:var(--axis,#ccc);stroke-width:.004;stroke-dasharray:.03 .03}.triangle{fill:none;stroke-width:.008;stroke-linejoin:round}.triangle.sakti{stroke:var(--sakti,#1b1b1b)}.triangle.siva{stroke:var(--siva,#1b1b1b)}.foot{fill:var(--foot,crimson)}.bindu{fill:var(--bindu,#000)}</style><circle class="circumcircle" cx="0" cy="0" r="1"/><line class="axis" x1="0" y1="-1" x2="0" y2="1"/><polygon class="triangle sakti" data-name="P0-2" points="0,1 0.9589481,-0.2835815 -0.9589481,-0.2835815"/><polygon class="triangle sakti" data-name="P1-4" points="0,0.7247808 0.5370874,-0.2835815 -0.5370874,-0.2835815"/><polygon class="triangle sakti" data-name="P4-6" points="0,0.1106254 0.2275955,-0.2835815 -0.2275955,-0.2835815"/><polygon class="triangle sakti" data-name="P2-13" points="0,0.5382887 0.28063,-0.1871035 -0.28063,-0.1871035"/><polygon class="triangle sakti" data-name="P3-14" points="0,0.2803884 0.2406051,-0.0553127 -0.2406051,-0.0553127"/><polygon class="triangle siva" data-name="P10-1" points="0,-1 0.9598866,0.2803884 -0.9598866,0.2803884"/><polygon class="triangle siva" data-name="P9-3" points="0,-0.697613 0.537613,0.2803884 -0.537613,0.2803884"/><polygon class="triangle siva" data-name="P7-5" points="0,-0.2835815 0.2366982,0.2803884 -0.2366982,0.2803884"/><polygon class="triangle siva" data-name="P8-10" points="0,-0.5168023 0.3271196,0.1106254 -0.3271196,0.1106254"/><circle class="foot" data-pt="20" cx="0.2343133" cy="-0.0673807" r="0.012"/><circle class="foot" data-pt="20" cx="-0.2343133" cy="-0.0673807" r="0.012"/><circle class="foot" data-pt="21" cx="0.3847824" cy="0.0023657" r="0.012"/><circle class="foot" data-pt="21" cx="-0.3847824" cy="0.0023657" r="0.012"/><circle class="bindu" cx="0" cy="0" r="0.016"/></svg>