<svg xmlns="http://www.w3.org/2000/svg" viewBox="-1.08 -1.08 2.16 2.16" data-figure-id="102" data-engine-commit="75aed90"><style>.circumcircle{fill:none;stroke:var(--circle,#999);stroke-width:.006}.axis{stroke:var(--axis,#ccc);stroke-width:.004;stroke-dasharray:.03 .03}.triangle{fill:none;stroke-width:.008;stroke-linejoin:round}.triangle.sakti{stroke:var(--sakti,#1b1b1b)}.triangle.siva{stroke:var(--siva,#1b1b1b)}.foot{fill:var(--foot,crimson)}.bindu{fill:var(--bindu,#000)}</style><circle class="circumcircle" cx="0" cy="0" r="1"/><line class="axis" x1="0" y1="-1" x2="0" y2="1"/><polygon class="triangle sakti" data-name="P0-2" points="0,1 0.9582616,-0.2858927 -0.9582616,-0.2858927"/><polygon class="triangle sakti" data-name="P1-4" points="0,0.7430538 0.5335806,-0.2858927 -0.5335806,-0.2858927"/><polygon class="triangle sakti" data-name="P4-6" points="0,0.1112974 0.2293178,-0.2858927 -0.2293178,-0.2858927"/><polygon class="triangle sakti" data-name="P2-13" points="0,0.5374705 0.2824806,-0.1865468 -0.2824806,-0.1865468"/><polygon class="triangle sakti" data-name="P3-14" points="0,0.283444 0.240366,-0.0556487 -0.240366,-0.0556487"/><polygon class="triangle siva" data-name="P10-1" points="0,-1 0.9589888,0.283444 -0.9589888,0.283444"/><polygon class="triangle siva" data-name="P9-3" points="0,-0.7144222 0.5339855,0.283444 -0.5339855,0.283444"/><polygon class="triangle siva" data-name="P7-5" points="0,-0.2858927 0.2383398,0.283444 -0.2383398,0.283444"/><polygon class="triangle siva" data-name="P8-10" points="0,-0.5156031 0.3276098,0.1112974 -0.3276098,0.1112974"/><circle class="foot" data-pt="20" cx="0.2352381" cy="-0.0654611" r="0.012"/><circle class="foot" data-pt="20" cx="-0.2352381" cy="-0.0654611" r="0.012"/><circle class="foot" data-pt="21" cx="0.3838398" cy="0.0028646" r="0.012"/><circle class="foot" data-pt="21" cx="-0.3838398" cy="0.0028646" r="0.012"/><circle class="bindu" cx="0" cy="0" r="0.016"/></svg>