<svg xmlns="http://www.w3.org/2000/svg" viewBox="-1.08 -1.08 2.16 2.16" data-figure-id="103" data-engine-commit="75aed90"><style>.circumcircle{fill:none;stroke:var(--circle,#999);stroke-width:.006}.axis{stroke:var(--axis,#ccc);stroke-width:.004;stroke-dasharray:.03 .03}.triangle{fill:none;stroke-width:.008;stroke-linejoin:round}.triangle.sakti{stroke:var(--sakti,#1b1b1b)}.triangle.siva{stroke:var(--siva,#1b1b1b)}.foot{fill:var(--foot,crimson)}.bindu{fill:var(--bindu,#000)}</style><circle class="circumcircle" cx="0" cy="0" r="1"/><line class="axis" x1="0" y1="-1" x2="0" y2="1"/><polygon class="triangle sakti" data-name="P0-2" points="0,1 0.956401,-0.2920567 -0.956401,-0.2920567"/><polygon class="triangle sakti" data-name="P1-4" points="0,0.7958091 0.5240309,-0.2920567 -0.5240309,-0.2920567"/><polygon class="triangle sakti" data-name="P4-6" points="0,0.1129975 0.2338581,-0.2920567 -0.2338581,-0.2920567"/><polygon class="triangle sakti" data-name="P2-13" points="0,0.5355308 0.2869905,-0.185102 -0.2869905,-0.185102"/><polygon class="triangle sakti" data-name="P3-14" points="0,0.2920567 0.2397557,-0.0564987 -0.2397557,-0.0564987"/><polygon class="triangle siva" data-name="P10-1" points="0,-1 0.956401,0.2920567 -0.956401,0.2920567"/><polygon class="triangle siva" data-name="P9-3" points="0,-0.7628097 0.5240309,0.2920567 -0.5240309,0.2920567"/><polygon class="triangle siva" data-name="P7-5" points="0,-0.2920567 0.2426603,0.2920567 -0.2426603,0.2920567"/><polygon class="triangle siva" data-name="P8-10" points="0,-0.5122906 0.3289141,0.1129975 -0.3289141,0.1129975"/><circle class="foot" data-pt="20" cx="0.2374899" cy="-0.0608061" r="0.012"/><circle class="foot" data-pt="20" cx="-0.2374899" cy="-0.0608061" r="0.012"/><circle class="foot" data-pt="21" cx="0.3811789" cy="0.0044978" r="0.012"/><circle class="foot" data-pt="21" cx="-0.3811789" cy="0.0044978" r="0.012"/><circle class="bindu" cx="0" cy="0" r="0.016"/></svg>