<svg xmlns="http://www.w3.org/2000/svg" viewBox="-1.08 -1.08 2.16 2.16" data-figure-id="105" data-engine-commit="75aed90"><style>.circumcircle{fill:none;stroke:var(--circle,#999);stroke-width:.006}.axis{stroke:var(--axis,#ccc);stroke-width:.004;stroke-dasharray:.03 .03}.triangle{fill:none;stroke-width:.008;stroke-linejoin:round}.triangle.sakti{stroke:var(--sakti,#1b1b1b)}.triangle.siva{stroke:var(--siva,#1b1b1b)}.foot{fill:var(--foot,crimson)}.bindu{fill:var(--bindu,#000)}</style><circle class="circumcircle" cx="0" cy="0" r="1"/><line class="axis" x1="0" y1="-1" x2="0" y2="1"/><polygon class="triangle sakti" data-name="P0-2" points="0,1 0.9592096,-0.2826957 -0.9592096,-0.2826957"/><polygon class="triangle sakti" data-name="P1-4" points="0,0.7294961 0.5364056,-0.2826957 -0.5364056,-0.2826957"/><polygon class="triangle sakti" data-name="P4-6" points="0,0.110087 0.2267732,-0.2826957 -0.2267732,-0.2826957"/><polygon class="triangle sakti" data-name="P2-13" points="0,0.5395337 0.2786549,-0.1879593 -0.2786549,-0.1879593"/><polygon class="triangle sakti" data-name="P3-14" points="0,0.2826957 0.2417246,-0.0550435 -0.2417246,-0.0550435"/><polygon class="triangle siva" data-name="P10-1" points="0,-1 0.9592096,0.2826957 -0.9592096,0.2826957"/><polygon class="triangle siva" data-name="P9-3" points="0,-0.6967857 0.5364056,0.2826957 -0.5364056,0.2826957"/><polygon class="triangle siva" data-name="P7-5" points="0,-0.2826957 0.2367794,0.2826957 -0.2367794,0.2826957"/><polygon class="triangle siva" data-name="P8-10" points="0,-0.5163527 0.3282525,0.110087 -0.3282525,0.110087"/><circle class="foot" data-pt="20" cx="0.2336477" cy="-0.0704576" r="0.012"/><circle class="foot" data-pt="20" cx="-0.2336477" cy="-0.0704576" r="0.012"/><circle class="foot" data-pt="21" cx="0.384132" cy="0.0046429" r="0.012"/><circle class="foot" data-pt="21" cx="-0.384132" cy="0.0046429" r="0.012"/><circle class="bindu" cx="0" cy="0" r="0.016"/></svg>