<svg xmlns="http://www.w3.org/2000/svg" viewBox="-1.08 -1.08 2.16 2.16" data-figure-id="107" data-engine-commit="75aed90"><style>.circumcircle{fill:none;stroke:var(--circle,#999);stroke-width:.006}.axis{stroke:var(--axis,#ccc);stroke-width:.004;stroke-dasharray:.03 .03}.triangle{fill:none;stroke-width:.008;stroke-linejoin:round}.triangle.sakti{stroke:var(--sakti,#1b1b1b)}.triangle.siva{stroke:var(--siva,#1b1b1b)}.foot{fill:var(--foot,crimson)}.bindu{fill:var(--bindu,#000)}</style><circle class="circumcircle" cx="0" cy="0" r="1"/><line class="axis" x1="0" y1="-1" x2="0" y2="1"/><polygon class="triangle sakti" data-name="P0-2" points="0,1 0.960157,-0.2794612 -0.960157,-0.2794612"/><polygon class="triangle sakti" data-name="P1-4" points="0,0.8401203 0.5407201,-0.2794612 -0.5407201,-0.2794612"/><polygon class="triangle sakti" data-name="P4-6" points="0,0.1014105 0.2590399,-0.2794612 -0.2590399,-0.2794612"/><polygon class="triangle sakti" data-name="P2-13" points="0,0.4980534 0.3124245,-0.1735332 -0.3124245,-0.1735332"/><polygon class="triangle sakti" data-name="P3-14" points="0,0.2794612 0.258935,-0.0570312 -0.258935,-0.0570312"/><polygon class="triangle siva" data-name="P10-1" points="0,-1 0.960157,0.2794612 -0.960157,0.2794612"/><polygon class="triangle siva" data-name="P9-3" points="0,-0.7934598 0.5407201,0.2794612 -0.5407201,0.2794612"/><polygon class="triangle siva" data-name="P7-5" points="0,-0.2794612 0.2707794,0.2794612 -0.2707794,0.2794612"/><polygon class="triangle siva" data-name="P8-10" points="0,-0.4763629 0.3567719,0.1014105 -0.3567719,0.1014105"/><circle class="foot" data-pt="20" cx="0.2585314" cy="-0.0576848" r="0.012"/><circle class="foot" data-pt="20" cx="-0.2585314" cy="-0.0576848" r="0.012"/><circle class="foot" data-pt="21" cx="0.4028773" cy="0.0059474" r="0.012"/><circle class="foot" data-pt="21" cx="-0.4028773" cy="0.0059474" r="0.012"/><circle class="bindu" cx="0" cy="0" r="0.016"/></svg>