<svg xmlns="http://www.w3.org/2000/svg" viewBox="-1.08 -1.08 2.16 2.16" data-figure-id="108" data-engine-commit="75aed90"><style>.circumcircle{fill:none;stroke:var(--circle,#999);stroke-width:.006}.axis{stroke:var(--axis,#ccc);stroke-width:.004;stroke-dasharray:.03 .03}.triangle{fill:none;stroke-width:.008;stroke-linejoin:round}.triangle.sakti{stroke:var(--sakti,#1b1b1b)}.triangle.siva{stroke:var(--siva,#1b1b1b)}.foot{fill:var(--foot,crimson)}.bindu{fill:var(--bindu,#000)}</style><circle class="circumcircle" cx="0" cy="0" r="1"/><line class="axis" x1="0" y1="-1" x2="0" y2="1"/><polygon class="triangle sakti" data-name="P0-2" points="0,1 0.9576742,-0.2878543 -0.9576742,-0.2878543"/><polygon class="triangle sakti" data-name="P1-4" points="0,0.6873601 0.5675412,-0.2878543 -0.5675412,-0.2878543"/><polygon class="triangle sakti" data-name="P4-6" points="0,0.1054629 0.2820306,-0.2878543 -0.2820306,-0.2878543"/><polygon class="triangle sakti" data-name="P2-13" points="0,0.4648612 0.3587634,-0.1552287 -0.3587634,-0.1552287"/><polygon class="triangle sakti" data-name="P3-14" points="0,0.2231504 0.241503,-0.0614562 -0.241503,-0.0614562"/><polygon class="triangle siva" data-name="P10-1" points="0,-1 0.974784,0.2231504 -0.974784,0.2231504"/><polygon class="triangle siva" data-name="P9-3" points="0,-0.7753187 0.5776809,0.2231504 -0.5776809,0.2231504"/><polygon class="triangle siva" data-name="P7-5" points="0,-0.2878543 0.2701541,0.2231504 -0.2701541,0.2231504"/><polygon class="triangle siva" data-name="P8-10" points="0,-0.4764343 0.3386442,0.1054629 -0.3386442,0.1054629"/><circle class="foot" data-pt="20" cx="0.2730986" cy="-0.007165" r="0.012"/><circle class="foot" data-pt="20" cx="-0.2730986" cy="-0.007165" r="0.012"/><circle class="foot" data-pt="21" cx="0.4243678" cy="-0.0418374" r="0.012"/><circle class="foot" data-pt="21" cx="-0.4243678" cy="-0.0418374" r="0.012"/><circle class="bindu" cx="0" cy="0" r="0.016"/></svg>