<svg xmlns="http://www.w3.org/2000/svg" viewBox="-1.08 -1.08 2.16 2.16" data-figure-id="109" data-engine-commit="75aed90"><style>.circumcircle{fill:none;stroke:var(--circle,#999);stroke-width:.006}.axis{stroke:var(--axis,#ccc);stroke-width:.004;stroke-dasharray:.03 .03}.triangle{fill:none;stroke-width:.008;stroke-linejoin:round}.triangle.sakti{stroke:var(--sakti,#1b1b1b)}.triangle.siva{stroke:var(--siva,#1b1b1b)}.foot{fill:var(--foot,crimson)}.bindu{fill:var(--bindu,#000)}</style><circle class="circumcircle" cx="0" cy="0" r="1"/><line class="axis" x1="0" y1="-1" x2="0" y2="1"/><polygon class="triangle sakti" data-name="P0-2" points="0,1 0.9449678,-0.3271633 -0.9449678,-0.3271633"/><polygon class="triangle sakti" data-name="P1-4" points="0,0.8041275 0.5010944,-0.3271633 -0.5010944,-0.3271633"/><polygon class="triangle sakti" data-name="P4-6" points="0,0.1331854 0.2362013,-0.3271633 -0.2362013,-0.3271633"/><polygon class="triangle sakti" data-name="P2-13" points="0,0.5432189 0.302431,-0.1776695 -0.302431,-0.1776695"/><polygon class="triangle sakti" data-name="P3-14" points="0,0.2864623 0.2112633,-0.0608002 -0.2112633,-0.0608002"/><polygon class="triangle siva" data-name="P10-1" points="0,-1 0.9580915,0.2864623 -0.9580915,0.2864623"/><polygon class="triangle siva" data-name="P9-3" points="0,-0.8603175 0.5080536,0.2864623 -0.5080536,0.2864623"/><polygon class="triangle siva" data-name="P7-5" points="0,-0.3271633 0.2292948,0.2864623 -0.2292948,0.2864623"/><polygon class="triangle siva" data-name="P8-10" points="0,-0.5377567 0.2971874,0.1331854 -0.2971874,0.1331854"/><circle class="foot" data-pt="20" cx="0.2329044" cy="-0.0119426" r="0.012"/><circle class="foot" data-pt="20" cx="-0.2329044" cy="-0.0119426" r="0.012"/><circle class="foot" data-pt="21" cx="0.3686607" cy="-0.0281757" r="0.012"/><circle class="foot" data-pt="21" cx="-0.3686607" cy="-0.0281757" r="0.012"/><circle class="bindu" cx="0" cy="0" r="0.016"/></svg>