<svg xmlns="http://www.w3.org/2000/svg" viewBox="-1.08 -1.08 2.16 2.16" data-figure-id="110" data-engine-commit="75aed90"><style>.circumcircle{fill:none;stroke:var(--circle,#999);stroke-width:.006}.axis{stroke:var(--axis,#ccc);stroke-width:.004;stroke-dasharray:.03 .03}.triangle{fill:none;stroke-width:.008;stroke-linejoin:round}.triangle.sakti{stroke:var(--sakti,#1b1b1b)}.triangle.siva{stroke:var(--siva,#1b1b1b)}.foot{fill:var(--foot,crimson)}.bindu{fill:var(--bindu,#000)}</style><circle class="circumcircle" cx="0" cy="0" r="1"/><line class="axis" x1="0" y1="-1" x2="0" y2="1"/><polygon class="triangle sakti" data-name="P0-2" points="0,1 0.9583971,-0.2854382 -0.9583971,-0.2854382"/><polygon class="triangle sakti" data-name="P1-4" points="0,0.6808029 0.5713416,-0.2854382 -0.5713416,-0.2854382"/><polygon class="triangle sakti" data-name="P4-6" points="0,0.1039729 0.284541,-0.2854382 -0.284541,-0.2854382"/><polygon class="triangle sakti" data-name="P2-13" points="0,0.4606227 0.3617511,-0.1540315 -0.3617511,-0.1540315"/><polygon class="triangle sakti" data-name="P3-14" points="0,0.2200249 0.2433305,-0.0613417 -0.2433305,-0.0613417"/><polygon class="triangle siva" data-name="P10-1" points="0,-1 0.9754943,0.2200249 -0.9754943,0.2200249"/><polygon class="triangle siva" data-name="P9-3" points="0,-0.7697087 0.5815339,0.2200249 -0.5815339,0.2200249"/><polygon class="triangle siva" data-name="P7-5" points="0,-0.2854382 0.2724596,0.2200249 -0.2724596,0.2200249"/><polygon class="triangle siva" data-name="P8-10" points="0,-0.4728571 0.3410815,0.1039729 -0.3410815,0.1039729"/><circle class="foot" data-pt="20" cx="0.2753394" cy="-0.0072088" r="0.012"/><circle class="foot" data-pt="20" cx="-0.2753394" cy="-0.0072088" r="0.012"/><circle class="foot" data-pt="21" cx="0.4274867" cy="-0.0421537" r="0.012"/><circle class="foot" data-pt="21" cx="-0.4274867" cy="-0.0421537" r="0.012"/><circle class="bindu" cx="0" cy="0" r="0.016"/></svg>