<svg xmlns="http://www.w3.org/2000/svg" viewBox="-1.08 -1.08 2.16 2.16" data-figure-id="111" data-engine-commit="75aed90"><style>.circumcircle{fill:none;stroke:var(--circle,#999);stroke-width:.006}.axis{stroke:var(--axis,#ccc);stroke-width:.004;stroke-dasharray:.03 .03}.triangle{fill:none;stroke-width:.008;stroke-linejoin:round}.triangle.sakti{stroke:var(--sakti,#1b1b1b)}.triangle.siva{stroke:var(--siva,#1b1b1b)}.foot{fill:var(--foot,crimson)}.bindu{fill:var(--bindu,#000)}</style><circle class="circumcircle" cx="0" cy="0" r="1"/><line class="axis" x1="0" y1="-1" x2="0" y2="1"/><polygon class="triangle sakti" data-name="P0-2" points="0,1 0.9599122,-0.2803009 -0.9599122,-0.2803009"/><polygon class="triangle sakti" data-name="P1-4" points="0,0.6750111 0.5774549,-0.2803009 -0.5774549,-0.2803009"/><polygon class="triangle sakti" data-name="P4-6" points="0,0.1008948 0.2882598,-0.2803009 -0.2882598,-0.2803009"/><polygon class="triangle sakti" data-name="P2-13" points="0,0.4540597 0.3650346,-0.1526884 -0.3650346,-0.1526884"/><polygon class="triangle sakti" data-name="P3-14" points="0,0.2167114 0.2479908,-0.0608557 -0.2479908,-0.0608557"/><polygon class="triangle siva" data-name="P10-1" points="0,-1 0.9762357,0.2167114 -0.9762357,0.2167114"/><polygon class="triangle siva" data-name="P9-3" points="0,-0.7594364 0.5872746,0.2167114 -0.5872746,0.2167114"/><polygon class="triangle siva" data-name="P7-5" points="0,-0.2803009 0.2770272,0.2167114 -0.2770272,0.2167114"/><polygon class="triangle siva" data-name="P8-10" points="0,-0.4658543 0.3470346,0.1008948 -0.3470346,0.1008948"/><circle class="foot" data-pt="20" cx="0.2791606" cy="-0.0099515" r="0.012"/><circle class="foot" data-pt="20" cx="-0.2791606" cy="-0.0099515" r="0.012"/><circle class="foot" data-pt="21" cx="0.4325165" cy="-0.0405223" r="0.012"/><circle class="foot" data-pt="21" cx="-0.4325165" cy="-0.0405223" r="0.012"/><circle class="bindu" cx="0" cy="0" r="0.016"/></svg>