<svg xmlns="http://www.w3.org/2000/svg" viewBox="-1.08 -1.08 2.16 2.16" data-figure-id="112" data-engine-commit="75aed90"><style>.circumcircle{fill:none;stroke:var(--circle,#999);stroke-width:.006}.axis{stroke:var(--axis,#ccc);stroke-width:.004;stroke-dasharray:.03 .03}.triangle{fill:none;stroke-width:.008;stroke-linejoin:round}.triangle.sakti{stroke:var(--sakti,#1b1b1b)}.triangle.siva{stroke:var(--siva,#1b1b1b)}.foot{fill:var(--foot,crimson)}.bindu{fill:var(--bindu,#000)}</style><circle class="circumcircle" cx="0" cy="0" r="1"/><line class="axis" x1="0" y1="-1" x2="0" y2="1"/><polygon class="triangle sakti" data-name="P0-2" points="0,1 0.9656085,-0.2600004 -0.9656085,-0.2600004"/><polygon class="triangle sakti" data-name="P1-4" points="0,0.6508258 0.6017033,-0.2600004 -0.6017033,-0.2600004"/><polygon class="triangle sakti" data-name="P4-6" points="0,0.0894841 0.3025205,-0.2600004 -0.3025205,-0.2600004"/><polygon class="triangle sakti" data-name="P2-13" points="0,0.4284594 0.3774378,-0.1469627 -0.3774378,-0.1469627"/><polygon class="triangle sakti" data-name="P3-14" points="0,0.2039831 0.2667917,-0.0585654 -0.2667917,-0.0585654"/><polygon class="triangle siva" data-name="P10-1" points="0,-1 0.9789744,0.2039831 -0.9789744,0.2039831"/><polygon class="triangle siva" data-name="P9-3" points="0,-0.7164533 0.6100321,0.2039831 -0.6100321,0.2039831"/><polygon class="triangle siva" data-name="P7-5" points="0,-0.2600004 0.2951899,0.2039831 -0.2951899,0.2039831"/><polygon class="triangle siva" data-name="P8-10" points="0,-0.4382199 0.3708294,0.0894841 -0.3708294,0.0894841"/><circle class="foot" data-pt="20" cx="0.2940303" cy="-0.0198039" r="0.012"/><circle class="foot" data-pt="20" cx="-0.2940303" cy="-0.0198039" r="0.012"/><circle class="foot" data-pt="21" cx="0.4523551" cy="-0.0339251" r="0.012"/><circle class="foot" data-pt="21" cx="-0.4523551" cy="-0.0339251" r="0.012"/><circle class="bindu" cx="0" cy="0" r="0.016"/></svg>