<svg xmlns="http://www.w3.org/2000/svg" viewBox="-1.08 -1.08 2.16 2.16" data-figure-id="113" data-engine-commit="75aed90"><style>.circumcircle{fill:none;stroke:var(--circle,#999);stroke-width:.006}.axis{stroke:var(--axis,#ccc);stroke-width:.004;stroke-dasharray:.03 .03}.triangle{fill:none;stroke-width:.008;stroke-linejoin:round}.triangle.sakti{stroke:var(--sakti,#1b1b1b)}.triangle.siva{stroke:var(--siva,#1b1b1b)}.foot{fill:var(--foot,crimson)}.bindu{fill:var(--bindu,#000)}</style><circle class="circumcircle" cx="0" cy="0" r="1"/><line class="axis" x1="0" y1="-1" x2="0" y2="1"/><polygon class="triangle sakti" data-name="P0-2" points="0,1 0.9583874,-0.2854707 -0.9583874,-0.2854707"/><polygon class="triangle sakti" data-name="P1-4" points="0,0.6811741 0.5711232,-0.2854707 -0.5711232,-0.2854707"/><polygon class="triangle sakti" data-name="P4-6" points="0,0.1040301 0.2842174,-0.2854707 -0.2842174,-0.2854707"/><polygon class="triangle sakti" data-name="P2-13" points="0,0.4610324 0.3613129,-0.1541958 -0.3613129,-0.1541958"/><polygon class="triangle sakti" data-name="P3-14" points="0,0.2203453 0.2433,-0.0613207 -0.2433,-0.0613207"/><polygon class="triangle siva" data-name="P10-1" points="0,-1 0.9754219,0.2203453 -0.9754219,0.2203453"/><polygon class="triangle siva" data-name="P9-3" points="0,-0.769424 0.5812744,0.2203453 -0.5812744,0.2203453"/><polygon class="triangle siva" data-name="P7-5" points="0,-0.2854707 0.2722717,0.2203453 -0.2722717,0.2203453"/><polygon class="triangle siva" data-name="P8-10" points="0,-0.4731139 0.3409943,0.1040301 -0.3409943,0.1040301"/><circle class="foot" data-pt="20" cx="0.27513" cy="-0.0074473" r="0.012"/><circle class="foot" data-pt="20" cx="-0.27513" cy="-0.0074473" r="0.012"/><circle class="foot" data-pt="21" cx="0.4272383" cy="-0.0419408" r="0.012"/><circle class="foot" data-pt="21" cx="-0.4272383" cy="-0.0419408" r="0.012"/><circle class="bindu" cx="0" cy="0" r="0.016"/></svg>