<svg xmlns="http://www.w3.org/2000/svg" viewBox="-1.08 -1.08 2.16 2.16" data-figure-id="114" data-engine-commit="75aed90"><style>.circumcircle{fill:none;stroke:var(--circle,#999);stroke-width:.006}.axis{stroke:var(--axis,#ccc);stroke-width:.004;stroke-dasharray:.03 .03}.triangle{fill:none;stroke-width:.008;stroke-linejoin:round}.triangle.sakti{stroke:var(--sakti,#1b1b1b)}.triangle.siva{stroke:var(--siva,#1b1b1b)}.foot{fill:var(--foot,crimson)}.bindu{fill:var(--bindu,#000)}</style><circle class="circumcircle" cx="0" cy="0" r="1"/><line class="axis" x1="0" y1="-1" x2="0" y2="1"/><polygon class="triangle sakti" data-name="P0-2" points="0,1 0.9596674,-0.281138 -0.9596674,-0.281138"/><polygon class="triangle sakti" data-name="P1-4" points="0,0.6432014 0.5929352,-0.281138 -0.5929352,-0.281138"/><polygon class="triangle sakti" data-name="P4-6" points="0,0.0980014 0.3170836,-0.281138 -0.3170836,-0.281138"/><polygon class="triangle sakti" data-name="P2-13" points="0,0.4216646 0.4045874,-0.1386548 -0.4045874,-0.1386548"/><polygon class="triangle sakti" data-name="P3-14" points="0,0.1902382 0.246534,-0.0628716 -0.246534,-0.0628716"/><polygon class="triangle siva" data-name="P10-1" points="0,-1 0.981738,0.1902382 -0.981738,0.1902382"/><polygon class="triangle siva" data-name="P9-3" points="0,-0.7974482 0.6065717,0.1902382 -0.6065717,0.1902382"/><polygon class="triangle siva" data-name="P7-5" points="0,-0.281138 0.290562,0.1902382 -0.290562,0.1902382"/><polygon class="triangle siva" data-name="P8-10" points="0,-0.4471986 0.349729,0.0980014 -0.349729,0.0980014"/><circle class="foot" data-pt="20" cx="0.2951465" cy="0.0129116" r="0.012"/><circle class="foot" data-pt="20" cx="-0.2951465" cy="0.0129116" r="0.012"/><circle class="foot" data-pt="21" cx="0.4520067" cy="-0.0614415" r="0.012"/><circle class="foot" data-pt="21" cx="-0.4520067" cy="-0.0614415" r="0.012"/><circle class="bindu" cx="0" cy="0" r="0.016"/></svg>