<svg xmlns="http://www.w3.org/2000/svg" viewBox="-1.08 -1.08 2.16 2.16" data-figure-id="115" data-engine-commit="75aed90"><style>.circumcircle{fill:none;stroke:var(--circle,#999);stroke-width:.006}.axis{stroke:var(--axis,#ccc);stroke-width:.004;stroke-dasharray:.03 .03}.triangle{fill:none;stroke-width:.008;stroke-linejoin:round}.triangle.sakti{stroke:var(--sakti,#1b1b1b)}.triangle.siva{stroke:var(--siva,#1b1b1b)}.foot{fill:var(--foot,crimson)}.bindu{fill:var(--bindu,#000)}</style><circle class="circumcircle" cx="0" cy="0" r="1"/><line class="axis" x1="0" y1="-1" x2="0" y2="1"/><polygon class="triangle sakti" data-name="P0-2" points="0,1 0.9580762,-0.2865136 -0.9580762,-0.2865136"/><polygon class="triangle sakti" data-name="P1-4" points="0,0.6944707 0.5632085,-0.2865136 -0.5632085,-0.2865136"/><polygon class="triangle sakti" data-name="P4-6" points="0,0.1060505 0.2726004,-0.2865136 -0.2726004,-0.2865136"/><polygon class="triangle sakti" data-name="P2-13" points="0,0.4760667 0.3454202,-0.1602623 -0.3454202,-0.1602623"/><polygon class="triangle sakti" data-name="P3-14" points="0,0.2321998 0.2422127,-0.0604887 -0.2422127,-0.0604887"/><polygon class="triangle siva" data-name="P10-1" points="0,-1 0.9726681,0.2321998 -0.9726681,0.2321998"/><polygon class="triangle siva" data-name="P9-3" points="0,-0.7591342 0.5717864,0.2321998 -0.5717864,0.2321998"/><polygon class="triangle siva" data-name="P7-5" points="0,-0.2865136 0.2654017,0.2321998 -0.2654017,0.2321998"/><polygon class="triangle siva" data-name="P8-10" points="0,-0.4823696 0.3378272,0.1060505 -0.3378272,0.1060505"/><circle class="foot" data-pt="20" cx="0.2674234" cy="-0.0165774" r="0.012"/><circle class="foot" data-pt="20" cx="-0.2674234" cy="-0.0165774" r="0.012"/><circle class="foot" data-pt="21" cx="0.4182401" cy="-0.0340109" r="0.012"/><circle class="foot" data-pt="21" cx="-0.4182401" cy="-0.0340109" r="0.012"/><circle class="bindu" cx="0" cy="0" r="0.016"/></svg>