<svg xmlns="http://www.w3.org/2000/svg" viewBox="-1.08 -1.08 2.16 2.16" data-figure-id="116" data-engine-commit="75aed90"><style>.circumcircle{fill:none;stroke:var(--circle,#999);stroke-width:.006}.axis{stroke:var(--axis,#ccc);stroke-width:.004;stroke-dasharray:.03 .03}.triangle{fill:none;stroke-width:.008;stroke-linejoin:round}.triangle.sakti{stroke:var(--sakti,#1b1b1b)}.triangle.siva{stroke:var(--siva,#1b1b1b)}.foot{fill:var(--foot,crimson)}.bindu{fill:var(--bindu,#000)}</style><circle class="circumcircle" cx="0" cy="0" r="1"/><line class="axis" x1="0" y1="-1" x2="0" y2="1"/><polygon class="triangle sakti" data-name="P0-2" points="0,1 0.9578738,-0.2871896 -0.9578738,-0.2871896"/><polygon class="triangle sakti" data-name="P1-4" points="0,0.7052816 0.5566211,-0.2871896 -0.5566211,-0.2871896"/><polygon class="triangle sakti" data-name="P4-6" points="0,0.1076464 0.2631151,-0.2871896 -0.2631151,-0.2871896"/><polygon class="triangle sakti" data-name="P2-13" points="0,0.4888301 0.3322147,-0.1654717 -0.3322147,-0.1654717"/><polygon class="triangle sakti" data-name="P3-14" points="0,0.2424079 0.2413279,-0.0596944 -0.2413279,-0.0596944"/><polygon class="triangle siva" data-name="P10-1" points="0,-1 0.9701744,0.2424079 -0.9701744,0.2424079"/><polygon class="triangle siva" data-name="P9-3" points="0,-0.7506629 0.563769,0.2424079 -0.563769,0.2424079"/><polygon class="triangle siva" data-name="P7-5" points="0,-0.2871896 0.2595997,0.2424079 -0.2595997,0.2424079"/><polygon class="triangle siva" data-name="P8-10" points="0,-0.4899889 0.3351799,0.1076464 -0.3351799,0.1076464"/><circle class="foot" data-pt="20" cx="0.2608415" cy="-0.0249011" r="0.012"/><circle class="foot" data-pt="20" cx="-0.2608415" cy="-0.0249011" r="0.012"/><circle class="foot" data-pt="21" cx="0.41076" cy="-0.0271152" r="0.012"/><circle class="foot" data-pt="21" cx="-0.41076" cy="-0.0271152" r="0.012"/><circle class="bindu" cx="0" cy="0" r="0.016"/></svg>