<svg xmlns="http://www.w3.org/2000/svg" viewBox="-1.08 -1.08 2.16 2.16" data-figure-id="117" data-engine-commit="75aed90"><style>.circumcircle{fill:none;stroke:var(--circle,#999);stroke-width:.006}.axis{stroke:var(--axis,#ccc);stroke-width:.004;stroke-dasharray:.03 .03}.triangle{fill:none;stroke-width:.008;stroke-linejoin:round}.triangle.sakti{stroke:var(--sakti,#1b1b1b)}.triangle.siva{stroke:var(--siva,#1b1b1b)}.foot{fill:var(--foot,crimson)}.bindu{fill:var(--bindu,#000)}</style><circle class="circumcircle" cx="0" cy="0" r="1"/><line class="axis" x1="0" y1="-1" x2="0" y2="1"/><polygon class="triangle sakti" data-name="P0-2" points="0,1 0.9610607,-0.2763373 -0.9610607,-0.2763373"/><polygon class="triangle sakti" data-name="P1-4" points="0,0.715509 0.5474993,-0.2763373 -0.5474993,-0.2763373"/><polygon class="triangle sakti" data-name="P4-6" points="0,0.1054788 0.2346112,-0.2763373 -0.2346112,-0.2763373"/><polygon class="triangle sakti" data-name="P2-13" points="0,0.5248452 0.2878809,-0.1832035 -0.2878809,-0.1832035"/><polygon class="triangle sakti" data-name="P3-14" points="0,0.2719462 0.2480305,-0.055221 -0.2480305,-0.055221"/><polygon class="triangle siva" data-name="P10-1" points="0,-1 0.9623124,0.2719462 -0.9623124,0.2719462"/><polygon class="triangle siva" data-name="P9-3" points="0,-0.6865191 0.5482124,0.2719462 -0.5482124,0.2719462"/><polygon class="triangle siva" data-name="P7-5" points="0,-0.2763373 0.2448467,0.2719462 -0.2448467,0.2719462"/><polygon class="triangle siva" data-name="P8-10" points="0,-0.5045514 0.3367368,0.1054788 -0.3367368,0.1054788"/><circle class="foot" data-pt="20" cx="0.2410136" cy="-0.0679326" r="0.012"/><circle class="foot" data-pt="20" cx="-0.2410136" cy="-0.0679326" r="0.012"/><circle class="foot" data-pt="21" cx="0.3938347" cy="0.0020405" r="0.012"/><circle class="foot" data-pt="21" cx="-0.3938347" cy="0.0020405" r="0.012"/><circle class="bindu" cx="0" cy="0" r="0.016"/></svg>