<svg xmlns="http://www.w3.org/2000/svg" viewBox="-1.08 -1.08 2.16 2.16" data-figure-id="118" data-engine-commit="75aed90"><style>.circumcircle{fill:none;stroke:var(--circle,#999);stroke-width:.006}.axis{stroke:var(--axis,#ccc);stroke-width:.004;stroke-dasharray:.03 .03}.triangle{fill:none;stroke-width:.008;stroke-linejoin:round}.triangle.sakti{stroke:var(--sakti,#1b1b1b)}.triangle.siva{stroke:var(--siva,#1b1b1b)}.foot{fill:var(--foot,crimson)}.bindu{fill:var(--bindu,#000)}</style><circle class="circumcircle" cx="0" cy="0" r="1"/><line class="axis" x1="0" y1="-1" x2="0" y2="1"/><polygon class="triangle sakti" data-name="P0-2" points="0,1 0.9574882,-0.2884725 -0.9574882,-0.2884725"/><polygon class="triangle sakti" data-name="P1-4" points="0,0.7462724 0.5298883,-0.2884725 -0.5298883,-0.2884725"/><polygon class="triangle sakti" data-name="P4-6" points="0,0.1131746 0.2268179,-0.2884725 -0.2268179,-0.2884725"/><polygon class="triangle sakti" data-name="P2-13" points="0,0.5422377 0.2798851,-0.1879046 -0.2798851,-0.1879046"/><polygon class="triangle sakti" data-name="P3-14" points="0,0.2864989 0.2377516,-0.0556512 -0.2377516,-0.0556512"/><polygon class="triangle siva" data-name="P10-1" points="0,-1 0.9580806,0.2864989 -0.9580806,0.2864989"/><polygon class="triangle siva" data-name="P9-3" points="0,-0.7183162 0.5302161,0.2864989 -0.5302161,0.2864989"/><polygon class="triangle siva" data-name="P7-5" points="0,-0.2884725 0.235448,0.2864989 -0.235448,0.2864989"/><polygon class="triangle siva" data-name="P8-10" points="0,-0.5199232 0.3242065,0.1131746 -0.3242065,0.1131746"/><circle class="foot" data-pt="20" cx="0.2328543" cy="-0.0652143" r="0.012"/><circle class="foot" data-pt="20" cx="-0.2328543" cy="-0.0652143" r="0.012"/><circle class="foot" data-pt="21" cx="0.3806237" cy="0.0030055" r="0.012"/><circle class="foot" data-pt="21" cx="-0.3806237" cy="0.0030055" r="0.012"/><circle class="bindu" cx="0" cy="0" r="0.016"/></svg>