<svg xmlns="http://www.w3.org/2000/svg" viewBox="-1.08 -1.08 2.16 2.16" data-figure-id="119" data-engine-commit="75aed90"><style>.circumcircle{fill:none;stroke:var(--circle,#999);stroke-width:.006}.axis{stroke:var(--axis,#ccc);stroke-width:.004;stroke-dasharray:.03 .03}.triangle{fill:none;stroke-width:.008;stroke-linejoin:round}.triangle.sakti{stroke:var(--sakti,#1b1b1b)}.triangle.siva{stroke:var(--siva,#1b1b1b)}.foot{fill:var(--foot,crimson)}.bindu{fill:var(--bindu,#000)}</style><circle class="circumcircle" cx="0" cy="0" r="1"/><line class="axis" x1="0" y1="-1" x2="0" y2="1"/><polygon class="triangle sakti" data-name="P0-2" points="0,1 0.9548919,-0.2969537 -0.9548919,-0.2969537"/><polygon class="triangle sakti" data-name="P1-4" points="0,0.7679182 0.5176231,-0.2969537 -0.5176231,-0.2969537"/><polygon class="triangle sakti" data-name="P4-6" points="0,0.1187361 0.2213696,-0.2969537 -0.2213696,-0.2969537"/><polygon class="triangle sakti" data-name="P2-13" points="0,0.5543186 0.2741942,-0.1910547 -0.2741942,-0.1910547"/><polygon class="triangle sakti" data-name="P3-14" points="0,0.2969537 0.2307153,-0.0558107 -0.2307153,-0.0558107"/><polygon class="triangle siva" data-name="P10-1" points="0,-1 0.9548919,0.2969537 -0.9548919,0.2969537"/><polygon class="triangle siva" data-name="P9-3" points="0,-0.7407393 0.5176231,0.2969537 -0.5176231,0.2969537"/><polygon class="triangle siva" data-name="P7-5" points="0,-0.2969537 0.2289309,0.2969537 -0.2289309,0.2969537"/><polygon class="triangle siva" data-name="P8-10" points="0,-0.5304461 0.3155606,0.1187361 -0.3155606,0.1187361"/><circle class="foot" data-pt="20" cx="0.227145" cy="-0.0631555" r="0.012"/><circle class="foot" data-pt="20" cx="-0.227145" cy="-0.0631555" r="0.012"/><circle class="foot" data-pt="21" cx="0.3714111" cy="0.0038386" r="0.012"/><circle class="foot" data-pt="21" cx="-0.3714111" cy="0.0038386" r="0.012"/><circle class="bindu" cx="0" cy="0" r="0.016"/></svg>