<svg xmlns="http://www.w3.org/2000/svg" viewBox="-1.08 -1.08 2.16 2.16" data-figure-id="120" data-engine-commit="75aed90"><style>.circumcircle{fill:none;stroke:var(--circle,#999);stroke-width:.006}.axis{stroke:var(--axis,#ccc);stroke-width:.004;stroke-dasharray:.03 .03}.triangle{fill:none;stroke-width:.008;stroke-linejoin:round}.triangle.sakti{stroke:var(--sakti,#1b1b1b)}.triangle.siva{stroke:var(--siva,#1b1b1b)}.foot{fill:var(--foot,crimson)}.bindu{fill:var(--bindu,#000)}</style><circle class="circumcircle" cx="0" cy="0" r="1"/><line class="axis" x1="0" y1="-1" x2="0" y2="1"/><polygon class="triangle sakti" data-name="P0-2" points="0,1 0.9574771,-0.2885094 -0.9574771,-0.2885094"/><polygon class="triangle sakti" data-name="P1-4" points="0,0.7603443 0.5198361,-0.2885094 -0.5198361,-0.2885094"/><polygon class="triangle sakti" data-name="P4-6" points="0,0.1148171 0.2142301,-0.2885094 -0.2142301,-0.2885094"/><polygon class="triangle sakti" data-name="P2-13" points="0,0.5626497 0.2611475,-0.1967762 -0.2611475,-0.1967762"/><polygon class="triangle sakti" data-name="P3-14" points="0,0.3039343 0.236338,-0.0538598 -0.236338,-0.0538598"/><polygon class="triangle siva" data-name="P10-1" points="0,-1 0.952693,0.3039343 -0.952693,0.3039343"/><polygon class="triangle siva" data-name="P9-3" points="0,-0.7073731 0.5172387,0.3039343 -0.5172387,0.3039343"/><polygon class="triangle siva" data-name="P7-5" points="0,-0.2885094 0.2262073,0.3039343 -0.2262073,0.3039343"/><polygon class="triangle siva" data-name="P8-10" points="0,-0.5307101 0.3199382,0.1148171 -0.3199382,0.1148171"/><circle class="foot" data-pt="20" cx="0.2219706" cy="-0.0828484" r="0.012"/><circle class="foot" data-pt="20" cx="-0.2219706" cy="-0.0828484" r="0.012"/><circle class="foot" data-pt="21" cx="0.3694353" cy="0.0149485" r="0.012"/><circle class="foot" data-pt="21" cx="-0.3694353" cy="0.0149485" r="0.012"/><circle class="bindu" cx="0" cy="0" r="0.016"/></svg>