<svg xmlns="http://www.w3.org/2000/svg" viewBox="-1.08 -1.08 2.16 2.16" data-figure-id="121" data-engine-commit="75aed90"><style>.circumcircle{fill:none;stroke:var(--circle,#999);stroke-width:.006}.axis{stroke:var(--axis,#ccc);stroke-width:.004;stroke-dasharray:.03 .03}.triangle{fill:none;stroke-width:.008;stroke-linejoin:round}.triangle.sakti{stroke:var(--sakti,#1b1b1b)}.triangle.siva{stroke:var(--siva,#1b1b1b)}.foot{fill:var(--foot,crimson)}.bindu{fill:var(--bindu,#000)}</style><circle class="circumcircle" cx="0" cy="0" r="1"/><line class="axis" x1="0" y1="-1" x2="0" y2="1"/><polygon class="triangle sakti" data-name="P0-2" points="0,1 0.9601812,-0.2793781 -0.9601812,-0.2793781"/><polygon class="triangle sakti" data-name="P1-4" points="0,0.7263743 0.5408312,-0.2793781 -0.5408312,-0.2793781"/><polygon class="triangle sakti" data-name="P4-6" points="0,0.1077296 0.2296832,-0.2793781 -0.2296832,-0.2793781"/><polygon class="triangle sakti" data-name="P2-13" points="0,0.5338605 0.2814648,-0.1863891 -0.2814648,-0.1863891"/><polygon class="triangle sakti" data-name="P3-14" points="0,0.2793781 0.2451782,-0.0549715 -0.2451782,-0.0549715"/><polygon class="triangle siva" data-name="P10-1" points="0,-1 0.9601812,0.2793781 -0.9601812,0.2793781"/><polygon class="triangle siva" data-name="P9-3" points="0,-0.6918404 0.5408312,0.2793781 -0.5408312,0.2793781"/><polygon class="triangle siva" data-name="P7-5" points="0,-0.2793781 0.2403668,0.2793781 -0.2403668,0.2793781"/><polygon class="triangle siva" data-name="P8-10" points="0,-0.510915 0.3326687,0.1077296 -0.3326687,0.1077296"/><circle class="foot" data-pt="20" cx="0.2364508" cy="-0.0712012" r="0.012"/><circle class="foot" data-pt="20" cx="-0.2364508" cy="-0.0712012" r="0.012"/><circle class="foot" data-pt="21" cx="0.3879748" cy="0.0048802" r="0.012"/><circle class="foot" data-pt="21" cx="-0.3879748" cy="0.0048802" r="0.012"/><circle class="bindu" cx="0" cy="0" r="0.016"/></svg>