<svg xmlns="http://www.w3.org/2000/svg" viewBox="-1.08 -1.08 2.16 2.16" data-figure-id="123" data-engine-commit="75aed90"><style>.circumcircle{fill:none;stroke:var(--circle,#999);stroke-width:.006}.axis{stroke:var(--axis,#ccc);stroke-width:.004;stroke-dasharray:.03 .03}.triangle{fill:none;stroke-width:.008;stroke-linejoin:round}.triangle.sakti{stroke:var(--sakti,#1b1b1b)}.triangle.siva{stroke:var(--siva,#1b1b1b)}.foot{fill:var(--foot,crimson)}.bindu{fill:var(--bindu,#000)}</style><circle class="circumcircle" cx="0" cy="0" r="1"/><line class="axis" x1="0" y1="-1" x2="0" y2="1"/><polygon class="triangle sakti" data-name="P0-2" points="0,1 0.949504,-0.313755 -0.949504,-0.313755"/><polygon class="triangle sakti" data-name="P1-4" points="0,0.8025088 0.5193233,-0.313755 -0.5193233,-0.313755"/><polygon class="triangle sakti" data-name="P4-6" points="0,0.1216739 0.2535702,-0.313755 -0.2535702,-0.313755"/><polygon class="triangle sakti" data-name="P2-13" points="0,0.5158426 0.3200594,-0.1710581 -0.3200594,-0.1710581"/><polygon class="triangle sakti" data-name="P3-14" points="0,0.271709 0.2253513,-0.0612305 -0.2253513,-0.0612305"/><polygon class="triangle siva" data-name="P10-1" points="0,-1 0.9623795,0.271709 -0.9623795,0.271709"/><polygon class="triangle siva" data-name="P9-3" points="0,-0.8579588 0.5263654,0.271709 -0.5263654,0.271709"/><polygon class="triangle siva" data-name="P7-5" points="0,-0.313755 0.2469459,0.271709 -0.2469459,0.271709"/><polygon class="triangle siva" data-name="P8-10" points="0,-0.5122105 0.3167472,0.1216739 -0.3167472,0.1216739"/><circle class="foot" data-pt="20" cx="0.2478791" cy="-0.0161472" r="0.012"/><circle class="foot" data-pt="20" cx="-0.2478791" cy="-0.0161472" r="0.012"/><circle class="foot" data-pt="21" cx="0.3865486" cy="-0.0283612" r="0.012"/><circle class="foot" data-pt="21" cx="-0.3865486" cy="-0.0283612" r="0.012"/><circle class="bindu" cx="0" cy="0" r="0.016"/></svg>