<svg xmlns="http://www.w3.org/2000/svg" viewBox="-1.08 -1.08 2.16 2.16" data-figure-id="124" data-engine-commit="75aed90"><style>.circumcircle{fill:none;stroke:var(--circle,#999);stroke-width:.006}.axis{stroke:var(--axis,#ccc);stroke-width:.004;stroke-dasharray:.03 .03}.triangle{fill:none;stroke-width:.008;stroke-linejoin:round}.triangle.sakti{stroke:var(--sakti,#1b1b1b)}.triangle.siva{stroke:var(--siva,#1b1b1b)}.foot{fill:var(--foot,crimson)}.bindu{fill:var(--bindu,#000)}</style><circle class="circumcircle" cx="0" cy="0" r="1"/><line class="axis" x1="0" y1="-1" x2="0" y2="1"/><polygon class="triangle sakti" data-name="P0-2" points="0,1 0.9671873,-0.2540643 -0.9671873,-0.2540643"/><polygon class="triangle sakti" data-name="P1-4" points="0,0.6402231 0.6103401,-0.2540643 -0.6103401,-0.2540643"/><polygon class="triangle sakti" data-name="P4-6" points="0,0.086144 0.3092081,-0.2540643 -0.3092081,-0.2540643"/><polygon class="triangle sakti" data-name="P2-13" points="0,0.4180836 0.3845931,-0.1439071 -0.3845931,-0.1439071"/><polygon class="triangle sakti" data-name="P3-14" points="0,0.197974 0.2722659,-0.0579393 -0.2722659,-0.0579393"/><polygon class="triangle siva" data-name="P10-1" points="0,-1 0.9802073,0.197974 -0.9802073,0.197974"/><polygon class="triangle siva" data-name="P9-3" points="0,-0.7058977 0.6185563,0.197974 -0.6185563,0.197974"/><polygon class="triangle siva" data-name="P7-5" points="0,-0.2540643 0.3018296,0.197974 -0.3018296,0.197974"/><polygon class="triangle siva" data-name="P8-10" points="0,-0.4284214 0.3781522,0.086144 -0.3781522,0.086144"/><circle class="foot" data-pt="20" cx="0.2999667" cy="-0.0202458" r="0.012"/><circle class="foot" data-pt="20" cx="-0.2999667" cy="-0.0202458" r="0.012"/><circle class="foot" data-pt="21" cx="0.4599782" cy="-0.0337499" r="0.012"/><circle class="foot" data-pt="21" cx="-0.4599782" cy="-0.0337499" r="0.012"/><circle class="bindu" cx="0" cy="0" r="0.016"/></svg>