<svg xmlns="http://www.w3.org/2000/svg" viewBox="-1.08 -1.08 2.16 2.16" data-figure-id="125" data-engine-commit="75aed90"><style>.circumcircle{fill:none;stroke:var(--circle,#999);stroke-width:.006}.axis{stroke:var(--axis,#ccc);stroke-width:.004;stroke-dasharray:.03 .03}.triangle{fill:none;stroke-width:.008;stroke-linejoin:round}.triangle.sakti{stroke:var(--sakti,#1b1b1b)}.triangle.siva{stroke:var(--siva,#1b1b1b)}.foot{fill:var(--foot,crimson)}.bindu{fill:var(--bindu,#000)}</style><circle class="circumcircle" cx="0" cy="0" r="1"/><line class="axis" x1="0" y1="-1" x2="0" y2="1"/><polygon class="triangle sakti" data-name="P0-2" points="0,1 0.9631516,-0.2689592 -0.9631516,-0.2689592"/><polygon class="triangle sakti" data-name="P1-4" points="0,0.860909 0.5548666,-0.2689592 -0.5548666,-0.2689592"/><polygon class="triangle sakti" data-name="P4-6" points="0,0.0935719 0.2765644,-0.2689592 -0.2765644,-0.2689592"/><polygon class="triangle sakti" data-name="P2-13" points="0,0.4722536 0.3300224,-0.1656326 -0.3300224,-0.1656326"/><polygon class="triangle sakti" data-name="P3-14" points="0,0.2689592 0.2729668,-0.0567541 -0.2729668,-0.0567541"/><polygon class="triangle siva" data-name="P10-1" points="0,-1 0.9631516,0.2689592 -0.9631516,0.2689592"/><polygon class="triangle siva" data-name="P9-3" points="0,-0.8035188 0.5548666,0.2689592 -0.5548666,0.2689592"/><polygon class="triangle siva" data-name="P7-5" points="0,-0.2689592 0.2907004,0.2689592 -0.2907004,0.2689592"/><polygon class="triangle siva" data-name="P8-10" points="0,-0.4518266 0.3768313,0.0935719 -0.3768313,0.0935719"/><circle class="foot" data-pt="20" cx="0.2733815" cy="-0.0561539" r="0.012"/><circle class="foot" data-pt="20" cx="-0.2733815" cy="-0.0561539" r="0.012"/><circle class="foot" data-pt="21" cx="0.4193416" cy="0.0070087" r="0.012"/><circle class="foot" data-pt="21" cx="-0.4193416" cy="0.0070087" r="0.012"/><circle class="bindu" cx="0" cy="0" r="0.016"/></svg>