<svg xmlns="http://www.w3.org/2000/svg" viewBox="-1.08 -1.08 2.16 2.16" data-figure-id="126" data-engine-commit="75aed90"><style>.circumcircle{fill:none;stroke:var(--circle,#999);stroke-width:.006}.axis{stroke:var(--axis,#ccc);stroke-width:.004;stroke-dasharray:.03 .03}.triangle{fill:none;stroke-width:.008;stroke-linejoin:round}.triangle.sakti{stroke:var(--sakti,#1b1b1b)}.triangle.siva{stroke:var(--siva,#1b1b1b)}.foot{fill:var(--foot,crimson)}.bindu{fill:var(--bindu,#000)}</style><circle class="circumcircle" cx="0" cy="0" r="1"/><line class="axis" x1="0" y1="-1" x2="0" y2="1"/><polygon class="triangle sakti" data-name="P0-2" points="0,1 0.9539876,-0.2998461 -0.9539876,-0.2998461"/><polygon class="triangle sakti" data-name="P1-4" points="0,0.7440233 0.5138594,-0.2998461 -0.5138594,-0.2998461"/><polygon class="triangle sakti" data-name="P4-6" points="0,0.1229315 0.2119335,-0.2998461 -0.2119335,-0.2998461"/><polygon class="triangle sakti" data-name="P2-13" points="0,0.5685748 0.2643647,-0.195706 -0.2643647,-0.195706"/><polygon class="triangle sakti" data-name="P3-14" points="0,0.2998461 0.224165,-0.0550899 -0.224165,-0.0550899"/><polygon class="triangle siva" data-name="P10-1" points="0,-1 0.9539876,0.2998461 -0.9539876,0.2998461"/><polygon class="triangle siva" data-name="P9-3" points="0,-0.7207934 0.5138594,0.2998461 -0.5138594,0.2998461"/><polygon class="triangle siva" data-name="P7-5" points="0,-0.2998461 0.2186525,0.2998461 -0.2186525,0.2998461"/><polygon class="triangle siva" data-name="P8-10" points="0,-0.5442785 0.3057412,0.1229315 -0.3057412,0.1229315"/><circle class="foot" data-pt="20" cx="0.2193558" cy="-0.0655848" r="0.012"/><circle class="foot" data-pt="20" cx="-0.2193558" cy="-0.0655848" r="0.012"/><circle class="foot" data-pt="21" cx="0.3645951" cy="0.0033739" r="0.012"/><circle class="foot" data-pt="21" cx="-0.3645951" cy="0.0033739" r="0.012"/><circle class="bindu" cx="0" cy="0" r="0.016"/></svg>