<svg xmlns="http://www.w3.org/2000/svg" viewBox="-1.08 -1.08 2.16 2.16" data-figure-id="127" data-engine-commit="75aed90"><style>.circumcircle{fill:none;stroke:var(--circle,#999);stroke-width:.006}.axis{stroke:var(--axis,#ccc);stroke-width:.004;stroke-dasharray:.03 .03}.triangle{fill:none;stroke-width:.008;stroke-linejoin:round}.triangle.sakti{stroke:var(--sakti,#1b1b1b)}.triangle.siva{stroke:var(--siva,#1b1b1b)}.foot{fill:var(--foot,crimson)}.bindu{fill:var(--bindu,#000)}</style><circle class="circumcircle" cx="0" cy="0" r="1"/><line class="axis" x1="0" y1="-1" x2="0" y2="1"/><polygon class="triangle sakti" data-name="P0-2" points="0,1 0.9544767,-0.2982856 -0.9544767,-0.2982856"/><polygon class="triangle sakti" data-name="P1-4" points="0,0.7580534 0.5158881,-0.2982856 -0.5158881,-0.2982856"/><polygon class="triangle sakti" data-name="P4-6" points="0,0.1205486 0.2173465,-0.2982856 -0.2173465,-0.2982856"/><polygon class="triangle sakti" data-name="P2-13" points="0,0.5603933 0.270025,-0.1930189 -0.270025,-0.1930189"/><polygon class="triangle sakti" data-name="P3-14" points="0,0.2982856 0.2278874,-0.0555255 -0.2278874,-0.0555255"/><polygon class="triangle siva" data-name="P10-1" points="0,-1 0.9544767,0.2982856 -0.9544767,0.2982856"/><polygon class="triangle siva" data-name="P9-3" points="0,-0.7326057 0.5158881,0.2982856 -0.5158881,0.2982856"/><polygon class="triangle siva" data-name="P7-5" points="0,-0.2982856 0.2245385,0.2982856 -0.2245385,0.2982856"/><polygon class="triangle siva" data-name="P8-10" points="0,-0.5363353 0.3113405,0.1205486 -0.3113405,0.1205486"/><circle class="foot" data-pt="20" cx="0.2238215" cy="-0.064104" r="0.012"/><circle class="foot" data-pt="20" cx="-0.2238215" cy="-0.064104" r="0.012"/><circle class="foot" data-pt="21" cx="0.3684372" cy="0.0036367" r="0.012"/><circle class="foot" data-pt="21" cx="-0.3684372" cy="0.0036367" r="0.012"/><circle class="bindu" cx="0" cy="0" r="0.016"/></svg>